<svg width="1134" height="570" viewBox="0 0 1134 570" fill="none" xmlns="http://www.w3.org/2000/svg">
<rect x="1.5" y="32.5" width="1131" height="536" rx="13.5" fill="#4D869C" stroke="white" stroke-width="3"/>
<path d="M150.395 149.2L145.045 159.7V167H141.595V159.7L136.245 149.2H140.02L143.345 156.375L146.62 149.2H150.395ZM160.027 160.55V159.25C160.027 158.017 159.844 157.075 159.477 156.425C159.127 155.775 158.385 155.45 157.252 155.45C155.419 155.45 154.502 156.683 154.502 159.15V160.45C154.502 163.1 155.419 164.425 157.252 164.425C158.435 164.425 159.21 163.983 159.577 163.1C159.877 162.4 160.027 161.55 160.027 160.55ZM163.277 159.8C163.277 162.883 162.694 164.95 161.527 166C160.544 166.9 159.119 167.35 157.252 167.35C154.869 167.35 153.26 166.65 152.427 165.25C151.644 163.967 151.252 162.15 151.252 159.8C151.252 157.6 151.644 155.875 152.427 154.625C153.294 153.225 154.869 152.525 157.152 152.525C159.452 152.525 161.044 153.142 161.927 154.375C162.827 155.592 163.277 157.4 163.277 159.8ZM176.551 167H174.126L173.376 165.3L169.376 167.15C168.26 167.15 167.285 166.742 166.451 165.925C165.635 165.092 165.226 163.883 165.226 162.3V152.725H168.476V161.6C168.476 163.183 169.11 163.975 170.376 163.975L173.301 162.4V152.725H176.551V167ZM195.843 167H193.668L192.668 165.275L189.193 167.15C187.26 167.15 185.96 166.45 185.293 165.05C184.96 164.367 184.726 163.633 184.593 162.85C184.476 162.05 184.418 161.225 184.418 160.375C184.418 159.508 184.426 158.875 184.443 158.475C184.46 158.058 184.501 157.583 184.568 157.05C184.635 156.5 184.726 156.042 184.843 155.675C184.976 155.308 185.16 154.933 185.393 154.55C185.626 154.15 185.91 153.833 186.243 153.6C186.993 153.083 187.968 152.825 189.168 152.825H192.593L195.843 152.625V167ZM192.593 162.45V155.75H190.118C189.201 155.75 188.56 156.1 188.193 156.8C187.843 157.5 187.668 158.55 187.668 159.95C187.668 161.333 187.835 162.308 188.168 162.875C188.518 163.442 189.168 163.725 190.118 163.725L192.593 162.45ZM206.947 152.775L206.047 155.975C205.797 155.875 205.514 155.825 205.197 155.825C204.364 155.825 203.339 156.183 202.122 156.9V167H198.872V152.725H201.297L202.047 153.975L205.497 152.55C205.664 152.533 205.889 152.525 206.172 152.525C206.456 152.525 206.714 152.608 206.947 152.775ZM219.814 160.625H211.489C211.489 161.925 211.689 162.875 212.089 163.475C212.505 164.075 213.33 164.375 214.564 164.375C215.364 164.375 215.955 164.125 216.339 163.625C216.722 163.108 216.914 162.617 216.914 162.15H219.839C219.839 163.933 219.355 165.242 218.389 166.075C217.439 166.908 216.172 167.325 214.589 167.325C213.022 167.325 211.805 167.1 210.939 166.65C209.155 165.733 208.264 163.3 208.264 159.35C208.264 157 208.772 155.283 209.789 154.2C210.805 153.1 212.355 152.55 214.439 152.55C218.055 152.55 219.864 154.558 219.864 158.575C219.864 159.008 219.847 159.692 219.814 160.625ZM211.564 158.4H216.914C216.914 157.3 216.705 156.5 216.289 156C215.872 155.5 215.23 155.25 214.364 155.25C213.514 155.25 212.83 155.508 212.314 156.025C211.814 156.525 211.564 157.317 211.564 158.4ZM239.645 167H236.395V158.05C236.395 156.517 235.795 155.75 234.595 155.75L231.495 156.975V167H228.245V148.2H231.495V154.425L235.62 152.575C237.087 152.575 238.12 152.992 238.72 153.825C239.337 154.658 239.645 155.825 239.645 157.325V167ZM253.554 160.625H245.229C245.229 161.925 245.429 162.875 245.829 163.475C246.245 164.075 247.07 164.375 248.304 164.375C249.104 164.375 249.695 164.125 250.079 163.625C250.462 163.108 250.654 162.617 250.654 162.15H253.579C253.579 163.933 253.095 165.242 252.129 166.075C251.179 166.908 249.912 167.325 248.329 167.325C246.762 167.325 245.545 167.1 244.679 166.65C242.895 165.733 242.004 163.3 242.004 159.35C242.004 157 242.512 155.283 243.529 154.2C244.545 153.1 246.095 152.55 248.179 152.55C251.795 152.55 253.604 154.558 253.604 158.575C253.604 159.008 253.587 159.692 253.554 160.625ZM245.304 158.4H250.654C250.654 157.3 250.445 156.5 250.029 156C249.612 155.5 248.97 155.25 248.104 155.25C247.254 155.25 246.57 155.508 246.054 156.025C245.554 156.525 245.304 157.317 245.304 158.4ZM264.125 152.775L263.225 155.975C262.975 155.875 262.692 155.825 262.375 155.825C261.542 155.825 260.517 156.183 259.3 156.9V167H256.05V152.725H258.475L259.225 153.975L262.675 152.55C262.842 152.533 263.067 152.525 263.35 152.525C263.633 152.525 263.892 152.608 264.125 152.775ZM276.991 160.625H268.666C268.666 161.925 268.866 162.875 269.266 163.475C269.683 164.075 270.508 164.375 271.741 164.375C272.541 164.375 273.133 164.125 273.516 163.625C273.9 163.108 274.091 162.617 274.091 162.15H277.016C277.016 163.933 276.533 165.242 275.566 166.075C274.616 166.908 273.35 167.325 271.766 167.325C270.2 167.325 268.983 167.1 268.116 166.65C266.333 165.733 265.441 163.3 265.441 159.35C265.441 157 265.95 155.283 266.966 154.2C267.983 153.1 269.533 152.55 271.616 152.55C275.233 152.55 277.041 154.558 277.041 158.575C277.041 159.008 277.025 159.692 276.991 160.625ZM268.741 158.4H274.091C274.091 157.3 273.883 156.5 273.466 156C273.05 155.5 272.408 155.25 271.541 155.25C270.691 155.25 270.008 155.508 269.491 156.025C268.991 156.525 268.741 157.317 268.741 158.4ZM284.988 149.2L284.238 160C284.171 160.467 284.004 160.833 283.738 161.1C283.488 161.35 283.204 161.475 282.888 161.475C282.571 161.475 282.288 161.342 282.038 161.075C281.804 160.808 281.688 160.45 281.688 160L280.963 149.2H284.988ZM284.638 163.65C284.904 163.9 285.038 164.442 285.038 165.275C285.038 166.108 284.904 166.658 284.638 166.925C284.388 167.192 283.846 167.325 283.013 167.325C282.179 167.325 281.629 167.192 281.363 166.925C281.096 166.658 280.963 166.108 280.963 165.275C280.963 164.442 281.096 163.9 281.363 163.65C281.629 163.383 282.179 163.25 283.013 163.25C283.846 163.25 284.388 163.383 284.638 163.65Z" fill="white"/>
<circle cx="206.5" cy="207.5" r="18" stroke="white" stroke-width="3"/>
<circle cx="206.5" cy="207.5" r="10" fill="#FF0000" stroke="white" stroke-width="3"/>
<line x1="224" y1="206.5" x2="537" y2="206.5" stroke="white" stroke-width="3"/>
<circle cx="932.5" cy="127.5" r="18" stroke="white" stroke-width="3"/>
<circle cx="509.5" cy="507.5" r="18" stroke="white" stroke-width="3"/>
<line x1="535.5" y1="206" x2="535.5" y2="127" stroke="white" stroke-width="3"/>
<line x1="534" y1="126.5" x2="616" y2="126.5" stroke="white" stroke-width="3"/>
<line x1="607.061" y1="117.939" x2="617.061" y2="127.939" stroke="white" stroke-width="3"/>
<line y1="-1.5" x2="14.1421" y2="-1.5" transform="matrix(-0.707107 0.707107 0.707107 0.707107 832 501)" stroke="white" stroke-width="3"/>
<line y1="-1.5" x2="14.1421" y2="-1.5" transform="matrix(-0.707107 0.707107 0.707107 0.707107 371 500)" stroke="white" stroke-width="3"/>
<line x1="607.939" y1="134.939" x2="616.939" y2="125.939" stroke="white" stroke-width="3"/>
<line y1="-1.5" x2="12.7279" y2="-1.5" transform="matrix(-0.707107 -0.707107 -0.707107 0.707107 829 518)" stroke="white" stroke-width="3"/>
<line y1="-1.5" x2="12.7279" y2="-1.5" transform="matrix(-0.707107 -0.707107 -0.707107 0.707107 368 517)" stroke="white" stroke-width="3"/>
<rect x="622" y="108" width="282" height="35" fill="white"/>
<rect x="534" y="490" width="282" height="35" fill="white"/>
<rect x="75" y="474" width="282" height="68" fill="white"/>
<line x1="950" y1="126.5" x2="1087" y2="126.5" stroke="white" stroke-width="3"/>
<line x1="1086.5" y1="126" x2="1086.5" y2="429" stroke="white" stroke-width="3"/>
<line x1="1088" y1="428.5" x2="913" y2="428.5" stroke="white" stroke-width="3"/>
<line x1="912.5" y1="427" x2="912.5" y2="510" stroke="white" stroke-width="3"/>
<line x1="913" y1="508.5" x2="822" y2="508.5" stroke="white" stroke-width="3"/>
<line x1="491" y1="507.5" x2="363" y2="507.5" stroke="white" stroke-width="3"/>
<path d="M674.327 134H670.087C668.487 134 667.327 133.693 666.607 133.08C665.9 132.453 665.547 131.44 665.547 130.04V119.76H668.327V130.04C668.327 130.6 668.453 130.987 668.707 131.2C668.96 131.413 669.42 131.52 670.087 131.52H674.327V134ZM684.903 128.9H678.243C678.243 129.94 678.403 130.7 678.723 131.18C679.056 131.66 679.716 131.9 680.703 131.9C681.343 131.9 681.816 131.7 682.123 131.3C682.429 130.887 682.583 130.493 682.583 130.12H684.923C684.923 131.547 684.536 132.593 683.763 133.26C683.003 133.927 681.989 134.26 680.723 134.26C679.469 134.26 678.496 134.08 677.803 133.72C676.376 132.987 675.663 131.04 675.663 127.88C675.663 126 676.069 124.627 676.883 123.76C677.696 122.88 678.936 122.44 680.603 122.44C683.496 122.44 684.943 124.047 684.943 127.26C684.943 127.607 684.929 128.153 684.903 128.9ZM678.303 127.12H682.583C682.583 126.24 682.416 125.6 682.083 125.2C681.749 124.8 681.236 124.6 680.543 124.6C679.863 124.6 679.316 124.807 678.903 125.22C678.503 125.62 678.303 126.253 678.303 127.12ZM695.14 130.84V131.14C695.06 132.14 694.633 132.893 693.86 133.4C693.1 133.907 692.147 134.16 691 134.16C689.307 134.16 688.12 133.853 687.44 133.24C686.813 132.68 686.5 131.853 686.5 130.76V130.52H688.86C688.86 131.133 689.02 131.553 689.34 131.78C689.66 132.007 690.213 132.12 691 132.12C692.067 132.12 692.6 131.733 692.6 130.96C692.6 130.32 692.413 129.893 692.04 129.68C691.867 129.573 691.647 129.493 691.38 129.44L689.36 129.1C687.6 128.82 686.72 127.72 686.72 125.8C686.72 124.733 687.107 123.907 687.88 123.32C688.667 122.72 689.66 122.42 690.86 122.42C693.593 122.42 694.96 123.6 694.96 125.96V126.22H692.7C692.673 125.593 692.507 125.167 692.2 124.94C691.893 124.713 691.46 124.6 690.9 124.6C690.353 124.6 689.94 124.713 689.66 124.94C689.38 125.153 689.24 125.393 689.24 125.66C689.24 126.42 689.547 126.853 690.16 126.96L692.58 127.4C694.287 127.72 695.14 128.867 695.14 130.84ZM710.528 128.9H703.868C703.868 129.94 704.028 130.7 704.348 131.18C704.681 131.66 705.341 131.9 706.328 131.9C706.968 131.9 707.441 131.7 707.748 131.3C708.054 130.887 708.208 130.493 708.208 130.12H710.548C710.548 131.547 710.161 132.593 709.388 133.26C708.628 133.927 707.614 134.26 706.348 134.26C705.094 134.26 704.121 134.08 703.428 133.72C702.001 132.987 701.288 131.04 701.288 127.88C701.288 126 701.694 124.627 702.508 123.76C703.321 122.88 704.561 122.44 706.228 122.44C709.121 122.44 710.568 124.047 710.568 127.26C710.568 127.607 710.554 128.153 710.528 128.9ZM703.928 127.12H708.208C708.208 126.24 708.041 125.6 707.708 125.2C707.374 124.8 706.861 124.6 706.168 124.6C705.488 124.6 704.941 124.807 704.528 125.22C704.128 125.62 703.928 126.253 703.928 127.12ZM721.465 134H719.525L718.925 132.64L715.725 134.12C714.832 134.12 714.052 133.793 713.385 133.14C712.732 132.473 712.405 131.507 712.405 130.24V122.58H715.005V129.68C715.005 130.947 715.512 131.58 716.525 131.58L718.865 130.32V122.58H721.465V134ZM730.23 129.82L732.59 129.8C732.576 129.907 732.563 130.1 732.55 130.38C732.536 130.66 732.523 130.853 732.51 130.96C732.51 131.053 732.496 131.207 732.47 131.42C732.443 131.633 732.41 131.793 732.37 131.9C732.343 131.993 732.303 132.12 732.25 132.28C732.01 132.973 731.356 133.52 730.29 133.92C729.61 134.16 728.896 134.28 728.15 134.28C727.416 134.28 726.75 134.16 726.15 133.92C725.55 133.68 725.076 133.373 724.73 133C723.943 132.173 723.55 130.627 723.55 128.36C723.55 126.08 723.943 124.527 724.73 123.7C725.076 123.327 725.55 123.02 726.15 122.78C726.75 122.54 727.416 122.42 728.15 122.42C729.59 122.42 730.683 122.78 731.43 123.5C732.176 124.22 732.55 125.22 732.55 126.5H730.19C730.19 125.913 730.043 125.48 729.75 125.2C729.456 124.907 728.91 124.76 728.11 124.76C727.323 124.76 726.796 125.007 726.53 125.5C726.276 125.993 726.15 126.733 726.15 127.72V128.76C726.15 130.347 726.456 131.32 727.07 131.68C727.35 131.853 727.716 131.94 728.17 131.94C728.623 131.94 728.99 131.9 729.27 131.82C729.563 131.727 729.77 131.573 729.89 131.36C730.023 131.147 730.11 130.94 730.15 130.74C730.19 130.527 730.216 130.22 730.23 129.82ZM742.621 134H740.881L740.081 132.62L737.301 134.12C735.754 134.12 734.714 133.56 734.181 132.44C733.914 131.893 733.727 131.307 733.621 130.68C733.527 130.04 733.481 129.38 733.481 128.7C733.481 128.007 733.487 127.5 733.501 127.18C733.514 126.847 733.547 126.467 733.601 126.04C733.654 125.6 733.727 125.233 733.821 124.94C733.927 124.647 734.074 124.347 734.261 124.04C734.447 123.72 734.674 123.467 734.941 123.28C735.541 122.867 736.321 122.66 737.281 122.66H740.021L742.621 122.5V134ZM740.021 130.36V125H738.041C737.307 125 736.794 125.28 736.501 125.84C736.221 126.4 736.081 127.24 736.081 128.36C736.081 129.467 736.214 130.247 736.481 130.7C736.761 131.153 737.281 131.38 738.041 131.38L740.021 130.36ZM747.944 134L745.344 134.02V118.96H747.944V134ZM759.077 122.58L754.737 135.28C754.537 135.853 754.277 136.3 753.957 136.62C753.424 137.153 752.677 137.42 751.717 137.42H750.497V135.08H751.297C751.671 135.08 751.944 135.013 752.117 134.88C752.304 134.76 752.464 134.513 752.597 134.14L752.797 133.58L749.357 122.58H752.097L754.137 130.52L756.337 122.58H759.077ZM769.74 127.98C769.74 130.953 768.973 132.853 767.44 133.68C766.813 134.013 766.047 134.18 765.14 134.18L763.22 132.94V137.4H760.62V122.66H765.74C767.287 122.66 768.34 123.1 768.9 123.98C769.46 124.847 769.74 126.18 769.74 127.98ZM767.14 128.38C767.14 126.127 766.42 125 764.98 125H763.22V130.3L764.98 131.44C765.753 131.44 766.307 131.2 766.64 130.72C766.973 130.227 767.14 129.447 767.14 128.38ZM776.692 134H775.072C774.085 134 773.332 133.707 772.812 133.12C772.305 132.533 772.052 131.833 772.052 131.02V125.02H770.952V123.04H772.052V120.8H774.652V123.04H776.492V125.02H774.652V130.86C774.652 131.487 774.952 131.8 775.552 131.8H776.692V134ZM787.383 134H785.443L784.843 132.64L781.643 134.12C780.749 134.12 779.969 133.793 779.303 133.14C778.649 132.473 778.323 131.507 778.323 130.24V122.58H780.923V129.68C780.923 130.947 781.429 131.58 782.443 131.58L784.783 130.32V122.58H787.383V134ZM798.148 130.84V131.14C798.068 132.14 797.641 132.893 796.868 133.4C796.108 133.907 795.154 134.16 794.008 134.16C792.314 134.16 791.128 133.853 790.448 133.24C789.821 132.68 789.508 131.853 789.508 130.76V130.52H791.868C791.868 131.133 792.028 131.553 792.348 131.78C792.668 132.007 793.221 132.12 794.008 132.12C795.074 132.12 795.608 131.733 795.608 130.96C795.608 130.32 795.421 129.893 795.048 129.68C794.874 129.573 794.654 129.493 794.388 129.44L792.368 129.1C790.608 128.82 789.728 127.72 789.728 125.8C789.728 124.733 790.114 123.907 790.888 123.32C791.674 122.72 792.668 122.42 793.868 122.42C796.601 122.42 797.968 123.6 797.968 125.96V126.22H795.708C795.681 125.593 795.514 125.167 795.208 124.94C794.901 124.713 794.468 124.6 793.908 124.6C793.361 124.6 792.948 124.713 792.668 124.94C792.388 125.153 792.248 125.393 792.248 125.66C792.248 126.42 792.554 126.853 793.168 126.96L795.588 127.4C797.294 127.72 798.148 128.867 798.148 130.84ZM812.816 130.84V131.14C812.736 132.14 812.309 132.893 811.536 133.4C810.776 133.907 809.822 134.16 808.676 134.16C806.982 134.16 805.796 133.853 805.116 133.24C804.489 132.68 804.176 131.853 804.176 130.76V130.52H806.536C806.536 131.133 806.696 131.553 807.016 131.78C807.336 132.007 807.889 132.12 808.676 132.12C809.742 132.12 810.276 131.733 810.276 130.96C810.276 130.32 810.089 129.893 809.716 129.68C809.542 129.573 809.322 129.493 809.056 129.44L807.036 129.1C805.276 128.82 804.396 127.72 804.396 125.8C804.396 124.733 804.782 123.907 805.556 123.32C806.342 122.72 807.336 122.42 808.536 122.42C811.269 122.42 812.636 123.6 812.636 125.96V126.22H810.376C810.349 125.593 810.182 125.167 809.876 124.94C809.569 124.713 809.136 124.6 808.576 124.6C808.029 124.6 807.616 124.713 807.336 124.94C807.056 125.153 806.916 125.393 806.916 125.66C806.916 126.42 807.222 126.853 807.836 126.96L810.256 127.4C811.962 127.72 812.816 128.867 812.816 130.84ZM819.875 134H818.255C817.268 134 816.515 133.707 815.995 133.12C815.488 132.533 815.235 131.833 815.235 131.02V125.02H814.135V123.04H815.235V120.8H817.835V123.04H819.675V125.02H817.835V130.86C817.835 131.487 818.135 131.8 818.735 131.8H819.875V134ZM829.886 134H828.146L827.346 132.62L824.566 134.12C823.02 134.12 821.98 133.56 821.446 132.44C821.18 131.893 820.993 131.307 820.886 130.68C820.793 130.04 820.746 129.38 820.746 128.7C820.746 128.007 820.753 127.5 820.766 127.18C820.78 126.847 820.813 126.467 820.866 126.04C820.92 125.6 820.993 125.233 821.086 124.94C821.193 124.647 821.34 124.347 821.526 124.04C821.713 123.72 821.94 123.467 822.206 123.28C822.806 122.867 823.586 122.66 824.546 122.66H827.286L829.886 122.5V134ZM827.286 130.36V125H825.306C824.573 125 824.06 125.28 823.766 125.84C823.486 126.4 823.346 127.24 823.346 128.36C823.346 129.467 823.48 130.247 823.746 130.7C824.026 131.153 824.546 131.38 825.306 131.38L827.286 130.36ZM837.59 134H835.97C834.983 134 834.23 133.707 833.71 133.12C833.203 132.533 832.95 131.833 832.95 131.02V125.02H831.85V123.04H832.95V120.8H835.55V123.04H837.39V125.02H835.55V130.86C835.55 131.487 835.85 131.8 836.45 131.8H837.59V134ZM841.061 118.22C841.688 118.22 842.095 118.32 842.281 118.52C842.468 118.707 842.561 119.113 842.561 119.74C842.561 120.353 842.461 120.76 842.261 120.96C842.075 121.147 841.668 121.24 841.041 121.24C840.428 121.24 840.021 121.14 839.821 120.94C839.635 120.74 839.541 120.333 839.541 119.72C839.541 119.107 839.635 118.707 839.821 118.52C840.021 118.32 840.435 118.22 841.061 118.22ZM842.341 134H839.741V123H842.341V134ZM851.429 128.84V127.8C851.429 126.813 851.282 126.06 850.989 125.54C850.709 125.02 850.116 124.76 849.209 124.76C847.742 124.76 847.009 125.747 847.009 127.72V128.76C847.009 130.88 847.742 131.94 849.209 131.94C850.156 131.94 850.776 131.587 851.069 130.88C851.309 130.32 851.429 129.64 851.429 128.84ZM854.029 128.24C854.029 130.707 853.562 132.36 852.629 133.2C851.842 133.92 850.702 134.28 849.209 134.28C847.302 134.28 846.016 133.72 845.349 132.6C844.722 131.573 844.409 130.12 844.409 128.24C844.409 126.48 844.722 125.1 845.349 124.1C846.042 122.98 847.302 122.42 849.129 122.42C850.969 122.42 852.242 122.913 852.949 123.9C853.669 124.873 854.029 126.32 854.029 128.24ZM864.968 134H862.368V126.7C862.368 126.047 862.235 125.6 861.968 125.36C861.702 125.12 861.328 125 860.848 125L858.508 125.98V134H855.908V122.58H857.848L858.448 123.94L861.648 122.46C862.542 122.46 863.315 122.793 863.968 123.46C864.635 124.113 864.968 125.073 864.968 126.34V134Z" fill="black"/>
<path d="M616.411 514H611.371C609.771 514 608.644 513.727 607.991 513.18C607.351 512.62 607.031 511.64 607.031 510.24V499.76H616.411V502.24H609.811V505.58H614.431L614.231 508.06H609.811V510.04C609.811 510.6 609.938 510.987 610.191 511.2C610.444 511.413 610.904 511.52 611.571 511.52H616.411V514ZM621.44 514L618.84 514.02V498.96H621.44V514ZM635.013 514H632.233V508.24H627.013V514H624.233V499.76H627.013V505.78H632.233V499.76H635.013V514ZM645.785 514H644.045L643.245 512.62L640.465 514.12C638.918 514.12 637.878 513.56 637.345 512.44C637.078 511.893 636.892 511.307 636.785 510.68C636.692 510.04 636.645 509.38 636.645 508.7C636.645 508.007 636.652 507.5 636.665 507.18C636.678 506.847 636.712 506.467 636.765 506.04C636.818 505.6 636.892 505.233 636.985 504.94C637.092 504.647 637.238 504.347 637.425 504.04C637.612 503.72 637.838 503.467 638.105 503.28C638.705 502.867 639.485 502.66 640.445 502.66H643.185L645.785 502.5V514ZM643.185 510.36V505H641.205C640.472 505 639.958 505.28 639.665 505.84C639.385 506.4 639.245 507.24 639.245 508.36C639.245 509.467 639.378 510.247 639.645 510.7C639.925 511.153 640.445 511.38 641.205 511.38L643.185 510.36ZM654.668 502.62L653.948 505.18C653.748 505.1 653.522 505.06 653.268 505.06C652.602 505.06 651.782 505.347 650.808 505.92V514H648.208V502.58H650.148L650.748 503.58L653.508 502.44C653.642 502.427 653.822 502.42 654.048 502.42C654.275 502.42 654.482 502.487 654.668 502.62ZM664.261 514H662.521L661.721 512.62L658.941 514.12C657.395 514.12 656.355 513.56 655.821 512.44C655.555 511.893 655.368 511.307 655.261 510.68C655.168 510.04 655.121 509.38 655.121 508.7C655.121 508.007 655.128 507.5 655.141 507.18C655.155 506.847 655.188 506.467 655.241 506.04C655.295 505.6 655.368 505.233 655.461 504.94C655.568 504.647 655.715 504.347 655.901 504.04C656.088 503.72 656.315 503.467 656.581 503.28C657.181 502.867 657.961 502.66 658.921 502.66H661.661L664.261 502.5V514ZM661.661 510.36V505H659.681C658.948 505 658.435 505.28 658.141 505.84C657.861 506.4 657.721 507.24 657.721 508.36C657.721 509.467 657.855 510.247 658.121 510.7C658.401 511.153 658.921 511.38 659.681 511.38L661.661 510.36ZM672.925 509.82L675.285 509.8C675.272 509.907 675.258 510.1 675.245 510.38C675.232 510.66 675.218 510.853 675.205 510.96C675.205 511.053 675.192 511.207 675.165 511.42C675.138 511.633 675.105 511.793 675.065 511.9C675.038 511.993 674.998 512.12 674.945 512.28C674.705 512.973 674.052 513.52 672.985 513.92C672.305 514.16 671.592 514.28 670.845 514.28C670.112 514.28 669.445 514.16 668.845 513.92C668.245 513.68 667.772 513.373 667.425 513C666.638 512.173 666.245 510.627 666.245 508.36C666.245 506.08 666.638 504.527 667.425 503.7C667.772 503.327 668.245 503.02 668.845 502.78C669.445 502.54 670.112 502.42 670.845 502.42C672.285 502.42 673.378 502.78 674.125 503.5C674.872 504.22 675.245 505.22 675.245 506.5H672.885C672.885 505.913 672.738 505.48 672.445 505.2C672.152 504.907 671.605 504.76 670.805 504.76C670.018 504.76 669.492 505.007 669.225 505.5C668.972 505.993 668.845 506.733 668.845 507.72V508.76C668.845 510.347 669.152 511.32 669.765 511.68C670.045 511.853 670.412 511.94 670.865 511.94C671.318 511.94 671.685 511.9 671.965 511.82C672.258 511.727 672.465 511.573 672.585 511.36C672.718 511.147 672.805 510.94 672.845 510.74C672.885 510.527 672.912 510.22 672.925 509.82ZM686.276 514H683.676V506.84C683.676 505.613 683.196 505 682.236 505L679.756 505.98V514H677.156V498.96H679.756V503.94L683.056 502.46C684.229 502.46 685.056 502.793 685.536 503.46C686.029 504.127 686.276 505.06 686.276 506.26V514ZM701.331 510.84V511.14C701.251 512.14 700.825 512.893 700.051 513.4C699.291 513.907 698.338 514.16 697.191 514.16C695.498 514.16 694.311 513.853 693.631 513.24C693.005 512.68 692.691 511.853 692.691 510.76V510.52H695.051C695.051 511.133 695.211 511.553 695.531 511.78C695.851 512.007 696.405 512.12 697.191 512.12C698.258 512.12 698.791 511.733 698.791 510.96C698.791 510.32 698.605 509.893 698.231 509.68C698.058 509.573 697.838 509.493 697.571 509.44L695.551 509.1C693.791 508.82 692.911 507.72 692.911 505.8C692.911 504.733 693.298 503.907 694.071 503.32C694.858 502.72 695.851 502.42 697.051 502.42C699.785 502.42 701.151 503.6 701.151 505.96V506.22H698.891C698.865 505.593 698.698 505.167 698.391 504.94C698.085 504.713 697.651 504.6 697.091 504.6C696.545 504.6 696.131 504.713 695.851 504.94C695.571 505.153 695.431 505.393 695.431 505.66C695.431 506.42 695.738 506.853 696.351 506.96L698.771 507.4C700.478 507.72 701.331 508.867 701.331 510.84ZM708.391 514H706.771C705.784 514 705.031 513.707 704.511 513.12C704.004 512.533 703.751 511.833 703.751 511.02V505.02H702.651V503.04H703.751V500.8H706.351V503.04H708.191V505.02H706.351V510.86C706.351 511.487 706.651 511.8 707.251 511.8H708.391V514ZM718.402 514H716.662L715.862 512.62L713.082 514.12C711.535 514.12 710.495 513.56 709.962 512.44C709.695 511.893 709.509 511.307 709.402 510.68C709.309 510.04 709.262 509.38 709.262 508.7C709.262 508.007 709.269 507.5 709.282 507.18C709.295 506.847 709.329 506.467 709.382 506.04C709.435 505.6 709.509 505.233 709.602 504.94C709.709 504.647 709.855 504.347 710.042 504.04C710.229 503.72 710.455 503.467 710.722 503.28C711.322 502.867 712.102 502.66 713.062 502.66H715.802L718.402 502.5V514ZM715.802 510.36V505H713.822C713.089 505 712.575 505.28 712.282 505.84C712.002 506.4 711.862 507.24 711.862 508.36C711.862 509.467 711.995 510.247 712.262 510.7C712.542 511.153 713.062 511.38 713.822 511.38L715.802 510.36ZM726.106 514H724.486C723.499 514 722.746 513.707 722.226 513.12C721.719 512.533 721.466 511.833 721.466 511.02V505.02H720.366V503.04H721.466V500.8H724.066V503.04H725.906V505.02H724.066V510.86C724.066 511.487 724.366 511.8 724.966 511.8H726.106V514ZM729.577 498.22C730.204 498.22 730.61 498.32 730.797 498.52C730.984 498.707 731.077 499.113 731.077 499.74C731.077 500.353 730.977 500.76 730.777 500.96C730.59 501.147 730.184 501.24 729.557 501.24C728.944 501.24 728.537 501.14 728.337 500.94C728.15 500.74 728.057 500.333 728.057 499.72C728.057 499.107 728.15 498.707 728.337 498.52C728.537 498.32 728.95 498.22 729.577 498.22ZM730.857 514H728.257V503H730.857V514ZM739.945 508.84V507.8C739.945 506.813 739.798 506.06 739.505 505.54C739.225 505.02 738.631 504.76 737.725 504.76C736.258 504.76 735.525 505.747 735.525 507.72V508.76C735.525 510.88 736.258 511.94 737.725 511.94C738.671 511.94 739.291 511.587 739.585 510.88C739.825 510.32 739.945 509.64 739.945 508.84ZM742.545 508.24C742.545 510.707 742.078 512.36 741.145 513.2C740.358 513.92 739.218 514.28 737.725 514.28C735.818 514.28 734.531 513.72 733.865 512.6C733.238 511.573 732.925 510.12 732.925 508.24C732.925 506.48 733.238 505.1 733.865 504.1C734.558 502.98 735.818 502.42 737.645 502.42C739.485 502.42 740.758 502.913 741.465 503.9C742.185 504.873 742.545 506.32 742.545 508.24ZM753.484 514H750.884V506.7C750.884 506.047 750.751 505.6 750.484 505.36C750.217 505.12 749.844 505 749.364 505L747.024 505.98V514H744.424V502.58H746.364L746.964 503.94L750.164 502.46C751.057 502.46 751.831 502.793 752.484 503.46C753.151 504.113 753.484 505.073 753.484 506.34V514Z" fill="black"/>
<path d="M105.503 500C106.33 500.813 106.743 502.013 106.743 503.6C106.743 505.187 106.33 506.393 105.503 507.22C104.69 508.033 103.537 508.44 102.043 508.44H99.3033V513H96.5233V498.76H102.043C103.537 498.76 104.69 499.173 105.503 500ZM103.963 503.6C103.963 502.027 103.277 501.24 101.903 501.24H99.3033V505.94H101.903C102.57 505.94 103.077 505.76 103.423 505.4C103.783 505.04 103.963 504.44 103.963 503.6ZM111.382 513L108.782 513.02V497.96H111.382V513ZM122.035 513H120.295L119.495 511.62L116.715 513.12C115.168 513.12 114.128 512.56 113.595 511.44C113.328 510.893 113.142 510.307 113.035 509.68C112.942 509.04 112.895 508.38 112.895 507.7C112.895 507.007 112.902 506.5 112.915 506.18C112.928 505.847 112.962 505.467 113.015 505.04C113.068 504.6 113.142 504.233 113.235 503.94C113.342 503.647 113.488 503.347 113.675 503.04C113.862 502.72 114.088 502.467 114.355 502.28C114.955 501.867 115.735 501.66 116.695 501.66H119.435L122.035 501.5V513ZM119.435 509.36V504H117.455C116.722 504 116.208 504.28 115.915 504.84C115.635 505.4 115.495 506.24 115.495 507.36C115.495 508.467 115.628 509.247 115.895 509.7C116.175 510.153 116.695 510.38 117.455 510.38L119.435 509.36ZM130.698 508.82L133.058 508.8C133.045 508.907 133.032 509.1 133.018 509.38C133.005 509.66 132.992 509.853 132.978 509.96C132.978 510.053 132.965 510.207 132.938 510.42C132.912 510.633 132.878 510.793 132.838 510.9C132.812 510.993 132.772 511.12 132.718 511.28C132.478 511.973 131.825 512.52 130.758 512.92C130.078 513.16 129.365 513.28 128.618 513.28C127.885 513.28 127.218 513.16 126.618 512.92C126.018 512.68 125.545 512.373 125.198 512C124.412 511.173 124.018 509.627 124.018 507.36C124.018 505.08 124.412 503.527 125.198 502.7C125.545 502.327 126.018 502.02 126.618 501.78C127.218 501.54 127.885 501.42 128.618 501.42C130.058 501.42 131.152 501.78 131.898 502.5C132.645 503.22 133.018 504.22 133.018 505.5H130.658C130.658 504.913 130.512 504.48 130.218 504.2C129.925 503.907 129.378 503.76 128.578 503.76C127.792 503.76 127.265 504.007 126.998 504.5C126.745 504.993 126.618 505.733 126.618 506.72V507.76C126.618 509.347 126.925 510.32 127.538 510.68C127.818 510.853 128.185 510.94 128.638 510.94C129.092 510.94 129.458 510.9 129.738 510.82C130.032 510.727 130.238 510.573 130.358 510.36C130.492 510.147 130.578 509.94 130.618 509.74C130.658 509.527 130.685 509.22 130.698 508.82ZM143.79 507.9H137.13C137.13 508.94 137.29 509.7 137.61 510.18C137.943 510.66 138.603 510.9 139.59 510.9C140.23 510.9 140.703 510.7 141.01 510.3C141.316 509.887 141.47 509.493 141.47 509.12H143.81C143.81 510.547 143.423 511.593 142.65 512.26C141.89 512.927 140.876 513.26 139.61 513.26C138.356 513.26 137.383 513.08 136.69 512.72C135.263 511.987 134.55 510.04 134.55 506.88C134.55 505 134.956 503.627 135.77 502.76C136.583 501.88 137.823 501.44 139.49 501.44C142.383 501.44 143.83 503.047 143.83 506.26C143.83 506.607 143.816 507.153 143.79 507.9ZM137.19 506.12H141.47C141.47 505.24 141.303 504.6 140.97 504.2C140.636 503.8 140.123 503.6 139.43 503.6C138.75 503.6 138.203 503.807 137.79 504.22C137.39 504.62 137.19 505.253 137.19 506.12ZM159.135 513H157.395L156.595 511.62L153.815 513.12C152.268 513.12 151.228 512.56 150.695 511.44C150.428 510.893 150.242 510.307 150.135 509.68C150.042 509.04 149.995 508.38 149.995 507.7C149.995 507.007 150.002 506.5 150.015 506.18C150.028 505.847 150.062 505.467 150.115 505.04C150.168 504.6 150.242 504.233 150.335 503.94C150.442 503.647 150.588 503.347 150.775 503.04C150.962 502.72 151.188 502.467 151.455 502.28C152.055 501.867 152.835 501.66 153.795 501.66H156.535V497.96H159.135V513ZM156.535 509.36V504H154.555C153.822 504 153.308 504.28 153.015 504.84C152.735 505.4 152.595 506.24 152.595 507.36C152.595 508.467 152.728 509.247 152.995 509.7C153.275 510.153 153.795 510.38 154.555 510.38L156.535 509.36ZM170.606 507.9H163.946C163.946 508.94 164.106 509.7 164.426 510.18C164.759 510.66 165.419 510.9 166.406 510.9C167.046 510.9 167.519 510.7 167.826 510.3C168.133 509.887 168.286 509.493 168.286 509.12H170.626C170.626 510.547 170.239 511.593 169.466 512.26C168.706 512.927 167.693 513.26 166.426 513.26C165.173 513.26 164.199 513.08 163.506 512.72C162.079 511.987 161.366 510.04 161.366 506.88C161.366 505 161.773 503.627 162.586 502.76C163.399 501.88 164.639 501.44 166.306 501.44C169.199 501.44 170.646 503.047 170.646 506.26C170.646 506.607 170.633 507.153 170.606 507.9ZM164.006 506.12H168.286C168.286 505.24 168.119 504.6 167.786 504.2C167.453 503.8 166.939 503.6 166.246 503.6C165.566 503.6 165.019 503.807 164.606 504.22C164.206 504.62 164.006 505.253 164.006 506.12ZM180.843 509.84V510.14C180.763 511.14 180.336 511.893 179.563 512.4C178.803 512.907 177.85 513.16 176.703 513.16C175.01 513.16 173.823 512.853 173.143 512.24C172.516 511.68 172.203 510.853 172.203 509.76V509.52H174.563C174.563 510.133 174.723 510.553 175.043 510.78C175.363 511.007 175.916 511.12 176.703 511.12C177.77 511.12 178.303 510.733 178.303 509.96C178.303 509.32 178.116 508.893 177.743 508.68C177.57 508.573 177.35 508.493 177.083 508.44L175.063 508.1C173.303 507.82 172.423 506.72 172.423 504.8C172.423 503.733 172.81 502.907 173.583 502.32C174.37 501.72 175.363 501.42 176.563 501.42C179.296 501.42 180.663 502.6 180.663 504.96V505.22H178.403C178.376 504.593 178.21 504.167 177.903 503.94C177.596 503.713 177.163 503.6 176.603 503.6C176.056 503.6 175.643 503.713 175.363 503.94C175.083 504.153 174.943 504.393 174.943 504.66C174.943 505.42 175.25 505.853 175.863 505.96L178.283 506.4C179.99 506.72 180.843 507.867 180.843 509.84ZM202.391 513H199.791V505.9C199.791 505.193 199.704 504.7 199.531 504.42C199.371 504.14 199.084 504 198.671 504L196.331 504.98V513H193.731V505.9C193.731 504.633 193.291 504 192.411 504L190.271 504.98V513H187.671V501.58H189.611L190.211 502.94L193.211 501.46C194.251 501.46 195.038 501.967 195.571 502.98L199.291 501.46C200.331 501.46 201.104 501.813 201.611 502.52C202.131 503.213 202.391 504.153 202.391 505.34V513ZM213.05 513H211.31L210.51 511.62L207.73 513.12C206.184 513.12 205.144 512.56 204.61 511.44C204.344 510.893 204.157 510.307 204.05 509.68C203.957 509.04 203.91 508.38 203.91 507.7C203.91 507.007 203.917 506.5 203.93 506.18C203.944 505.847 203.977 505.467 204.03 505.04C204.084 504.6 204.157 504.233 204.25 503.94C204.357 503.647 204.504 503.347 204.69 503.04C204.877 502.72 205.104 502.467 205.37 502.28C205.97 501.867 206.75 501.66 207.71 501.66H210.45L213.05 501.5V513ZM210.45 509.36V504H208.47C207.737 504 207.224 504.28 206.93 504.84C206.65 505.4 206.51 506.24 206.51 507.36C206.51 508.467 206.644 509.247 206.91 509.7C207.19 510.153 207.71 510.38 208.47 510.38L210.45 509.36ZM221.934 501.62L221.214 504.18C221.014 504.1 220.787 504.06 220.534 504.06C219.867 504.06 219.047 504.347 218.074 504.92V513H215.474V501.58H217.414L218.014 502.58L220.774 501.44C220.907 501.427 221.087 501.42 221.314 501.42C221.541 501.42 221.747 501.487 221.934 501.62ZM228.547 513H226.927C225.94 513 225.187 512.707 224.667 512.12C224.16 511.533 223.907 510.833 223.907 510.02V504.02H222.807V502.04H223.907V499.8H226.507V502.04H228.347V504.02H226.507V509.86C226.507 510.487 226.807 510.8 227.407 510.8H228.547V513ZM239.038 501.58L234.698 514.28C234.498 514.853 234.238 515.3 233.918 515.62C233.385 516.153 232.638 516.42 231.678 516.42H230.458V514.08H231.258C231.632 514.08 231.905 514.013 232.078 513.88C232.265 513.76 232.425 513.513 232.558 513.14L232.758 512.58L229.318 501.58H232.058L234.098 509.52L236.298 501.58H239.038ZM246.641 501.62L245.921 504.18C245.721 504.1 245.494 504.06 245.241 504.06C244.574 504.06 243.754 504.347 242.781 504.92V513H240.181V501.58H242.121L242.721 502.58L245.481 501.44C245.614 501.427 245.794 501.42 246.021 501.42C246.248 501.42 246.454 501.487 246.641 501.62ZM256.934 507.9H250.274C250.274 508.94 250.434 509.7 250.754 510.18C251.087 510.66 251.747 510.9 252.734 510.9C253.374 510.9 253.847 510.7 254.154 510.3C254.461 509.887 254.614 509.493 254.614 509.12H256.954C256.954 510.547 256.567 511.593 255.794 512.26C255.034 512.927 254.021 513.26 252.754 513.26C251.501 513.26 250.527 513.08 249.834 512.72C248.407 511.987 247.694 510.04 247.694 506.88C247.694 505 248.101 503.627 248.914 502.76C249.727 501.88 250.967 501.44 252.634 501.44C255.527 501.44 256.974 503.047 256.974 506.26C256.974 506.607 256.961 507.153 256.934 507.9ZM250.334 506.12H254.614C254.614 505.24 254.447 504.6 254.114 504.2C253.781 503.8 253.267 503.6 252.574 503.6C251.894 503.6 251.347 503.807 250.934 504.22C250.534 504.62 250.334 505.253 250.334 506.12ZM267.171 509.84V510.14C267.091 511.14 266.664 511.893 265.891 512.4C265.131 512.907 264.178 513.16 263.031 513.16C261.338 513.16 260.151 512.853 259.471 512.24C258.844 511.68 258.531 510.853 258.531 509.76V509.52H260.891C260.891 510.133 261.051 510.553 261.371 510.78C261.691 511.007 262.244 511.12 263.031 511.12C264.098 511.12 264.631 510.733 264.631 509.96C264.631 509.32 264.444 508.893 264.071 508.68C263.898 508.573 263.678 508.493 263.411 508.44L261.391 508.1C259.631 507.82 258.751 506.72 258.751 504.8C258.751 503.733 259.138 502.907 259.911 502.32C260.698 501.72 261.691 501.42 262.891 501.42C265.624 501.42 266.991 502.6 266.991 504.96V505.22H264.731C264.704 504.593 264.538 504.167 264.231 503.94C263.924 503.713 263.491 503.6 262.931 503.6C262.384 503.6 261.971 503.713 261.691 503.94C261.411 504.153 261.271 504.393 261.271 504.66C261.271 505.42 261.578 505.853 262.191 505.96L264.611 506.4C266.318 506.72 267.171 507.867 267.171 509.84ZM281.839 509.84V510.14C281.759 511.14 281.332 511.893 280.559 512.4C279.799 512.907 278.846 513.16 277.699 513.16C276.006 513.16 274.819 512.853 274.139 512.24C273.512 511.68 273.199 510.853 273.199 509.76V509.52H275.559C275.559 510.133 275.719 510.553 276.039 510.78C276.359 511.007 276.912 511.12 277.699 511.12C278.766 511.12 279.299 510.733 279.299 509.96C279.299 509.32 279.112 508.893 278.739 508.68C278.566 508.573 278.346 508.493 278.079 508.44L276.059 508.1C274.299 507.82 273.419 506.72 273.419 504.8C273.419 503.733 273.806 502.907 274.579 502.32C275.366 501.72 276.359 501.42 277.559 501.42C280.292 501.42 281.659 502.6 281.659 504.96V505.22H279.399C279.372 504.593 279.206 504.167 278.899 503.94C278.592 503.713 278.159 503.6 277.599 503.6C277.052 503.6 276.639 503.713 276.359 503.94C276.079 504.153 275.939 504.393 275.939 504.66C275.939 505.42 276.246 505.853 276.859 505.96L279.279 506.4C280.986 506.72 281.839 507.867 281.839 509.84ZM288.899 513H287.279C286.292 513 285.539 512.707 285.019 512.12C284.512 511.533 284.259 510.833 284.259 510.02V504.02H283.159V502.04H284.259V499.8H286.859V502.04H288.699V504.02H286.859V509.86C286.859 510.487 287.159 510.8 287.759 510.8H288.899V513ZM298.91 513H297.17L296.37 511.62L293.59 513.12C292.043 513.12 291.003 512.56 290.47 511.44C290.203 510.893 290.017 510.307 289.91 509.68C289.817 509.04 289.77 508.38 289.77 507.7C289.77 507.007 289.777 506.5 289.79 506.18C289.803 505.847 289.837 505.467 289.89 505.04C289.943 504.6 290.017 504.233 290.11 503.94C290.217 503.647 290.363 503.347 290.55 503.04C290.737 502.72 290.963 502.467 291.23 502.28C291.83 501.867 292.61 501.66 293.57 501.66H296.31L298.91 501.5V513ZM296.31 509.36V504H294.33C293.597 504 293.083 504.28 292.79 504.84C292.51 505.4 292.37 506.24 292.37 507.36C292.37 508.467 292.503 509.247 292.77 509.7C293.05 510.153 293.57 510.38 294.33 510.38L296.31 509.36ZM306.613 513H304.993C304.007 513 303.253 512.707 302.733 512.12C302.227 511.533 301.973 510.833 301.973 510.02V504.02H300.873V502.04H301.973V499.8H304.573V502.04H306.413V504.02H304.573V509.86C304.573 510.487 304.873 510.8 305.473 510.8H306.613V513ZM310.085 497.22C310.711 497.22 311.118 497.32 311.305 497.52C311.491 497.707 311.585 498.113 311.585 498.74C311.585 499.353 311.485 499.76 311.285 499.96C311.098 500.147 310.691 500.24 310.065 500.24C309.451 500.24 309.045 500.14 308.845 499.94C308.658 499.74 308.565 499.333 308.565 498.72C308.565 498.107 308.658 497.707 308.845 497.52C309.045 497.32 309.458 497.22 310.085 497.22ZM311.365 513H308.765V502H311.365V513ZM320.453 507.84V506.8C320.453 505.813 320.306 505.06 320.013 504.54C319.733 504.02 319.139 503.76 318.233 503.76C316.766 503.76 316.033 504.747 316.033 506.72V507.76C316.033 509.88 316.766 510.94 318.233 510.94C319.179 510.94 319.799 510.587 320.093 509.88C320.333 509.32 320.453 508.64 320.453 507.84ZM323.053 507.24C323.053 509.707 322.586 511.36 321.653 512.2C320.866 512.92 319.726 513.28 318.233 513.28C316.326 513.28 315.039 512.72 314.373 511.6C313.746 510.573 313.433 509.12 313.433 507.24C313.433 505.48 313.746 504.1 314.373 503.1C315.066 501.98 316.326 501.42 318.153 501.42C319.993 501.42 321.266 501.913 321.973 502.9C322.693 503.873 323.053 505.32 323.053 507.24ZM333.992 513H331.392V505.7C331.392 505.047 331.259 504.6 330.992 504.36C330.725 504.12 330.352 504 329.872 504L327.532 504.98V513H324.932V501.58H326.872L327.472 502.94L330.672 501.46C331.565 501.46 332.339 501.793 332.992 502.46C333.659 503.113 333.992 504.073 333.992 505.34V513Z" fill="black"/>
<path d="M128.189 452.76L123.909 461.16V467H121.149V461.16L116.869 452.76H119.889L122.549 458.5L125.169 452.76H128.189ZM135.894 461.84V460.8C135.894 459.813 135.747 459.06 135.454 458.54C135.174 458.02 134.581 457.76 133.674 457.76C132.207 457.76 131.474 458.747 131.474 460.72V461.76C131.474 463.88 132.207 464.94 133.674 464.94C134.621 464.94 135.241 464.587 135.534 463.88C135.774 463.32 135.894 462.64 135.894 461.84ZM138.494 461.24C138.494 463.707 138.027 465.36 137.094 466.2C136.307 466.92 135.167 467.28 133.674 467.28C131.767 467.28 130.481 466.72 129.814 465.6C129.187 464.573 128.874 463.12 128.874 461.24C128.874 459.48 129.187 458.1 129.814 457.1C130.507 455.98 131.767 455.42 133.594 455.42C135.434 455.42 136.707 455.913 137.414 456.9C138.134 457.873 138.494 459.32 138.494 461.24ZM149.113 467H147.173L146.573 465.64L143.373 467.12C142.48 467.12 141.7 466.793 141.033 466.14C140.38 465.473 140.053 464.507 140.053 463.24V455.58H142.653V462.68C142.653 463.947 143.16 464.58 144.173 464.58L146.513 463.32V455.58H149.113V467ZM158.098 455.62L157.378 458.18C157.178 458.1 156.951 458.06 156.698 458.06C156.031 458.06 155.211 458.347 154.238 458.92V467H151.638V455.58H153.578L154.178 456.58L156.938 455.44C157.071 455.427 157.251 455.42 157.478 455.42C157.705 455.42 157.911 455.487 158.098 455.62ZM169.32 458H167.2V467H164.6V458H163.52V456.02H164.6V454.92C164.6 454.107 164.86 453.407 165.38 452.82C165.9 452.233 166.653 451.94 167.64 451.94H169.32V454.14H168.1C167.5 454.14 167.2 454.453 167.2 455.08V456.02H169.32V458ZM172.635 451.22C173.262 451.22 173.669 451.32 173.855 451.52C174.042 451.707 174.135 452.113 174.135 452.74C174.135 453.353 174.035 453.76 173.835 453.96C173.649 454.147 173.242 454.24 172.615 454.24C172.002 454.24 171.595 454.14 171.395 453.94C171.209 453.74 171.115 453.333 171.115 452.72C171.115 452.107 171.209 451.707 171.395 451.52C171.595 451.32 172.009 451.22 172.635 451.22ZM173.915 467H171.315V456H173.915V467ZM185.683 467H183.083V459.7C183.083 459.047 182.95 458.6 182.683 458.36C182.417 458.12 182.043 458 181.563 458L179.223 458.98V467H176.623V455.58H178.563L179.163 456.94L182.363 455.46C183.257 455.46 184.03 455.793 184.683 456.46C185.35 457.113 185.683 458.073 185.683 459.34V467ZM196.148 467H194.408L193.608 465.62L190.828 467.12C189.281 467.12 188.241 466.56 187.708 465.44C187.441 464.893 187.255 464.307 187.148 463.68C187.055 463.04 187.008 462.38 187.008 461.7C187.008 461.007 187.015 460.5 187.028 460.18C187.041 459.847 187.075 459.467 187.128 459.04C187.181 458.6 187.255 458.233 187.348 457.94C187.455 457.647 187.601 457.347 187.788 457.04C187.975 456.72 188.201 456.467 188.468 456.28C189.068 455.867 189.848 455.66 190.808 455.66H193.548L196.148 455.5V467ZM193.548 463.36V458H191.568C190.835 458 190.321 458.28 190.028 458.84C189.748 459.4 189.608 460.24 189.608 461.36C189.608 462.467 189.741 463.247 190.008 463.7C190.288 464.153 190.808 464.38 191.568 464.38L193.548 463.36ZM201.472 467L198.872 467.02V451.96H201.472V467ZM217.213 467H215.473L214.673 465.62L211.893 467.12C210.346 467.12 209.306 466.56 208.773 465.44C208.506 464.893 208.32 464.307 208.213 463.68C208.12 463.04 208.073 462.38 208.073 461.7C208.073 461.007 208.08 460.5 208.093 460.18C208.106 459.847 208.14 459.467 208.193 459.04C208.246 458.6 208.32 458.233 208.413 457.94C208.52 457.647 208.666 457.347 208.853 457.04C209.04 456.72 209.266 456.467 209.533 456.28C210.133 455.867 210.913 455.66 211.873 455.66H214.613V451.96H217.213V467ZM214.613 463.36V458H212.633C211.9 458 211.386 458.28 211.093 458.84C210.813 459.4 210.673 460.24 210.673 461.36C210.673 462.467 210.806 463.247 211.073 463.7C211.353 464.153 211.873 464.38 212.633 464.38L214.613 463.36ZM228.684 461.9H222.024C222.024 462.94 222.184 463.7 222.504 464.18C222.837 464.66 223.497 464.9 224.484 464.9C225.124 464.9 225.597 464.7 225.904 464.3C226.211 463.887 226.364 463.493 226.364 463.12H228.704C228.704 464.547 228.317 465.593 227.544 466.26C226.784 466.927 225.771 467.26 224.504 467.26C223.251 467.26 222.277 467.08 221.584 466.72C220.157 465.987 219.444 464.04 219.444 460.88C219.444 459 219.851 457.627 220.664 456.76C221.477 455.88 222.717 455.44 224.384 455.44C227.277 455.44 228.724 457.047 228.724 460.26C228.724 460.607 228.711 461.153 228.684 461.9ZM222.084 460.12H226.364C226.364 459.24 226.197 458.6 225.864 458.2C225.531 457.8 225.017 457.6 224.324 457.6C223.644 457.6 223.097 457.807 222.684 458.22C222.284 458.62 222.084 459.253 222.084 460.12ZM238.921 463.84V464.14C238.841 465.14 238.414 465.893 237.641 466.4C236.881 466.907 235.928 467.16 234.781 467.16C233.088 467.16 231.901 466.853 231.221 466.24C230.594 465.68 230.281 464.853 230.281 463.76V463.52H232.641C232.641 464.133 232.801 464.553 233.121 464.78C233.441 465.007 233.994 465.12 234.781 465.12C235.848 465.12 236.381 464.733 236.381 463.96C236.381 463.32 236.194 462.893 235.821 462.68C235.648 462.573 235.428 462.493 235.161 462.44L233.141 462.1C231.381 461.82 230.501 460.72 230.501 458.8C230.501 457.733 230.888 456.907 231.661 456.32C232.448 455.72 233.441 455.42 234.641 455.42C237.374 455.42 238.741 456.6 238.741 458.96V459.22H236.481C236.454 458.593 236.288 458.167 235.981 457.94C235.674 457.713 235.241 457.6 234.681 457.6C234.134 457.6 233.721 457.713 233.441 457.94C233.161 458.153 233.021 458.393 233.021 458.66C233.021 459.42 233.328 459.853 233.941 459.96L236.361 460.4C238.068 460.72 238.921 461.867 238.921 463.84ZM245.981 467H244.361C243.374 467 242.621 466.707 242.101 466.12C241.594 465.533 241.341 464.833 241.341 464.02V458.02H240.241V456.04H241.341V453.8H243.941V456.04H245.781V458.02H243.941V463.86C243.941 464.487 244.241 464.8 244.841 464.8H245.981V467ZM249.452 451.22C250.079 451.22 250.485 451.32 250.672 451.52C250.859 451.707 250.952 452.113 250.952 452.74C250.952 453.353 250.852 453.76 250.652 453.96C250.465 454.147 250.059 454.24 249.432 454.24C248.819 454.24 248.412 454.14 248.212 453.94C248.025 453.74 247.932 453.333 247.932 452.72C247.932 452.107 248.025 451.707 248.212 451.52C248.412 451.32 248.825 451.22 249.452 451.22ZM250.732 467H248.132V456H250.732V467ZM262.5 467H259.9V459.7C259.9 459.047 259.766 458.6 259.5 458.36C259.233 458.12 258.86 458 258.38 458L256.04 458.98V467H253.44V455.58H255.38L255.98 456.94L259.18 455.46C260.073 455.46 260.846 455.793 261.5 456.46C262.166 457.113 262.5 458.073 262.5 459.34V467ZM272.965 467H271.225L270.425 465.62L267.645 467.12C266.098 467.12 265.058 466.56 264.525 465.44C264.258 464.893 264.071 464.307 263.965 463.68C263.871 463.04 263.825 462.38 263.825 461.7C263.825 461.007 263.831 460.5 263.845 460.18C263.858 459.847 263.891 459.467 263.945 459.04C263.998 458.6 264.071 458.233 264.165 457.94C264.271 457.647 264.418 457.347 264.605 457.04C264.791 456.72 265.018 456.467 265.285 456.28C265.885 455.867 266.665 455.66 267.625 455.66H270.365L272.965 455.5V467ZM270.365 463.36V458H268.385C267.651 458 267.138 458.28 266.845 458.84C266.565 459.4 266.425 460.24 266.425 461.36C266.425 462.467 266.558 463.247 266.825 463.7C267.105 464.153 267.625 464.38 268.385 464.38L270.365 463.36ZM280.668 467H279.048C278.061 467 277.308 466.707 276.788 466.12C276.281 465.533 276.028 464.833 276.028 464.02V458.02H274.928V456.04H276.028V453.8H278.628V456.04H280.468V458.02H278.628V463.86C278.628 464.487 278.928 464.8 279.528 464.8H280.668V467ZM284.139 451.22C284.766 451.22 285.173 451.32 285.359 451.52C285.546 451.707 285.639 452.113 285.639 452.74C285.639 453.353 285.539 453.76 285.339 453.96C285.153 454.147 284.746 454.24 284.119 454.24C283.506 454.24 283.099 454.14 282.899 453.94C282.713 453.74 282.619 453.333 282.619 452.72C282.619 452.107 282.713 451.707 282.899 451.52C283.099 451.32 283.513 451.22 284.139 451.22ZM285.419 467H282.819V456H285.419V467ZM294.507 461.84V460.8C294.507 459.813 294.361 459.06 294.067 458.54C293.787 458.02 293.194 457.76 292.287 457.76C290.821 457.76 290.087 458.747 290.087 460.72V461.76C290.087 463.88 290.821 464.94 292.287 464.94C293.234 464.94 293.854 464.587 294.147 463.88C294.387 463.32 294.507 462.64 294.507 461.84ZM297.107 461.24C297.107 463.707 296.641 465.36 295.707 466.2C294.921 466.92 293.781 467.28 292.287 467.28C290.381 467.28 289.094 466.72 288.427 465.6C287.801 464.573 287.487 463.12 287.487 461.24C287.487 459.48 287.801 458.1 288.427 457.1C289.121 455.98 290.381 455.42 292.207 455.42C294.047 455.42 295.321 455.913 296.027 456.9C296.747 457.873 297.107 459.32 297.107 461.24ZM308.047 467H305.447V459.7C305.447 459.047 305.313 458.6 305.047 458.36C304.78 458.12 304.407 458 303.927 458L301.587 458.98V467H298.987V455.58H300.927L301.527 456.94L304.727 455.46C305.62 455.46 306.393 455.793 307.047 456.46C307.713 457.113 308.047 458.073 308.047 459.34V467Z" fill="white"/>
<path d="M660.754 474.5L658.194 479.9C657.821 480.62 657.354 480.98 656.794 480.98C656.248 480.98 655.788 480.6 655.414 479.84L652.814 474.5V483H650.034V468.76H652.774L656.794 476.98L660.794 468.76H663.534V483H660.754V474.5ZM674.805 477.9H668.145C668.145 478.94 668.305 479.7 668.625 480.18C668.958 480.66 669.618 480.9 670.605 480.9C671.245 480.9 671.718 480.7 672.025 480.3C672.332 479.887 672.485 479.493 672.485 479.12H674.825C674.825 480.547 674.438 481.593 673.665 482.26C672.905 482.927 671.892 483.26 670.625 483.26C669.372 483.26 668.398 483.08 667.705 482.72C666.278 481.987 665.565 480.04 665.565 476.88C665.565 475 665.972 473.627 666.785 472.76C667.598 471.88 668.838 471.44 670.505 471.44C673.398 471.44 674.845 473.047 674.845 476.26C674.845 476.607 674.832 477.153 674.805 477.9ZM668.205 476.12H672.485C672.485 475.24 672.318 474.6 671.985 474.2C671.652 473.8 671.138 473.6 670.445 473.6C669.765 473.6 669.218 473.807 668.805 474.22C668.405 474.62 668.205 475.253 668.205 476.12ZM682.082 483H680.462C679.476 483 678.722 482.707 678.202 482.12C677.696 481.533 677.442 480.833 677.442 480.02V474.02H676.342V472.04H677.442V469.8H680.042V472.04H681.882V474.02H680.042V479.86C680.042 480.487 680.342 480.8 680.942 480.8H682.082V483ZM690.293 471.62L689.573 474.18C689.373 474.1 689.147 474.06 688.893 474.06C688.227 474.06 687.407 474.347 686.433 474.92V483H683.833V471.58H685.773L686.373 472.58L689.133 471.44C689.267 471.427 689.447 471.42 689.673 471.42C689.9 471.42 690.107 471.487 690.293 471.62ZM698.206 477.84V476.8C698.206 475.813 698.06 475.06 697.766 474.54C697.486 474.02 696.893 473.76 695.986 473.76C694.52 473.76 693.786 474.747 693.786 476.72V477.76C693.786 479.88 694.52 480.94 695.986 480.94C696.933 480.94 697.553 480.587 697.846 479.88C698.086 479.32 698.206 478.64 698.206 477.84ZM700.806 477.24C700.806 479.707 700.34 481.36 699.406 482.2C698.62 482.92 697.48 483.28 695.986 483.28C694.08 483.28 692.793 482.72 692.126 481.6C691.5 480.573 691.186 479.12 691.186 477.24C691.186 475.48 691.5 474.1 692.126 473.1C692.82 471.98 694.08 471.42 695.906 471.42C697.746 471.42 699.02 471.913 699.726 472.9C700.446 473.873 700.806 475.32 700.806 477.24Z" fill="white"/>
<path d="M759.656 162.9C759.656 164.22 759.296 165.233 758.576 165.94C757.869 166.647 756.876 167 755.596 167H753.676C752.102 167 750.982 166.727 750.316 166.18C749.662 165.633 749.336 164.687 749.336 163.34V152.76H755.356C756.716 152.76 757.736 153.1 758.416 153.78C759.109 154.46 759.456 155.42 759.456 156.66C759.456 157.38 759.269 157.993 758.896 158.5C758.536 159.007 758.136 159.367 757.696 159.58C759.002 160.193 759.656 161.3 759.656 162.9ZM755.136 158.32C756.162 158.32 756.676 157.807 756.676 156.78C756.676 155.753 756.162 155.24 755.136 155.24H752.116V158.32H755.136ZM756.876 162.76C756.876 162.12 756.762 161.64 756.536 161.32C756.309 160.987 755.902 160.82 755.316 160.82H752.116V163.06C752.116 163.607 752.249 163.987 752.516 164.2C752.796 164.413 753.249 164.52 753.876 164.52H755.316C756.356 164.52 756.876 163.933 756.876 162.76ZM770.84 167H768.9L768.3 165.64L765.1 167.12C764.207 167.12 763.427 166.793 762.76 166.14C762.107 165.473 761.78 164.507 761.78 163.24V155.58H764.38V162.68C764.38 163.947 764.887 164.58 765.9 164.58L768.24 163.32V155.58H770.84V167ZM781.605 163.84V164.14C781.525 165.14 781.098 165.893 780.325 166.4C779.565 166.907 778.611 167.16 777.465 167.16C775.771 167.16 774.585 166.853 773.905 166.24C773.278 165.68 772.965 164.853 772.965 163.76V163.52H775.325C775.325 164.133 775.485 164.553 775.805 164.78C776.125 165.007 776.678 165.12 777.465 165.12C778.531 165.12 779.065 164.733 779.065 163.96C779.065 163.32 778.878 162.893 778.505 162.68C778.331 162.573 778.111 162.493 777.845 162.44L775.825 162.1C774.065 161.82 773.185 160.72 773.185 158.8C773.185 157.733 773.571 156.907 774.345 156.32C775.131 155.72 776.125 155.42 777.325 155.42C780.058 155.42 781.425 156.6 781.425 158.96V159.22H779.165C779.138 158.593 778.971 158.167 778.665 157.94C778.358 157.713 777.925 157.6 777.365 157.6C776.818 157.6 776.405 157.713 776.125 157.94C775.845 158.153 775.705 158.393 775.705 158.66C775.705 159.42 776.011 159.853 776.625 159.96L779.045 160.4C780.751 160.72 781.605 161.867 781.605 163.84Z" fill="white"/>
<rect x="212" y="1" width="287" height="60" fill="#4D869C"/>
<path d="M248.012 12.96L238.382 31.86V45H232.172V31.86L222.542 12.96H229.337L235.322 25.875L241.217 12.96H248.012ZM265.349 33.39V31.05C265.349 28.83 265.019 27.135 264.359 25.965C263.729 24.795 262.394 24.21 260.354 24.21C257.054 24.21 255.404 26.43 255.404 30.87V33.21C255.404 37.98 257.054 40.365 260.354 40.365C262.484 40.365 263.879 39.57 264.539 37.98C265.079 36.72 265.349 35.19 265.349 33.39ZM271.199 32.04C271.199 37.59 270.149 41.31 268.049 43.2C266.279 44.82 263.714 45.63 260.354 45.63C256.064 45.63 253.169 44.37 251.669 41.85C250.259 39.54 249.554 36.27 249.554 32.04C249.554 28.08 250.259 24.975 251.669 22.725C253.229 20.205 256.064 18.945 260.174 18.945C264.314 18.945 267.179 20.055 268.769 22.275C270.389 24.465 271.199 27.72 271.199 32.04ZM295.092 45H290.727L289.377 41.94L282.177 45.27C280.167 45.27 278.412 44.535 276.912 43.065C275.442 41.565 274.707 39.39 274.707 36.54V19.305H280.557V35.28C280.557 38.13 281.697 39.555 283.977 39.555L289.242 36.72V19.305H295.092V45ZM329.817 45H325.902L324.102 41.895L317.847 45.27C314.367 45.27 312.027 44.01 310.827 41.49C310.227 40.26 309.807 38.94 309.567 37.53C309.357 36.09 309.252 34.605 309.252 33.075C309.252 31.515 309.267 30.375 309.297 29.655C309.327 28.905 309.402 28.05 309.522 27.09C309.642 26.1 309.807 25.275 310.017 24.615C310.257 23.955 310.587 23.28 311.007 22.59C311.427 21.87 311.937 21.3 312.537 20.88C313.887 19.95 315.642 19.485 317.802 19.485H323.967L329.817 19.125V45ZM323.967 36.81V24.75H319.512C317.862 24.75 316.707 25.38 316.047 26.64C315.417 27.9 315.102 29.79 315.102 32.31C315.102 34.8 315.402 36.555 316.002 37.575C316.632 38.595 317.802 39.105 319.512 39.105L323.967 36.81ZM349.805 19.395L348.185 25.155C347.735 24.975 347.225 24.885 346.655 24.885C345.155 24.885 343.31 25.53 341.12 26.82V45H335.27V19.305H339.635L340.985 21.555L347.195 18.99C347.495 18.96 347.9 18.945 348.41 18.945C348.92 18.945 349.385 19.095 349.805 19.395ZM372.964 33.525H357.979C357.979 35.865 358.339 37.575 359.059 38.655C359.809 39.735 361.294 40.275 363.514 40.275C364.954 40.275 366.019 39.825 366.709 38.925C367.399 37.995 367.744 37.11 367.744 36.27H373.009C373.009 39.48 372.139 41.835 370.399 43.335C368.689 44.835 366.409 45.585 363.559 45.585C360.739 45.585 358.549 45.18 356.989 44.37C353.779 42.72 352.174 38.34 352.174 31.23C352.174 27 353.089 23.91 354.919 21.96C356.749 19.98 359.539 18.99 363.289 18.99C369.799 18.99 373.054 22.605 373.054 29.835C373.054 30.615 373.024 31.845 372.964 33.525ZM358.114 29.52H367.744C367.744 27.54 367.369 26.1 366.619 25.2C365.869 24.3 364.714 23.85 363.154 23.85C361.624 23.85 360.394 24.315 359.464 25.245C358.564 26.145 358.114 27.57 358.114 29.52ZM408.662 45H402.812V28.89C402.812 26.13 401.732 24.75 399.572 24.75L393.992 26.955V45H388.142V11.16H393.992V22.365L401.417 19.035C404.057 19.035 405.917 19.785 406.997 21.285C408.107 22.785 408.662 24.885 408.662 27.585V45ZM433.697 33.525H418.712C418.712 35.865 419.072 37.575 419.792 38.655C420.542 39.735 422.027 40.275 424.247 40.275C425.687 40.275 426.752 39.825 427.442 38.925C428.132 37.995 428.477 37.11 428.477 36.27H433.742C433.742 39.48 432.872 41.835 431.132 43.335C429.422 44.835 427.142 45.585 424.292 45.585C421.472 45.585 419.282 45.18 417.722 44.37C414.512 42.72 412.907 38.34 412.907 31.23C412.907 27 413.822 23.91 415.652 21.96C417.482 19.98 420.272 18.99 424.022 18.99C430.532 18.99 433.787 22.605 433.787 29.835C433.787 30.615 433.757 31.845 433.697 33.525ZM418.847 29.52H428.477C428.477 27.54 428.102 26.1 427.352 25.2C426.602 24.3 425.447 23.85 423.887 23.85C422.357 23.85 421.127 24.315 420.197 25.245C419.297 26.145 418.847 27.57 418.847 29.52ZM452.725 19.395L451.105 25.155C450.655 24.975 450.145 24.885 449.575 24.885C448.075 24.885 446.23 25.53 444.04 26.82V45H438.19V19.305H442.555L443.905 21.555L450.115 18.99C450.415 18.96 450.82 18.945 451.33 18.945C451.84 18.945 452.305 19.095 452.725 19.395ZM475.884 33.525H460.899C460.899 35.865 461.259 37.575 461.979 38.655C462.729 39.735 464.214 40.275 466.434 40.275C467.874 40.275 468.939 39.825 469.629 38.925C470.319 37.995 470.664 37.11 470.664 36.27H475.929C475.929 39.48 475.059 41.835 473.319 43.335C471.609 44.835 469.329 45.585 466.479 45.585C463.659 45.585 461.469 45.18 459.909 44.37C456.699 42.72 455.094 38.34 455.094 31.23C455.094 27 456.009 23.91 457.839 21.96C459.669 19.98 462.459 18.99 466.209 18.99C472.719 18.99 475.974 22.605 475.974 29.835C475.974 30.615 475.944 31.845 475.884 33.525ZM461.034 29.52H470.664C470.664 27.54 470.289 26.1 469.539 25.2C468.789 24.3 467.634 23.85 466.074 23.85C464.544 23.85 463.314 24.315 462.384 25.245C461.484 26.145 461.034 27.57 461.034 29.52ZM490.278 12.96L488.928 32.4C488.808 33.24 488.508 33.9 488.028 34.38C487.578 34.83 487.068 35.055 486.498 35.055C485.928 35.055 485.418 34.815 484.968 34.335C484.548 33.855 484.338 33.21 484.338 32.4L483.033 12.96H490.278ZM489.648 38.97C490.128 39.42 490.368 40.395 490.368 41.895C490.368 43.395 490.128 44.385 489.648 44.865C489.198 45.345 488.223 45.585 486.723 45.585C485.223 45.585 484.233 45.345 483.753 44.865C483.273 44.385 483.033 43.395 483.033 41.895C483.033 40.395 483.273 39.42 483.753 38.97C484.233 38.49 485.223 38.25 486.723 38.25C488.223 38.25 489.198 38.49 489.648 38.97Z" fill="white"/>
</svg>
