<svg width="1134" height="570" viewBox="0 0 1134 570" fill="none" xmlns="http://www.w3.org/2000/svg">
<rect x="1.5" y="32.5" width="1131" height="536" rx="13.5" fill="#4D869C" stroke="white" stroke-width="3"/>
<path d="M150.395 149.2L145.045 159.7V167H141.595V159.7L136.245 149.2H140.02L143.345 156.375L146.62 149.2H150.395ZM160.027 160.55V159.25C160.027 158.017 159.844 157.075 159.477 156.425C159.127 155.775 158.385 155.45 157.252 155.45C155.419 155.45 154.502 156.683 154.502 159.15V160.45C154.502 163.1 155.419 164.425 157.252 164.425C158.435 164.425 159.21 163.983 159.577 163.1C159.877 162.4 160.027 161.55 160.027 160.55ZM163.277 159.8C163.277 162.883 162.694 164.95 161.527 166C160.544 166.9 159.119 167.35 157.252 167.35C154.869 167.35 153.26 166.65 152.427 165.25C151.644 163.967 151.252 162.15 151.252 159.8C151.252 157.6 151.644 155.875 152.427 154.625C153.294 153.225 154.869 152.525 157.152 152.525C159.452 152.525 161.044 153.142 161.927 154.375C162.827 155.592 163.277 157.4 163.277 159.8ZM176.551 167H174.126L173.376 165.3L169.376 167.15C168.26 167.15 167.285 166.742 166.451 165.925C165.635 165.092 165.226 163.883 165.226 162.3V152.725H168.476V161.6C168.476 163.183 169.11 163.975 170.376 163.975L173.301 162.4V152.725H176.551V167ZM195.843 167H193.668L192.668 165.275L189.193 167.15C187.26 167.15 185.96 166.45 185.293 165.05C184.96 164.367 184.726 163.633 184.593 162.85C184.476 162.05 184.418 161.225 184.418 160.375C184.418 159.508 184.426 158.875 184.443 158.475C184.46 158.058 184.501 157.583 184.568 157.05C184.635 156.5 184.726 156.042 184.843 155.675C184.976 155.308 185.16 154.933 185.393 154.55C185.626 154.15 185.91 153.833 186.243 153.6C186.993 153.083 187.968 152.825 189.168 152.825H192.593L195.843 152.625V167ZM192.593 162.45V155.75H190.118C189.201 155.75 188.56 156.1 188.193 156.8C187.843 157.5 187.668 158.55 187.668 159.95C187.668 161.333 187.835 162.308 188.168 162.875C188.518 163.442 189.168 163.725 190.118 163.725L192.593 162.45ZM206.947 152.775L206.047 155.975C205.797 155.875 205.514 155.825 205.197 155.825C204.364 155.825 203.339 156.183 202.122 156.9V167H198.872V152.725H201.297L202.047 153.975L205.497 152.55C205.664 152.533 205.889 152.525 206.172 152.525C206.456 152.525 206.714 152.608 206.947 152.775ZM219.814 160.625H211.489C211.489 161.925 211.689 162.875 212.089 163.475C212.505 164.075 213.33 164.375 214.564 164.375C215.364 164.375 215.955 164.125 216.339 163.625C216.722 163.108 216.914 162.617 216.914 162.15H219.839C219.839 163.933 219.355 165.242 218.389 166.075C217.439 166.908 216.172 167.325 214.589 167.325C213.022 167.325 211.805 167.1 210.939 166.65C209.155 165.733 208.264 163.3 208.264 159.35C208.264 157 208.772 155.283 209.789 154.2C210.805 153.1 212.355 152.55 214.439 152.55C218.055 152.55 219.864 154.558 219.864 158.575C219.864 159.008 219.847 159.692 219.814 160.625ZM211.564 158.4H216.914C216.914 157.3 216.705 156.5 216.289 156C215.872 155.5 215.23 155.25 214.364 155.25C213.514 155.25 212.83 155.508 212.314 156.025C211.814 156.525 211.564 157.317 211.564 158.4ZM239.645 167H236.395V158.05C236.395 156.517 235.795 155.75 234.595 155.75L231.495 156.975V167H228.245V148.2H231.495V154.425L235.62 152.575C237.087 152.575 238.12 152.992 238.72 153.825C239.337 154.658 239.645 155.825 239.645 157.325V167ZM253.554 160.625H245.229C245.229 161.925 245.429 162.875 245.829 163.475C246.245 164.075 247.07 164.375 248.304 164.375C249.104 164.375 249.695 164.125 250.079 163.625C250.462 163.108 250.654 162.617 250.654 162.15H253.579C253.579 163.933 253.095 165.242 252.129 166.075C251.179 166.908 249.912 167.325 248.329 167.325C246.762 167.325 245.545 167.1 244.679 166.65C242.895 165.733 242.004 163.3 242.004 159.35C242.004 157 242.512 155.283 243.529 154.2C244.545 153.1 246.095 152.55 248.179 152.55C251.795 152.55 253.604 154.558 253.604 158.575C253.604 159.008 253.587 159.692 253.554 160.625ZM245.304 158.4H250.654C250.654 157.3 250.445 156.5 250.029 156C249.612 155.5 248.97 155.25 248.104 155.25C247.254 155.25 246.57 155.508 246.054 156.025C245.554 156.525 245.304 157.317 245.304 158.4ZM264.125 152.775L263.225 155.975C262.975 155.875 262.692 155.825 262.375 155.825C261.542 155.825 260.517 156.183 259.3 156.9V167H256.05V152.725H258.475L259.225 153.975L262.675 152.55C262.842 152.533 263.067 152.525 263.35 152.525C263.633 152.525 263.892 152.608 264.125 152.775ZM276.991 160.625H268.666C268.666 161.925 268.866 162.875 269.266 163.475C269.683 164.075 270.508 164.375 271.741 164.375C272.541 164.375 273.133 164.125 273.516 163.625C273.9 163.108 274.091 162.617 274.091 162.15H277.016C277.016 163.933 276.533 165.242 275.566 166.075C274.616 166.908 273.35 167.325 271.766 167.325C270.2 167.325 268.983 167.1 268.116 166.65C266.333 165.733 265.441 163.3 265.441 159.35C265.441 157 265.95 155.283 266.966 154.2C267.983 153.1 269.533 152.55 271.616 152.55C275.233 152.55 277.041 154.558 277.041 158.575C277.041 159.008 277.025 159.692 276.991 160.625ZM268.741 158.4H274.091C274.091 157.3 273.883 156.5 273.466 156C273.05 155.5 272.408 155.25 271.541 155.25C270.691 155.25 270.008 155.508 269.491 156.025C268.991 156.525 268.741 157.317 268.741 158.4ZM284.988 149.2L284.238 160C284.171 160.467 284.004 160.833 283.738 161.1C283.488 161.35 283.204 161.475 282.888 161.475C282.571 161.475 282.288 161.342 282.038 161.075C281.804 160.808 281.688 160.45 281.688 160L280.963 149.2H284.988ZM284.638 163.65C284.904 163.9 285.038 164.442 285.038 165.275C285.038 166.108 284.904 166.658 284.638 166.925C284.388 167.192 283.846 167.325 283.013 167.325C282.179 167.325 281.629 167.192 281.363 166.925C281.096 166.658 280.963 166.108 280.963 165.275C280.963 164.442 281.096 163.9 281.363 163.65C281.629 163.383 282.179 163.25 283.013 163.25C283.846 163.25 284.388 163.383 284.638 163.65Z" fill="white"/>
<circle cx="206.5" cy="207.5" r="18" stroke="white" stroke-width="3"/>
<circle cx="206.5" cy="207.5" r="10" fill="#FF0000" stroke="white" stroke-width="3"/>
<line x1="224" y1="206.5" x2="537" y2="206.5" stroke="white" stroke-width="3"/>
<circle cx="932.5" cy="127.5" r="18" stroke="white" stroke-width="3"/>
<circle cx="509.5" cy="507.5" r="18" stroke="white" stroke-width="3"/>
<line x1="535.5" y1="206" x2="535.5" y2="127" stroke="white" stroke-width="3"/>
<line x1="534" y1="126.5" x2="616" y2="126.5" stroke="white" stroke-width="3"/>
<line x1="607.061" y1="117.939" x2="617.061" y2="127.939" stroke="white" stroke-width="3"/>
<line y1="-1.5" x2="14.1421" y2="-1.5" transform="matrix(-0.707107 0.707107 0.707107 0.707107 832 501)" stroke="white" stroke-width="3"/>
<line y1="-1.5" x2="14.1421" y2="-1.5" transform="matrix(-0.707107 0.707107 0.707107 0.707107 371 500)" stroke="white" stroke-width="3"/>
<line x1="607.939" y1="134.939" x2="616.939" y2="125.939" stroke="white" stroke-width="3"/>
<line y1="-1.5" x2="12.7279" y2="-1.5" transform="matrix(-0.707107 -0.707107 -0.707107 0.707107 829 518)" stroke="white" stroke-width="3"/>
<line y1="-1.5" x2="12.7279" y2="-1.5" transform="matrix(-0.707107 -0.707107 -0.707107 0.707107 368 517)" stroke="white" stroke-width="3"/>
<rect x="622" y="108" width="282" height="35" fill="white"/>
<rect x="534" y="490" width="282" height="35" fill="white"/>
<rect x="75" y="474" width="282" height="68" fill="white"/>
<line x1="950" y1="126.5" x2="1087" y2="126.5" stroke="white" stroke-width="3"/>
<line x1="1086.5" y1="126" x2="1086.5" y2="429" stroke="white" stroke-width="3"/>
<line x1="1088" y1="428.5" x2="913" y2="428.5" stroke="white" stroke-width="3"/>
<line x1="912.5" y1="427" x2="912.5" y2="510" stroke="white" stroke-width="3"/>
<line x1="913" y1="508.5" x2="822" y2="508.5" stroke="white" stroke-width="3"/>
<line x1="491" y1="507.5" x2="363" y2="507.5" stroke="white" stroke-width="3"/>
<path d="M674.327 134H670.087C668.487 134 667.327 133.693 666.607 133.08C665.9 132.453 665.547 131.44 665.547 130.04V119.76H668.327V130.04C668.327 130.6 668.453 130.987 668.707 131.2C668.96 131.413 669.42 131.52 670.087 131.52H674.327V134ZM684.903 128.9H678.243C678.243 129.94 678.403 130.7 678.723 131.18C679.056 131.66 679.716 131.9 680.703 131.9C681.343 131.9 681.816 131.7 682.123 131.3C682.429 130.887 682.583 130.493 682.583 130.12H684.923C684.923 131.547 684.536 132.593 683.763 133.26C683.003 133.927 681.989 134.26 680.723 134.26C679.469 134.26 678.496 134.08 677.803 133.72C676.376 132.987 675.663 131.04 675.663 127.88C675.663 126 676.069 124.627 676.883 123.76C677.696 122.88 678.936 122.44 680.603 122.44C683.496 122.44 684.943 124.047 684.943 127.26C684.943 127.607 684.929 128.153 684.903 128.9ZM678.303 127.12H682.583C682.583 126.24 682.416 125.6 682.083 125.2C681.749 124.8 681.236 124.6 680.543 124.6C679.863 124.6 679.316 124.807 678.903 125.22C678.503 125.62 678.303 126.253 678.303 127.12ZM695.14 130.84V131.14C695.06 132.14 694.633 132.893 693.86 133.4C693.1 133.907 692.147 134.16 691 134.16C689.307 134.16 688.12 133.853 687.44 133.24C686.813 132.68 686.5 131.853 686.5 130.76V130.52H688.86C688.86 131.133 689.02 131.553 689.34 131.78C689.66 132.007 690.213 132.12 691 132.12C692.067 132.12 692.6 131.733 692.6 130.96C692.6 130.32 692.413 129.893 692.04 129.68C691.867 129.573 691.647 129.493 691.38 129.44L689.36 129.1C687.6 128.82 686.72 127.72 686.72 125.8C686.72 124.733 687.107 123.907 687.88 123.32C688.667 122.72 689.66 122.42 690.86 122.42C693.593 122.42 694.96 123.6 694.96 125.96V126.22H692.7C692.673 125.593 692.507 125.167 692.2 124.94C691.893 124.713 691.46 124.6 690.9 124.6C690.353 124.6 689.94 124.713 689.66 124.94C689.38 125.153 689.24 125.393 689.24 125.66C689.24 126.42 689.547 126.853 690.16 126.96L692.58 127.4C694.287 127.72 695.14 128.867 695.14 130.84ZM710.528 128.9H703.868C703.868 129.94 704.028 130.7 704.348 131.18C704.681 131.66 705.341 131.9 706.328 131.9C706.968 131.9 707.441 131.7 707.748 131.3C708.054 130.887 708.208 130.493 708.208 130.12H710.548C710.548 131.547 710.161 132.593 709.388 133.26C708.628 133.927 707.614 134.26 706.348 134.26C705.094 134.26 704.121 134.08 703.428 133.72C702.001 132.987 701.288 131.04 701.288 127.88C701.288 126 701.694 124.627 702.508 123.76C703.321 122.88 704.561 122.44 706.228 122.44C709.121 122.44 710.568 124.047 710.568 127.26C710.568 127.607 710.554 128.153 710.528 128.9ZM703.928 127.12H708.208C708.208 126.24 708.041 125.6 707.708 125.2C707.374 124.8 706.861 124.6 706.168 124.6C705.488 124.6 704.941 124.807 704.528 125.22C704.128 125.62 703.928 126.253 703.928 127.12ZM721.465 134H719.525L718.925 132.64L715.725 134.12C714.832 134.12 714.052 133.793 713.385 133.14C712.732 132.473 712.405 131.507 712.405 130.24V122.58H715.005V129.68C715.005 130.947 715.512 131.58 716.525 131.58L718.865 130.32V122.58H721.465V134ZM730.23 129.82L732.59 129.8C732.576 129.907 732.563 130.1 732.55 130.38C732.536 130.66 732.523 130.853 732.51 130.96C732.51 131.053 732.496 131.207 732.47 131.42C732.443 131.633 732.41 131.793 732.37 131.9C732.343 131.993 732.303 132.12 732.25 132.28C732.01 132.973 731.356 133.52 730.29 133.92C729.61 134.16 728.896 134.28 728.15 134.28C727.416 134.28 726.75 134.16 726.15 133.92C725.55 133.68 725.076 133.373 724.73 133C723.943 132.173 723.55 130.627 723.55 128.36C723.55 126.08 723.943 124.527 724.73 123.7C725.076 123.327 725.55 123.02 726.15 122.78C726.75 122.54 727.416 122.42 728.15 122.42C729.59 122.42 730.683 122.78 731.43 123.5C732.176 124.22 732.55 125.22 732.55 126.5H730.19C730.19 125.913 730.043 125.48 729.75 125.2C729.456 124.907 728.91 124.76 728.11 124.76C727.323 124.76 726.796 125.007 726.53 125.5C726.276 125.993 726.15 126.733 726.15 127.72V128.76C726.15 130.347 726.456 131.32 727.07 131.68C727.35 131.853 727.716 131.94 728.17 131.94C728.623 131.94 728.99 131.9 729.27 131.82C729.563 131.727 729.77 131.573 729.89 131.36C730.023 131.147 730.11 130.94 730.15 130.74C730.19 130.527 730.216 130.22 730.23 129.82ZM742.621 134H740.881L740.081 132.62L737.301 134.12C735.754 134.12 734.714 133.56 734.181 132.44C733.914 131.893 733.727 131.307 733.621 130.68C733.527 130.04 733.481 129.38 733.481 128.7C733.481 128.007 733.487 127.5 733.501 127.18C733.514 126.847 733.547 126.467 733.601 126.04C733.654 125.6 733.727 125.233 733.821 124.94C733.927 124.647 734.074 124.347 734.261 124.04C734.447 123.72 734.674 123.467 734.941 123.28C735.541 122.867 736.321 122.66 737.281 122.66H740.021L742.621 122.5V134ZM740.021 130.36V125H738.041C737.307 125 736.794 125.28 736.501 125.84C736.221 126.4 736.081 127.24 736.081 128.36C736.081 129.467 736.214 130.247 736.481 130.7C736.761 131.153 737.281 131.38 738.041 131.38L740.021 130.36ZM747.944 134L745.344 134.02V118.96H747.944V134ZM759.077 122.58L754.737 135.28C754.537 135.853 754.277 136.3 753.957 136.62C753.424 137.153 752.677 137.42 751.717 137.42H750.497V135.08H751.297C751.671 135.08 751.944 135.013 752.117 134.88C752.304 134.76 752.464 134.513 752.597 134.14L752.797 133.58L749.357 122.58H752.097L754.137 130.52L756.337 122.58H759.077ZM769.74 127.98C769.74 130.953 768.973 132.853 767.44 133.68C766.813 134.013 766.047 134.18 765.14 134.18L763.22 132.94V137.4H760.62V122.66H765.74C767.287 122.66 768.34 123.1 768.9 123.98C769.46 124.847 769.74 126.18 769.74 127.98ZM767.14 128.38C767.14 126.127 766.42 125 764.98 125H763.22V130.3L764.98 131.44C765.753 131.44 766.307 131.2 766.64 130.72C766.973 130.227 767.14 129.447 767.14 128.38ZM776.692 134H775.072C774.085 134 773.332 133.707 772.812 133.12C772.305 132.533 772.052 131.833 772.052 131.02V125.02H770.952V123.04H772.052V120.8H774.652V123.04H776.492V125.02H774.652V130.86C774.652 131.487 774.952 131.8 775.552 131.8H776.692V134ZM787.383 134H785.443L784.843 132.64L781.643 134.12C780.749 134.12 779.969 133.793 779.303 133.14C778.649 132.473 778.323 131.507 778.323 130.24V122.58H780.923V129.68C780.923 130.947 781.429 131.58 782.443 131.58L784.783 130.32V122.58H787.383V134ZM798.148 130.84V131.14C798.068 132.14 797.641 132.893 796.868 133.4C796.108 133.907 795.154 134.16 794.008 134.16C792.314 134.16 791.128 133.853 790.448 133.24C789.821 132.68 789.508 131.853 789.508 130.76V130.52H791.868C791.868 131.133 792.028 131.553 792.348 131.78C792.668 132.007 793.221 132.12 794.008 132.12C795.074 132.12 795.608 131.733 795.608 130.96C795.608 130.32 795.421 129.893 795.048 129.68C794.874 129.573 794.654 129.493 794.388 129.44L792.368 129.1C790.608 128.82 789.728 127.72 789.728 125.8C789.728 124.733 790.114 123.907 790.888 123.32C791.674 122.72 792.668 122.42 793.868 122.42C796.601 122.42 797.968 123.6 797.968 125.96V126.22H795.708C795.681 125.593 795.514 125.167 795.208 124.94C794.901 124.713 794.468 124.6 793.908 124.6C793.361 124.6 792.948 124.713 792.668 124.94C792.388 125.153 792.248 125.393 792.248 125.66C792.248 126.42 792.554 126.853 793.168 126.96L795.588 127.4C797.294 127.72 798.148 128.867 798.148 130.84ZM812.816 130.84V131.14C812.736 132.14 812.309 132.893 811.536 133.4C810.776 133.907 809.822 134.16 808.676 134.16C806.982 134.16 805.796 133.853 805.116 133.24C804.489 132.68 804.176 131.853 804.176 130.76V130.52H806.536C806.536 131.133 806.696 131.553 807.016 131.78C807.336 132.007 807.889 132.12 808.676 132.12C809.742 132.12 810.276 131.733 810.276 130.96C810.276 130.32 810.089 129.893 809.716 129.68C809.542 129.573 809.322 129.493 809.056 129.44L807.036 129.1C805.276 128.82 804.396 127.72 804.396 125.8C804.396 124.733 804.782 123.907 805.556 123.32C806.342 122.72 807.336 122.42 808.536 122.42C811.269 122.42 812.636 123.6 812.636 125.96V126.22H810.376C810.349 125.593 810.182 125.167 809.876 124.94C809.569 124.713 809.136 124.6 808.576 124.6C808.029 124.6 807.616 124.713 807.336 124.94C807.056 125.153 806.916 125.393 806.916 125.66C806.916 126.42 807.222 126.853 807.836 126.96L810.256 127.4C811.962 127.72 812.816 128.867 812.816 130.84ZM819.875 134H818.255C817.268 134 816.515 133.707 815.995 133.12C815.488 132.533 815.235 131.833 815.235 131.02V125.02H814.135V123.04H815.235V120.8H817.835V123.04H819.675V125.02H817.835V130.86C817.835 131.487 818.135 131.8 818.735 131.8H819.875V134ZM829.886 134H828.146L827.346 132.62L824.566 134.12C823.02 134.12 821.98 133.56 821.446 132.44C821.18 131.893 820.993 131.307 820.886 130.68C820.793 130.04 820.746 129.38 820.746 128.7C820.746 128.007 820.753 127.5 820.766 127.18C820.78 126.847 820.813 126.467 820.866 126.04C820.92 125.6 820.993 125.233 821.086 124.94C821.193 124.647 821.34 124.347 821.526 124.04C821.713 123.72 821.94 123.467 822.206 123.28C822.806 122.867 823.586 122.66 824.546 122.66H827.286L829.886 122.5V134ZM827.286 130.36V125H825.306C824.573 125 824.06 125.28 823.766 125.84C823.486 126.4 823.346 127.24 823.346 128.36C823.346 129.467 823.48 130.247 823.746 130.7C824.026 131.153 824.546 131.38 825.306 131.38L827.286 130.36ZM837.59 134H835.97C834.983 134 834.23 133.707 833.71 133.12C833.203 132.533 832.95 131.833 832.95 131.02V125.02H831.85V123.04H832.95V120.8H835.55V123.04H837.39V125.02H835.55V130.86C835.55 131.487 835.85 131.8 836.45 131.8H837.59V134ZM841.061 118.22C841.688 118.22 842.095 118.32 842.281 118.52C842.468 118.707 842.561 119.113 842.561 119.74C842.561 120.353 842.461 120.76 842.261 120.96C842.075 121.147 841.668 121.24 841.041 121.24C840.428 121.24 840.021 121.14 839.821 120.94C839.635 120.74 839.541 120.333 839.541 119.72C839.541 119.107 839.635 118.707 839.821 118.52C840.021 118.32 840.435 118.22 841.061 118.22ZM842.341 134H839.741V123H842.341V134ZM851.429 128.84V127.8C851.429 126.813 851.282 126.06 850.989 125.54C850.709 125.02 850.116 124.76 849.209 124.76C847.742 124.76 847.009 125.747 847.009 127.72V128.76C847.009 130.88 847.742 131.94 849.209 131.94C850.156 131.94 850.776 131.587 851.069 130.88C851.309 130.32 851.429 129.64 851.429 128.84ZM854.029 128.24C854.029 130.707 853.562 132.36 852.629 133.2C851.842 133.92 850.702 134.28 849.209 134.28C847.302 134.28 846.016 133.72 845.349 132.6C844.722 131.573 844.409 130.12 844.409 128.24C844.409 126.48 844.722 125.1 845.349 124.1C846.042 122.98 847.302 122.42 849.129 122.42C850.969 122.42 852.242 122.913 852.949 123.9C853.669 124.873 854.029 126.32 854.029 128.24ZM864.968 134H862.368V126.7C862.368 126.047 862.235 125.6 861.968 125.36C861.702 125.12 861.328 125 860.848 125L858.508 125.98V134H855.908V122.58H857.848L858.448 123.94L861.648 122.46C862.542 122.46 863.315 122.793 863.968 123.46C864.635 124.113 864.968 125.073 864.968 126.34V134Z" fill="black"/>
<path d="M603.65 509.9C603.65 511.22 603.29 512.233 602.57 512.94C601.863 513.647 600.87 514 599.59 514H597.67C596.097 514 594.977 513.727 594.31 513.18C593.657 512.633 593.33 511.687 593.33 510.34V499.76H599.35C600.71 499.76 601.73 500.1 602.41 500.78C603.103 501.46 603.45 502.42 603.45 503.66C603.45 504.38 603.263 504.993 602.89 505.5C602.53 506.007 602.13 506.367 601.69 506.58C602.997 507.193 603.65 508.3 603.65 509.9ZM599.13 505.32C600.157 505.32 600.67 504.807 600.67 503.78C600.67 502.753 600.157 502.24 599.13 502.24H596.11V505.32H599.13ZM600.87 509.76C600.87 509.12 600.757 508.64 600.53 508.32C600.303 507.987 599.897 507.82 599.31 507.82H596.11V510.06C596.11 510.607 596.243 510.987 596.51 511.2C596.79 511.413 597.243 511.52 597.87 511.52H599.31C600.35 511.52 600.87 510.933 600.87 509.76ZM614.854 508.9H608.194C608.194 509.94 608.354 510.7 608.674 511.18C609.007 511.66 609.667 511.9 610.654 511.9C611.294 511.9 611.767 511.7 612.074 511.3C612.381 510.887 612.534 510.493 612.534 510.12H614.874C614.874 511.547 614.487 512.593 613.714 513.26C612.954 513.927 611.941 514.26 610.674 514.26C609.421 514.26 608.447 514.08 607.754 513.72C606.327 512.987 605.614 511.04 605.614 507.88C605.614 506 606.021 504.627 606.834 503.76C607.647 502.88 608.887 502.44 610.554 502.44C613.447 502.44 614.894 504.047 614.894 507.26C614.894 507.607 614.881 508.153 614.854 508.9ZM608.254 507.12H612.534C612.534 506.24 612.367 505.6 612.034 505.2C611.701 504.8 611.187 504.6 610.494 504.6C609.814 504.6 609.267 504.807 608.854 505.22C608.454 505.62 608.254 506.253 608.254 507.12ZM626.111 514H623.511V506.7C623.511 506.047 623.378 505.6 623.111 505.36C622.844 505.12 622.471 505 621.991 505L619.651 505.98V514H617.051V502.58H618.991L619.591 503.94L622.791 502.46C623.684 502.46 624.458 502.793 625.111 503.46C625.778 504.113 626.111 505.073 626.111 506.34V514ZM644.364 514H641.464L640.664 511.54H635.884L635.104 514H632.204L636.764 500.96C636.964 500.507 637.184 500.193 637.424 500.02C637.678 499.847 637.984 499.76 638.344 499.76C638.704 499.76 638.991 499.84 639.204 500C639.431 500.16 639.631 500.48 639.804 500.96L644.364 514ZM640.024 509.2L638.344 503.56L636.584 509.2H640.024ZM655.938 514H652.818L649.818 509.96L648.678 511.58V514H646.078V498.96H648.678V508.46L652.318 503.04H655.258L651.518 508.16L655.938 514ZM666.15 514H663.55V506.7C663.55 506.047 663.417 505.6 663.15 505.36C662.883 505.12 662.51 505 662.03 505L659.69 505.98V514H657.09V502.58H659.03L659.63 503.94L662.83 502.46C663.723 502.46 664.497 502.793 665.15 503.46C665.817 504.113 666.15 505.073 666.15 506.34V514ZM674.935 508.84V507.8C674.935 506.813 674.788 506.06 674.495 505.54C674.215 505.02 673.622 504.76 672.715 504.76C671.248 504.76 670.515 505.747 670.515 507.72V508.76C670.515 510.88 671.248 511.94 672.715 511.94C673.662 511.94 674.282 511.587 674.575 510.88C674.815 510.32 674.935 509.64 674.935 508.84ZM677.535 508.24C677.535 510.707 677.068 512.36 676.135 513.2C675.348 513.92 674.208 514.28 672.715 514.28C670.808 514.28 669.522 513.72 668.855 512.6C668.228 511.573 667.915 510.12 667.915 508.24C667.915 506.48 668.228 505.1 668.855 504.1C669.548 502.98 670.808 502.42 672.635 502.42C674.475 502.42 675.748 502.913 676.455 503.9C677.175 504.873 677.535 506.32 677.535 508.24ZM688.154 514H686.214L685.614 512.64L682.414 514.12C681.521 514.12 680.741 513.793 680.074 513.14C679.421 512.473 679.094 511.507 679.094 510.24V502.58H681.694V509.68C681.694 510.947 682.201 511.58 683.214 511.58L685.554 510.32V502.58H688.154V514ZM699.939 514H697.339V506.7C697.339 506.047 697.206 505.6 696.939 505.36C696.672 505.12 696.299 505 695.819 505L693.479 505.98V514H690.879V502.58H692.819L693.419 503.94L696.619 502.46C697.512 502.46 698.286 502.793 698.939 503.46C699.606 504.113 699.939 505.073 699.939 506.34V514ZM715.032 510.84V511.14C714.952 512.14 714.526 512.893 713.752 513.4C712.992 513.907 712.039 514.16 710.892 514.16C709.199 514.16 708.012 513.853 707.332 513.24C706.706 512.68 706.392 511.853 706.392 510.76V510.52H708.752C708.752 511.133 708.912 511.553 709.232 511.78C709.552 512.007 710.106 512.12 710.892 512.12C711.959 512.12 712.492 511.733 712.492 510.96C712.492 510.32 712.306 509.893 711.932 509.68C711.759 509.573 711.539 509.493 711.272 509.44L709.252 509.1C707.492 508.82 706.612 507.72 706.612 505.8C706.612 504.733 706.999 503.907 707.772 503.32C708.559 502.72 709.552 502.42 710.752 502.42C713.486 502.42 714.852 503.6 714.852 505.96V506.22H712.592C712.566 505.593 712.399 505.167 712.092 504.94C711.786 504.713 711.352 504.6 710.792 504.6C710.246 504.6 709.832 504.713 709.552 504.94C709.272 505.153 709.132 505.393 709.132 505.66C709.132 506.42 709.439 506.853 710.052 506.96L712.472 507.4C714.179 507.72 715.032 508.867 715.032 510.84ZM722.092 514H720.472C719.485 514 718.732 513.707 718.212 513.12C717.705 512.533 717.452 511.833 717.452 511.02V505.02H716.352V503.04H717.452V500.8H720.052V503.04H721.892V505.02H720.052V510.86C720.052 511.487 720.352 511.8 720.952 511.8H722.092V514ZM732.103 514H730.363L729.563 512.62L726.783 514.12C725.237 514.12 724.197 513.56 723.663 512.44C723.397 511.893 723.21 511.307 723.103 510.68C723.01 510.04 722.963 509.38 722.963 508.7C722.963 508.007 722.97 507.5 722.983 507.18C722.997 506.847 723.03 506.467 723.083 506.04C723.137 505.6 723.21 505.233 723.303 504.94C723.41 504.647 723.557 504.347 723.743 504.04C723.93 503.72 724.157 503.467 724.423 503.28C725.023 502.867 725.803 502.66 726.763 502.66H729.503L732.103 502.5V514ZM729.503 510.36V505H727.523C726.79 505 726.277 505.28 725.983 505.84C725.703 506.4 725.563 507.24 725.563 508.36C725.563 509.467 725.697 510.247 725.963 510.7C726.243 511.153 726.763 511.38 727.523 511.38L729.503 510.36ZM739.807 514H738.187C737.2 514 736.447 513.707 735.927 513.12C735.42 512.533 735.167 511.833 735.167 511.02V505.02H734.067V503.04H735.167V500.8H737.767V503.04H739.607V505.02H737.767V510.86C737.767 511.487 738.067 511.8 738.667 511.8H739.807V514ZM743.278 498.22C743.905 498.22 744.311 498.32 744.498 498.52C744.685 498.707 744.778 499.113 744.778 499.74C744.778 500.353 744.678 500.76 744.478 500.96C744.291 501.147 743.885 501.24 743.258 501.24C742.645 501.24 742.238 501.14 742.038 500.94C741.851 500.74 741.758 500.333 741.758 499.72C741.758 499.107 741.851 498.707 742.038 498.52C742.238 498.32 742.651 498.22 743.278 498.22ZM744.558 514H741.958V503H744.558V514ZM753.646 508.84V507.8C753.646 506.813 753.499 506.06 753.206 505.54C752.926 505.02 752.333 504.76 751.426 504.76C749.959 504.76 749.226 505.747 749.226 507.72V508.76C749.226 510.88 749.959 511.94 751.426 511.94C752.373 511.94 752.993 511.587 753.286 510.88C753.526 510.32 753.646 509.64 753.646 508.84ZM756.246 508.24C756.246 510.707 755.779 512.36 754.846 513.2C754.059 513.92 752.919 514.28 751.426 514.28C749.519 514.28 748.233 513.72 747.566 512.6C746.939 511.573 746.626 510.12 746.626 508.24C746.626 506.48 746.939 505.1 747.566 504.1C748.259 502.98 749.519 502.42 751.346 502.42C753.186 502.42 754.459 502.913 755.166 503.9C755.886 504.873 756.246 506.32 756.246 508.24ZM767.185 514H764.585V506.7C764.585 506.047 764.452 505.6 764.185 505.36C763.919 505.12 763.545 505 763.065 505L760.725 505.98V514H758.125V502.58H760.065L760.665 503.94L763.865 502.46C764.759 502.46 765.532 502.793 766.185 503.46C766.852 504.113 767.185 505.073 767.185 506.34V514Z" fill="black"/>
<path d="M140.232 508.9C140.232 510.22 139.872 511.233 139.152 511.94C138.445 512.647 137.452 513 136.172 513H134.252C132.679 513 131.559 512.727 130.892 512.18C130.239 511.633 129.912 510.687 129.912 509.34V498.76H135.932C137.292 498.76 138.312 499.1 138.992 499.78C139.685 500.46 140.032 501.42 140.032 502.66C140.032 503.38 139.845 503.993 139.472 504.5C139.112 505.007 138.712 505.367 138.272 505.58C139.579 506.193 140.232 507.3 140.232 508.9ZM135.712 504.32C136.739 504.32 137.252 503.807 137.252 502.78C137.252 501.753 136.739 501.24 135.712 501.24H132.692V504.32H135.712ZM137.452 508.76C137.452 508.12 137.339 507.64 137.112 507.32C136.885 506.987 136.479 506.82 135.892 506.82H132.692V509.06C132.692 509.607 132.825 509.987 133.092 510.2C133.372 510.413 133.825 510.52 134.452 510.52H135.892C136.932 510.52 137.452 509.933 137.452 508.76ZM150.736 513H148.996L148.196 511.62L145.416 513.12C143.869 513.12 142.829 512.56 142.296 511.44C142.029 510.893 141.843 510.307 141.736 509.68C141.643 509.04 141.596 508.38 141.596 507.7C141.596 507.007 141.603 506.5 141.616 506.18C141.629 505.847 141.663 505.467 141.716 505.04C141.769 504.6 141.843 504.233 141.936 503.94C142.043 503.647 142.189 503.347 142.376 503.04C142.563 502.72 142.789 502.467 143.056 502.28C143.656 501.867 144.436 501.66 145.396 501.66H148.136L150.736 501.5V513ZM148.136 509.36V504H146.156C145.423 504 144.909 504.28 144.616 504.84C144.336 505.4 144.196 506.24 144.196 507.36C144.196 508.467 144.329 509.247 144.596 509.7C144.876 510.153 145.396 510.38 146.156 510.38L148.136 509.36ZM158.44 513.02L156.18 513C155.18 513 154.42 512.707 153.9 512.12C153.393 511.533 153.14 510.833 153.14 510.02V497.96H155.74V503L158.84 501.56C160.026 501.56 160.9 501.88 161.46 502.52C161.953 503.093 162.26 504.02 162.38 505.3C162.42 505.833 162.44 506.493 162.44 507.28C162.44 511.107 161.106 513.02 158.44 513.02ZM156.4 510.78H157.68C159.12 510.78 159.84 509.613 159.84 507.28C159.84 506.093 159.726 505.267 159.5 504.8C159.286 504.333 158.813 504.1 158.08 504.1L155.74 505.36V509.86C155.74 510.393 155.96 510.7 156.4 510.78ZM172.611 513H170.871L170.071 511.62L167.291 513.12C165.744 513.12 164.704 512.56 164.171 511.44C163.904 510.893 163.718 510.307 163.611 509.68C163.518 509.04 163.471 508.38 163.471 507.7C163.471 507.007 163.478 506.5 163.491 506.18C163.504 505.847 163.538 505.467 163.591 505.04C163.644 504.6 163.718 504.233 163.811 503.94C163.918 503.647 164.064 503.347 164.251 503.04C164.438 502.72 164.664 502.467 164.931 502.28C165.531 501.867 166.311 501.66 167.271 501.66H170.011L172.611 501.5V513ZM170.011 509.36V504H168.031C167.298 504 166.784 504.28 166.491 504.84C166.211 505.4 166.071 506.24 166.071 507.36C166.071 508.467 166.204 509.247 166.471 509.7C166.751 510.153 167.271 510.38 168.031 510.38L170.011 509.36ZM190.863 513H188.083V507.24H182.863V513H180.083V498.76H182.863V504.78H188.083V498.76H190.863V513ZM201.614 509.84V510.14C201.534 511.14 201.108 511.893 200.334 512.4C199.574 512.907 198.621 513.16 197.474 513.16C195.781 513.16 194.594 512.853 193.914 512.24C193.288 511.68 192.974 510.853 192.974 509.76V509.52H195.334C195.334 510.133 195.494 510.553 195.814 510.78C196.134 511.007 196.688 511.12 197.474 511.12C198.541 511.12 199.074 510.733 199.074 509.96C199.074 509.32 198.888 508.893 198.514 508.68C198.341 508.573 198.121 508.493 197.854 508.44L195.834 508.1C194.074 507.82 193.194 506.72 193.194 504.8C193.194 503.733 193.581 502.907 194.354 502.32C195.141 501.72 196.134 501.42 197.334 501.42C200.068 501.42 201.434 502.6 201.434 504.96V505.22H199.174C199.148 504.593 198.981 504.167 198.674 503.94C198.368 503.713 197.934 503.6 197.374 503.6C196.828 503.6 196.414 503.713 196.134 503.94C195.854 504.153 195.714 504.393 195.714 504.66C195.714 505.42 196.021 505.853 196.634 505.96L199.054 506.4C200.761 506.72 201.614 507.867 201.614 509.84ZM211.634 509.84V510.14C211.554 511.14 211.127 511.893 210.354 512.4C209.594 512.907 208.641 513.16 207.494 513.16C205.801 513.16 204.614 512.853 203.934 512.24C203.307 511.68 202.994 510.853 202.994 509.76V509.52H205.354C205.354 510.133 205.514 510.553 205.834 510.78C206.154 511.007 206.707 511.12 207.494 511.12C208.561 511.12 209.094 510.733 209.094 509.96C209.094 509.32 208.907 508.893 208.534 508.68C208.361 508.573 208.141 508.493 207.874 508.44L205.854 508.1C204.094 507.82 203.214 506.72 203.214 504.8C203.214 503.733 203.601 502.907 204.374 502.32C205.161 501.72 206.154 501.42 207.354 501.42C210.087 501.42 211.454 502.6 211.454 504.96V505.22H209.194C209.167 504.593 209.001 504.167 208.694 503.94C208.387 503.713 207.954 503.6 207.394 503.6C206.847 503.6 206.434 503.713 206.154 503.94C205.874 504.153 205.734 504.393 205.734 504.66C205.734 505.42 206.041 505.853 206.654 505.96L209.074 506.4C210.781 506.72 211.634 507.867 211.634 509.84ZM221.674 513H219.934L219.134 511.62L216.354 513.12C214.807 513.12 213.767 512.56 213.234 511.44C212.967 510.893 212.78 510.307 212.674 509.68C212.58 509.04 212.534 508.38 212.534 507.7C212.534 507.007 212.54 506.5 212.554 506.18C212.567 505.847 212.6 505.467 212.654 505.04C212.707 504.6 212.78 504.233 212.874 503.94C212.98 503.647 213.127 503.347 213.314 503.04C213.5 502.72 213.727 502.467 213.994 502.28C214.594 501.867 215.374 501.66 216.334 501.66H219.074L221.674 501.5V513ZM219.074 509.36V504H217.094C216.36 504 215.847 504.28 215.554 504.84C215.274 505.4 215.134 506.24 215.134 507.36C215.134 508.467 215.267 509.247 215.534 509.7C215.814 510.153 216.334 510.38 217.094 510.38L219.074 509.36ZM233.357 513H230.757V505.7C230.757 505.047 230.624 504.6 230.357 504.36C230.09 504.12 229.717 504 229.237 504L226.897 504.98V513H224.297V501.58H226.237L226.837 502.94L230.037 501.46C230.93 501.46 231.704 501.793 232.357 502.46C233.024 503.113 233.357 504.073 233.357 505.34V513ZM248.45 509.84V510.14C248.37 511.14 247.944 511.893 247.17 512.4C246.41 512.907 245.457 513.16 244.31 513.16C242.617 513.16 241.43 512.853 240.75 512.24C240.124 511.68 239.81 510.853 239.81 509.76V509.52H242.17C242.17 510.133 242.33 510.553 242.65 510.78C242.97 511.007 243.524 511.12 244.31 511.12C245.377 511.12 245.91 510.733 245.91 509.96C245.91 509.32 245.724 508.893 245.35 508.68C245.177 508.573 244.957 508.493 244.69 508.44L242.67 508.1C240.91 507.82 240.03 506.72 240.03 504.8C240.03 503.733 240.417 502.907 241.19 502.32C241.977 501.72 242.97 501.42 244.17 501.42C246.904 501.42 248.27 502.6 248.27 504.96V505.22H246.01C245.984 504.593 245.817 504.167 245.51 503.94C245.204 503.713 244.77 503.6 244.21 503.6C243.664 503.6 243.25 503.713 242.97 503.94C242.69 504.153 242.55 504.393 242.55 504.66C242.55 505.42 242.857 505.853 243.47 505.96L245.89 506.4C247.597 506.72 248.45 507.867 248.45 509.84ZM255.51 513H253.89C252.903 513 252.15 512.707 251.63 512.12C251.123 511.533 250.87 510.833 250.87 510.02V504.02H249.77V502.04H250.87V499.8H253.47V502.04H255.31V504.02H253.47V509.86C253.47 510.487 253.77 510.8 254.37 510.8H255.51V513ZM265.521 513H263.781L262.981 511.62L260.201 513.12C258.655 513.12 257.615 512.56 257.081 511.44C256.815 510.893 256.628 510.307 256.521 509.68C256.428 509.04 256.381 508.38 256.381 507.7C256.381 507.007 256.388 506.5 256.401 506.18C256.415 505.847 256.448 505.467 256.501 505.04C256.555 504.6 256.628 504.233 256.721 503.94C256.828 503.647 256.975 503.347 257.161 503.04C257.348 502.72 257.575 502.467 257.841 502.28C258.441 501.867 259.221 501.66 260.181 501.66H262.921L265.521 501.5V513ZM262.921 509.36V504H260.941C260.208 504 259.695 504.28 259.401 504.84C259.121 505.4 258.981 506.24 258.981 507.36C258.981 508.467 259.115 509.247 259.381 509.7C259.661 510.153 260.181 510.38 260.941 510.38L262.921 509.36ZM273.225 513H271.605C270.618 513 269.865 512.707 269.345 512.12C268.838 511.533 268.585 510.833 268.585 510.02V504.02H267.485V502.04H268.585V499.8H271.185V502.04H273.025V504.02H271.185V509.86C271.185 510.487 271.485 510.8 272.085 510.8H273.225V513ZM276.696 497.22C277.323 497.22 277.729 497.32 277.916 497.52C278.103 497.707 278.196 498.113 278.196 498.74C278.196 499.353 278.096 499.76 277.896 499.96C277.709 500.147 277.303 500.24 276.676 500.24C276.063 500.24 275.656 500.14 275.456 499.94C275.269 499.74 275.176 499.333 275.176 498.72C275.176 498.107 275.269 497.707 275.456 497.52C275.656 497.32 276.069 497.22 276.696 497.22ZM277.976 513H275.376V502H277.976V513ZM287.064 507.84V506.8C287.064 505.813 286.917 505.06 286.624 504.54C286.344 504.02 285.75 503.76 284.844 503.76C283.377 503.76 282.644 504.747 282.644 506.72V507.76C282.644 509.88 283.377 510.94 284.844 510.94C285.79 510.94 286.41 510.587 286.704 509.88C286.944 509.32 287.064 508.64 287.064 507.84ZM289.664 507.24C289.664 509.707 289.197 511.36 288.264 512.2C287.477 512.92 286.337 513.28 284.844 513.28C282.937 513.28 281.65 512.72 280.984 511.6C280.357 510.573 280.044 509.12 280.044 507.24C280.044 505.48 280.357 504.1 280.984 503.1C281.677 501.98 282.937 501.42 284.764 501.42C286.604 501.42 287.877 501.913 288.584 502.9C289.304 503.873 289.664 505.32 289.664 507.24ZM300.603 513H298.003V505.7C298.003 505.047 297.87 504.6 297.603 504.36C297.337 504.12 296.963 504 296.483 504L294.143 504.98V513H291.543V501.58H293.483L294.083 502.94L297.283 501.46C298.177 501.46 298.95 501.793 299.603 502.46C300.27 503.113 300.603 504.073 300.603 505.34V513Z" fill="black"/>
<path d="M128.189 452.76L123.909 461.16V467H121.149V461.16L116.869 452.76H119.889L122.549 458.5L125.169 452.76H128.189ZM135.894 461.84V460.8C135.894 459.813 135.747 459.06 135.454 458.54C135.174 458.02 134.581 457.76 133.674 457.76C132.207 457.76 131.474 458.747 131.474 460.72V461.76C131.474 463.88 132.207 464.94 133.674 464.94C134.621 464.94 135.241 464.587 135.534 463.88C135.774 463.32 135.894 462.64 135.894 461.84ZM138.494 461.24C138.494 463.707 138.027 465.36 137.094 466.2C136.307 466.92 135.167 467.28 133.674 467.28C131.767 467.28 130.481 466.72 129.814 465.6C129.187 464.573 128.874 463.12 128.874 461.24C128.874 459.48 129.187 458.1 129.814 457.1C130.507 455.98 131.767 455.42 133.594 455.42C135.434 455.42 136.707 455.913 137.414 456.9C138.134 457.873 138.494 459.32 138.494 461.24ZM149.113 467H147.173L146.573 465.64L143.373 467.12C142.48 467.12 141.7 466.793 141.033 466.14C140.38 465.473 140.053 464.507 140.053 463.24V455.58H142.653V462.68C142.653 463.947 143.16 464.58 144.173 464.58L146.513 463.32V455.58H149.113V467ZM158.098 455.62L157.378 458.18C157.178 458.1 156.951 458.06 156.698 458.06C156.031 458.06 155.211 458.347 154.238 458.92V467H151.638V455.58H153.578L154.178 456.58L156.938 455.44C157.071 455.427 157.251 455.42 157.478 455.42C157.705 455.42 157.911 455.487 158.098 455.62ZM169.32 458H167.2V467H164.6V458H163.52V456.02H164.6V454.92C164.6 454.107 164.86 453.407 165.38 452.82C165.9 452.233 166.653 451.94 167.64 451.94H169.32V454.14H168.1C167.5 454.14 167.2 454.453 167.2 455.08V456.02H169.32V458ZM172.635 451.22C173.262 451.22 173.669 451.32 173.855 451.52C174.042 451.707 174.135 452.113 174.135 452.74C174.135 453.353 174.035 453.76 173.835 453.96C173.649 454.147 173.242 454.24 172.615 454.24C172.002 454.24 171.595 454.14 171.395 453.94C171.209 453.74 171.115 453.333 171.115 452.72C171.115 452.107 171.209 451.707 171.395 451.52C171.595 451.32 172.009 451.22 172.635 451.22ZM173.915 467H171.315V456H173.915V467ZM185.683 467H183.083V459.7C183.083 459.047 182.95 458.6 182.683 458.36C182.417 458.12 182.043 458 181.563 458L179.223 458.98V467H176.623V455.58H178.563L179.163 456.94L182.363 455.46C183.257 455.46 184.03 455.793 184.683 456.46C185.35 457.113 185.683 458.073 185.683 459.34V467ZM196.148 467H194.408L193.608 465.62L190.828 467.12C189.281 467.12 188.241 466.56 187.708 465.44C187.441 464.893 187.255 464.307 187.148 463.68C187.055 463.04 187.008 462.38 187.008 461.7C187.008 461.007 187.015 460.5 187.028 460.18C187.041 459.847 187.075 459.467 187.128 459.04C187.181 458.6 187.255 458.233 187.348 457.94C187.455 457.647 187.601 457.347 187.788 457.04C187.975 456.72 188.201 456.467 188.468 456.28C189.068 455.867 189.848 455.66 190.808 455.66H193.548L196.148 455.5V467ZM193.548 463.36V458H191.568C190.835 458 190.321 458.28 190.028 458.84C189.748 459.4 189.608 460.24 189.608 461.36C189.608 462.467 189.741 463.247 190.008 463.7C190.288 464.153 190.808 464.38 191.568 464.38L193.548 463.36ZM201.472 467L198.872 467.02V451.96H201.472V467ZM217.213 467H215.473L214.673 465.62L211.893 467.12C210.346 467.12 209.306 466.56 208.773 465.44C208.506 464.893 208.32 464.307 208.213 463.68C208.12 463.04 208.073 462.38 208.073 461.7C208.073 461.007 208.08 460.5 208.093 460.18C208.106 459.847 208.14 459.467 208.193 459.04C208.246 458.6 208.32 458.233 208.413 457.94C208.52 457.647 208.666 457.347 208.853 457.04C209.04 456.72 209.266 456.467 209.533 456.28C210.133 455.867 210.913 455.66 211.873 455.66H214.613V451.96H217.213V467ZM214.613 463.36V458H212.633C211.9 458 211.386 458.28 211.093 458.84C210.813 459.4 210.673 460.24 210.673 461.36C210.673 462.467 210.806 463.247 211.073 463.7C211.353 464.153 211.873 464.38 212.633 464.38L214.613 463.36ZM228.684 461.9H222.024C222.024 462.94 222.184 463.7 222.504 464.18C222.837 464.66 223.497 464.9 224.484 464.9C225.124 464.9 225.597 464.7 225.904 464.3C226.211 463.887 226.364 463.493 226.364 463.12H228.704C228.704 464.547 228.317 465.593 227.544 466.26C226.784 466.927 225.771 467.26 224.504 467.26C223.251 467.26 222.277 467.08 221.584 466.72C220.157 465.987 219.444 464.04 219.444 460.88C219.444 459 219.851 457.627 220.664 456.76C221.477 455.88 222.717 455.44 224.384 455.44C227.277 455.44 228.724 457.047 228.724 460.26C228.724 460.607 228.711 461.153 228.684 461.9ZM222.084 460.12H226.364C226.364 459.24 226.197 458.6 225.864 458.2C225.531 457.8 225.017 457.6 224.324 457.6C223.644 457.6 223.097 457.807 222.684 458.22C222.284 458.62 222.084 459.253 222.084 460.12ZM238.921 463.84V464.14C238.841 465.14 238.414 465.893 237.641 466.4C236.881 466.907 235.928 467.16 234.781 467.16C233.088 467.16 231.901 466.853 231.221 466.24C230.594 465.68 230.281 464.853 230.281 463.76V463.52H232.641C232.641 464.133 232.801 464.553 233.121 464.78C233.441 465.007 233.994 465.12 234.781 465.12C235.848 465.12 236.381 464.733 236.381 463.96C236.381 463.32 236.194 462.893 235.821 462.68C235.648 462.573 235.428 462.493 235.161 462.44L233.141 462.1C231.381 461.82 230.501 460.72 230.501 458.8C230.501 457.733 230.888 456.907 231.661 456.32C232.448 455.72 233.441 455.42 234.641 455.42C237.374 455.42 238.741 456.6 238.741 458.96V459.22H236.481C236.454 458.593 236.288 458.167 235.981 457.94C235.674 457.713 235.241 457.6 234.681 457.6C234.134 457.6 233.721 457.713 233.441 457.94C233.161 458.153 233.021 458.393 233.021 458.66C233.021 459.42 233.328 459.853 233.941 459.96L236.361 460.4C238.068 460.72 238.921 461.867 238.921 463.84ZM245.981 467H244.361C243.374 467 242.621 466.707 242.101 466.12C241.594 465.533 241.341 464.833 241.341 464.02V458.02H240.241V456.04H241.341V453.8H243.941V456.04H245.781V458.02H243.941V463.86C243.941 464.487 244.241 464.8 244.841 464.8H245.981V467ZM249.452 451.22C250.079 451.22 250.485 451.32 250.672 451.52C250.859 451.707 250.952 452.113 250.952 452.74C250.952 453.353 250.852 453.76 250.652 453.96C250.465 454.147 250.059 454.24 249.432 454.24C248.819 454.24 248.412 454.14 248.212 453.94C248.025 453.74 247.932 453.333 247.932 452.72C247.932 452.107 248.025 451.707 248.212 451.52C248.412 451.32 248.825 451.22 249.452 451.22ZM250.732 467H248.132V456H250.732V467ZM262.5 467H259.9V459.7C259.9 459.047 259.766 458.6 259.5 458.36C259.233 458.12 258.86 458 258.38 458L256.04 458.98V467H253.44V455.58H255.38L255.98 456.94L259.18 455.46C260.073 455.46 260.846 455.793 261.5 456.46C262.166 457.113 262.5 458.073 262.5 459.34V467ZM272.965 467H271.225L270.425 465.62L267.645 467.12C266.098 467.12 265.058 466.56 264.525 465.44C264.258 464.893 264.071 464.307 263.965 463.68C263.871 463.04 263.825 462.38 263.825 461.7C263.825 461.007 263.831 460.5 263.845 460.18C263.858 459.847 263.891 459.467 263.945 459.04C263.998 458.6 264.071 458.233 264.165 457.94C264.271 457.647 264.418 457.347 264.605 457.04C264.791 456.72 265.018 456.467 265.285 456.28C265.885 455.867 266.665 455.66 267.625 455.66H270.365L272.965 455.5V467ZM270.365 463.36V458H268.385C267.651 458 267.138 458.28 266.845 458.84C266.565 459.4 266.425 460.24 266.425 461.36C266.425 462.467 266.558 463.247 266.825 463.7C267.105 464.153 267.625 464.38 268.385 464.38L270.365 463.36ZM280.668 467H279.048C278.061 467 277.308 466.707 276.788 466.12C276.281 465.533 276.028 464.833 276.028 464.02V458.02H274.928V456.04H276.028V453.8H278.628V456.04H280.468V458.02H278.628V463.86C278.628 464.487 278.928 464.8 279.528 464.8H280.668V467ZM284.139 451.22C284.766 451.22 285.173 451.32 285.359 451.52C285.546 451.707 285.639 452.113 285.639 452.74C285.639 453.353 285.539 453.76 285.339 453.96C285.153 454.147 284.746 454.24 284.119 454.24C283.506 454.24 283.099 454.14 282.899 453.94C282.713 453.74 282.619 453.333 282.619 452.72C282.619 452.107 282.713 451.707 282.899 451.52C283.099 451.32 283.513 451.22 284.139 451.22ZM285.419 467H282.819V456H285.419V467ZM294.507 461.84V460.8C294.507 459.813 294.361 459.06 294.067 458.54C293.787 458.02 293.194 457.76 292.287 457.76C290.821 457.76 290.087 458.747 290.087 460.72V461.76C290.087 463.88 290.821 464.94 292.287 464.94C293.234 464.94 293.854 464.587 294.147 463.88C294.387 463.32 294.507 462.64 294.507 461.84ZM297.107 461.24C297.107 463.707 296.641 465.36 295.707 466.2C294.921 466.92 293.781 467.28 292.287 467.28C290.381 467.28 289.094 466.72 288.427 465.6C287.801 464.573 287.487 463.12 287.487 461.24C287.487 459.48 287.801 458.1 288.427 457.1C289.121 455.98 290.381 455.42 292.207 455.42C294.047 455.42 295.321 455.913 296.027 456.9C296.747 457.873 297.107 459.32 297.107 461.24ZM308.047 467H305.447V459.7C305.447 459.047 305.313 458.6 305.047 458.36C304.78 458.12 304.407 458 303.927 458L301.587 458.98V467H298.987V455.58H300.927L301.527 456.94L304.727 455.46C305.62 455.46 306.393 455.793 307.047 456.46C307.713 457.113 308.047 458.073 308.047 459.34V467Z" fill="white"/>
<path d="M669.656 478.9C669.656 480.22 669.296 481.233 668.576 481.94C667.869 482.647 666.876 483 665.596 483H663.676C662.102 483 660.982 482.727 660.316 482.18C659.662 481.633 659.336 480.687 659.336 479.34V468.76H665.356C666.716 468.76 667.736 469.1 668.416 469.78C669.109 470.46 669.456 471.42 669.456 472.66C669.456 473.38 669.269 473.993 668.896 474.5C668.536 475.007 668.136 475.367 667.696 475.58C669.002 476.193 669.656 477.3 669.656 478.9ZM665.136 474.32C666.162 474.32 666.676 473.807 666.676 472.78C666.676 471.753 666.162 471.24 665.136 471.24H662.116V474.32H665.136ZM666.876 478.76C666.876 478.12 666.762 477.64 666.536 477.32C666.309 476.987 665.902 476.82 665.316 476.82H662.116V479.06C662.116 479.607 662.249 479.987 662.516 480.2C662.796 480.413 663.249 480.52 663.876 480.52H665.316C666.356 480.52 666.876 479.933 666.876 478.76ZM680.84 483H678.9L678.3 481.64L675.1 483.12C674.207 483.12 673.427 482.793 672.76 482.14C672.107 481.473 671.78 480.507 671.78 479.24V471.58H674.38V478.68C674.38 479.947 674.887 480.58 675.9 480.58L678.24 479.32V471.58H680.84V483ZM691.605 479.84V480.14C691.525 481.14 691.098 481.893 690.325 482.4C689.565 482.907 688.611 483.16 687.465 483.16C685.771 483.16 684.585 482.853 683.905 482.24C683.278 481.68 682.965 480.853 682.965 479.76V479.52H685.325C685.325 480.133 685.485 480.553 685.805 480.78C686.125 481.007 686.678 481.12 687.465 481.12C688.531 481.12 689.065 480.733 689.065 479.96C689.065 479.32 688.878 478.893 688.505 478.68C688.331 478.573 688.111 478.493 687.845 478.44L685.825 478.1C684.065 477.82 683.185 476.72 683.185 474.8C683.185 473.733 683.571 472.907 684.345 472.32C685.131 471.72 686.125 471.42 687.325 471.42C690.058 471.42 691.425 472.6 691.425 474.96V475.22H689.165C689.138 474.593 688.971 474.167 688.665 473.94C688.358 473.713 687.925 473.6 687.365 473.6C686.818 473.6 686.405 473.713 686.125 473.94C685.845 474.153 685.705 474.393 685.705 474.66C685.705 475.42 686.011 475.853 686.625 475.96L689.045 476.4C690.751 476.72 691.605 477.867 691.605 479.84Z" fill="white"/>
<path d="M759.656 162.9C759.656 164.22 759.296 165.233 758.576 165.94C757.869 166.647 756.876 167 755.596 167H753.676C752.102 167 750.982 166.727 750.316 166.18C749.662 165.633 749.336 164.687 749.336 163.34V152.76H755.356C756.716 152.76 757.736 153.1 758.416 153.78C759.109 154.46 759.456 155.42 759.456 156.66C759.456 157.38 759.269 157.993 758.896 158.5C758.536 159.007 758.136 159.367 757.696 159.58C759.002 160.193 759.656 161.3 759.656 162.9ZM755.136 158.32C756.162 158.32 756.676 157.807 756.676 156.78C756.676 155.753 756.162 155.24 755.136 155.24H752.116V158.32H755.136ZM756.876 162.76C756.876 162.12 756.762 161.64 756.536 161.32C756.309 160.987 755.902 160.82 755.316 160.82H752.116V163.06C752.116 163.607 752.249 163.987 752.516 164.2C752.796 164.413 753.249 164.52 753.876 164.52H755.316C756.356 164.52 756.876 163.933 756.876 162.76ZM770.84 167H768.9L768.3 165.64L765.1 167.12C764.207 167.12 763.427 166.793 762.76 166.14C762.107 165.473 761.78 164.507 761.78 163.24V155.58H764.38V162.68C764.38 163.947 764.887 164.58 765.9 164.58L768.24 163.32V155.58H770.84V167ZM781.605 163.84V164.14C781.525 165.14 781.098 165.893 780.325 166.4C779.565 166.907 778.611 167.16 777.465 167.16C775.771 167.16 774.585 166.853 773.905 166.24C773.278 165.68 772.965 164.853 772.965 163.76V163.52H775.325C775.325 164.133 775.485 164.553 775.805 164.78C776.125 165.007 776.678 165.12 777.465 165.12C778.531 165.12 779.065 164.733 779.065 163.96C779.065 163.32 778.878 162.893 778.505 162.68C778.331 162.573 778.111 162.493 777.845 162.44L775.825 162.1C774.065 161.82 773.185 160.72 773.185 158.8C773.185 157.733 773.571 156.907 774.345 156.32C775.131 155.72 776.125 155.42 777.325 155.42C780.058 155.42 781.425 156.6 781.425 158.96V159.22H779.165C779.138 158.593 778.971 158.167 778.665 157.94C778.358 157.713 777.925 157.6 777.365 157.6C776.818 157.6 776.405 157.713 776.125 157.94C775.845 158.153 775.705 158.393 775.705 158.66C775.705 159.42 776.011 159.853 776.625 159.96L779.045 160.4C780.751 160.72 781.605 161.867 781.605 163.84Z" fill="white"/>
<rect x="212" y="1" width="287" height="60" fill="#4D869C"/>
<path d="M248.012 12.96L238.382 31.86V45H232.172V31.86L222.542 12.96H229.337L235.322 25.875L241.217 12.96H248.012ZM265.349 33.39V31.05C265.349 28.83 265.019 27.135 264.359 25.965C263.729 24.795 262.394 24.21 260.354 24.21C257.054 24.21 255.404 26.43 255.404 30.87V33.21C255.404 37.98 257.054 40.365 260.354 40.365C262.484 40.365 263.879 39.57 264.539 37.98C265.079 36.72 265.349 35.19 265.349 33.39ZM271.199 32.04C271.199 37.59 270.149 41.31 268.049 43.2C266.279 44.82 263.714 45.63 260.354 45.63C256.064 45.63 253.169 44.37 251.669 41.85C250.259 39.54 249.554 36.27 249.554 32.04C249.554 28.08 250.259 24.975 251.669 22.725C253.229 20.205 256.064 18.945 260.174 18.945C264.314 18.945 267.179 20.055 268.769 22.275C270.389 24.465 271.199 27.72 271.199 32.04ZM295.092 45H290.727L289.377 41.94L282.177 45.27C280.167 45.27 278.412 44.535 276.912 43.065C275.442 41.565 274.707 39.39 274.707 36.54V19.305H280.557V35.28C280.557 38.13 281.697 39.555 283.977 39.555L289.242 36.72V19.305H295.092V45ZM329.817 45H325.902L324.102 41.895L317.847 45.27C314.367 45.27 312.027 44.01 310.827 41.49C310.227 40.26 309.807 38.94 309.567 37.53C309.357 36.09 309.252 34.605 309.252 33.075C309.252 31.515 309.267 30.375 309.297 29.655C309.327 28.905 309.402 28.05 309.522 27.09C309.642 26.1 309.807 25.275 310.017 24.615C310.257 23.955 310.587 23.28 311.007 22.59C311.427 21.87 311.937 21.3 312.537 20.88C313.887 19.95 315.642 19.485 317.802 19.485H323.967L329.817 19.125V45ZM323.967 36.81V24.75H319.512C317.862 24.75 316.707 25.38 316.047 26.64C315.417 27.9 315.102 29.79 315.102 32.31C315.102 34.8 315.402 36.555 316.002 37.575C316.632 38.595 317.802 39.105 319.512 39.105L323.967 36.81ZM349.805 19.395L348.185 25.155C347.735 24.975 347.225 24.885 346.655 24.885C345.155 24.885 343.31 25.53 341.12 26.82V45H335.27V19.305H339.635L340.985 21.555L347.195 18.99C347.495 18.96 347.9 18.945 348.41 18.945C348.92 18.945 349.385 19.095 349.805 19.395ZM372.964 33.525H357.979C357.979 35.865 358.339 37.575 359.059 38.655C359.809 39.735 361.294 40.275 363.514 40.275C364.954 40.275 366.019 39.825 366.709 38.925C367.399 37.995 367.744 37.11 367.744 36.27H373.009C373.009 39.48 372.139 41.835 370.399 43.335C368.689 44.835 366.409 45.585 363.559 45.585C360.739 45.585 358.549 45.18 356.989 44.37C353.779 42.72 352.174 38.34 352.174 31.23C352.174 27 353.089 23.91 354.919 21.96C356.749 19.98 359.539 18.99 363.289 18.99C369.799 18.99 373.054 22.605 373.054 29.835C373.054 30.615 373.024 31.845 372.964 33.525ZM358.114 29.52H367.744C367.744 27.54 367.369 26.1 366.619 25.2C365.869 24.3 364.714 23.85 363.154 23.85C361.624 23.85 360.394 24.315 359.464 25.245C358.564 26.145 358.114 27.57 358.114 29.52ZM408.662 45H402.812V28.89C402.812 26.13 401.732 24.75 399.572 24.75L393.992 26.955V45H388.142V11.16H393.992V22.365L401.417 19.035C404.057 19.035 405.917 19.785 406.997 21.285C408.107 22.785 408.662 24.885 408.662 27.585V45ZM433.697 33.525H418.712C418.712 35.865 419.072 37.575 419.792 38.655C420.542 39.735 422.027 40.275 424.247 40.275C425.687 40.275 426.752 39.825 427.442 38.925C428.132 37.995 428.477 37.11 428.477 36.27H433.742C433.742 39.48 432.872 41.835 431.132 43.335C429.422 44.835 427.142 45.585 424.292 45.585C421.472 45.585 419.282 45.18 417.722 44.37C414.512 42.72 412.907 38.34 412.907 31.23C412.907 27 413.822 23.91 415.652 21.96C417.482 19.98 420.272 18.99 424.022 18.99C430.532 18.99 433.787 22.605 433.787 29.835C433.787 30.615 433.757 31.845 433.697 33.525ZM418.847 29.52H428.477C428.477 27.54 428.102 26.1 427.352 25.2C426.602 24.3 425.447 23.85 423.887 23.85C422.357 23.85 421.127 24.315 420.197 25.245C419.297 26.145 418.847 27.57 418.847 29.52ZM452.725 19.395L451.105 25.155C450.655 24.975 450.145 24.885 449.575 24.885C448.075 24.885 446.23 25.53 444.04 26.82V45H438.19V19.305H442.555L443.905 21.555L450.115 18.99C450.415 18.96 450.82 18.945 451.33 18.945C451.84 18.945 452.305 19.095 452.725 19.395ZM475.884 33.525H460.899C460.899 35.865 461.259 37.575 461.979 38.655C462.729 39.735 464.214 40.275 466.434 40.275C467.874 40.275 468.939 39.825 469.629 38.925C470.319 37.995 470.664 37.11 470.664 36.27H475.929C475.929 39.48 475.059 41.835 473.319 43.335C471.609 44.835 469.329 45.585 466.479 45.585C463.659 45.585 461.469 45.18 459.909 44.37C456.699 42.72 455.094 38.34 455.094 31.23C455.094 27 456.009 23.91 457.839 21.96C459.669 19.98 462.459 18.99 466.209 18.99C472.719 18.99 475.974 22.605 475.974 29.835C475.974 30.615 475.944 31.845 475.884 33.525ZM461.034 29.52H470.664C470.664 27.54 470.289 26.1 469.539 25.2C468.789 24.3 467.634 23.85 466.074 23.85C464.544 23.85 463.314 24.315 462.384 25.245C461.484 26.145 461.034 27.57 461.034 29.52ZM490.278 12.96L488.928 32.4C488.808 33.24 488.508 33.9 488.028 34.38C487.578 34.83 487.068 35.055 486.498 35.055C485.928 35.055 485.418 34.815 484.968 34.335C484.548 33.855 484.338 33.21 484.338 32.4L483.033 12.96H490.278ZM489.648 38.97C490.128 39.42 490.368 40.395 490.368 41.895C490.368 43.395 490.128 44.385 489.648 44.865C489.198 45.345 488.223 45.585 486.723 45.585C485.223 45.585 484.233 45.345 483.753 44.865C483.273 44.385 483.033 43.395 483.033 41.895C483.033 40.395 483.273 39.42 483.753 38.97C484.233 38.49 485.223 38.25 486.723 38.25C488.223 38.25 489.198 38.49 489.648 38.97Z" fill="white"/>
</svg>
