<svg width="1134" height="539" viewBox="0 0 1134 539" fill="none" xmlns="http://www.w3.org/2000/svg">
<rect x="1.5" y="1.5" width="1131" height="536" rx="13.5" fill="#4D869C" stroke="white" stroke-width="3"/>
<path d="M150.395 118.2L145.045 128.7V136H141.595V128.7L136.245 118.2H140.02L143.345 125.375L146.62 118.2H150.395ZM160.027 129.55V128.25C160.027 127.017 159.844 126.075 159.477 125.425C159.127 124.775 158.385 124.45 157.252 124.45C155.419 124.45 154.502 125.683 154.502 128.15V129.45C154.502 132.1 155.419 133.425 157.252 133.425C158.435 133.425 159.21 132.983 159.577 132.1C159.877 131.4 160.027 130.55 160.027 129.55ZM163.277 128.8C163.277 131.883 162.694 133.95 161.527 135C160.544 135.9 159.119 136.35 157.252 136.35C154.869 136.35 153.26 135.65 152.427 134.25C151.644 132.967 151.252 131.15 151.252 128.8C151.252 126.6 151.644 124.875 152.427 123.625C153.294 122.225 154.869 121.525 157.152 121.525C159.452 121.525 161.044 122.142 161.927 123.375C162.827 124.592 163.277 126.4 163.277 128.8ZM176.551 136H174.126L173.376 134.3L169.376 136.15C168.26 136.15 167.285 135.742 166.451 134.925C165.635 134.092 165.226 132.883 165.226 131.3V121.725H168.476V130.6C168.476 132.183 169.11 132.975 170.376 132.975L173.301 131.4V121.725H176.551V136ZM195.843 136H193.668L192.668 134.275L189.193 136.15C187.26 136.15 185.96 135.45 185.293 134.05C184.96 133.367 184.726 132.633 184.593 131.85C184.476 131.05 184.418 130.225 184.418 129.375C184.418 128.508 184.426 127.875 184.443 127.475C184.46 127.058 184.501 126.583 184.568 126.05C184.635 125.5 184.726 125.042 184.843 124.675C184.976 124.308 185.16 123.933 185.393 123.55C185.626 123.15 185.91 122.833 186.243 122.6C186.993 122.083 187.968 121.825 189.168 121.825H192.593L195.843 121.625V136ZM192.593 131.45V124.75H190.118C189.201 124.75 188.56 125.1 188.193 125.8C187.843 126.5 187.668 127.55 187.668 128.95C187.668 130.333 187.835 131.308 188.168 131.875C188.518 132.442 189.168 132.725 190.118 132.725L192.593 131.45ZM206.947 121.775L206.047 124.975C205.797 124.875 205.514 124.825 205.197 124.825C204.364 124.825 203.339 125.183 202.122 125.9V136H198.872V121.725H201.297L202.047 122.975L205.497 121.55C205.664 121.533 205.889 121.525 206.172 121.525C206.456 121.525 206.714 121.608 206.947 121.775ZM219.814 129.625H211.489C211.489 130.925 211.689 131.875 212.089 132.475C212.505 133.075 213.33 133.375 214.564 133.375C215.364 133.375 215.955 133.125 216.339 132.625C216.722 132.108 216.914 131.617 216.914 131.15H219.839C219.839 132.933 219.355 134.242 218.389 135.075C217.439 135.908 216.172 136.325 214.589 136.325C213.022 136.325 211.805 136.1 210.939 135.65C209.155 134.733 208.264 132.3 208.264 128.35C208.264 126 208.772 124.283 209.789 123.2C210.805 122.1 212.355 121.55 214.439 121.55C218.055 121.55 219.864 123.558 219.864 127.575C219.864 128.008 219.847 128.692 219.814 129.625ZM211.564 127.4H216.914C216.914 126.3 216.705 125.5 216.289 125C215.872 124.5 215.23 124.25 214.364 124.25C213.514 124.25 212.83 124.508 212.314 125.025C211.814 125.525 211.564 126.317 211.564 127.4ZM239.645 136H236.395V127.05C236.395 125.517 235.795 124.75 234.595 124.75L231.495 125.975V136H228.245V117.2H231.495V123.425L235.62 121.575C237.087 121.575 238.12 121.992 238.72 122.825C239.337 123.658 239.645 124.825 239.645 126.325V136ZM253.554 129.625H245.229C245.229 130.925 245.429 131.875 245.829 132.475C246.245 133.075 247.07 133.375 248.304 133.375C249.104 133.375 249.695 133.125 250.079 132.625C250.462 132.108 250.654 131.617 250.654 131.15H253.579C253.579 132.933 253.095 134.242 252.129 135.075C251.179 135.908 249.912 136.325 248.329 136.325C246.762 136.325 245.545 136.1 244.679 135.65C242.895 134.733 242.004 132.3 242.004 128.35C242.004 126 242.512 124.283 243.529 123.2C244.545 122.1 246.095 121.55 248.179 121.55C251.795 121.55 253.604 123.558 253.604 127.575C253.604 128.008 253.587 128.692 253.554 129.625ZM245.304 127.4H250.654C250.654 126.3 250.445 125.5 250.029 125C249.612 124.5 248.97 124.25 248.104 124.25C247.254 124.25 246.57 124.508 246.054 125.025C245.554 125.525 245.304 126.317 245.304 127.4ZM264.125 121.775L263.225 124.975C262.975 124.875 262.692 124.825 262.375 124.825C261.542 124.825 260.517 125.183 259.3 125.9V136H256.05V121.725H258.475L259.225 122.975L262.675 121.55C262.842 121.533 263.067 121.525 263.35 121.525C263.633 121.525 263.892 121.608 264.125 121.775ZM276.991 129.625H268.666C268.666 130.925 268.866 131.875 269.266 132.475C269.683 133.075 270.508 133.375 271.741 133.375C272.541 133.375 273.133 133.125 273.516 132.625C273.9 132.108 274.091 131.617 274.091 131.15H277.016C277.016 132.933 276.533 134.242 275.566 135.075C274.616 135.908 273.35 136.325 271.766 136.325C270.2 136.325 268.983 136.1 268.116 135.65C266.333 134.733 265.441 132.3 265.441 128.35C265.441 126 265.95 124.283 266.966 123.2C267.983 122.1 269.533 121.55 271.616 121.55C275.233 121.55 277.041 123.558 277.041 127.575C277.041 128.008 277.025 128.692 276.991 129.625ZM268.741 127.4H274.091C274.091 126.3 273.883 125.5 273.466 125C273.05 124.5 272.408 124.25 271.541 124.25C270.691 124.25 270.008 124.508 269.491 125.025C268.991 125.525 268.741 126.317 268.741 127.4ZM284.988 118.2L284.238 129C284.171 129.467 284.004 129.833 283.738 130.1C283.488 130.35 283.204 130.475 282.888 130.475C282.571 130.475 282.288 130.342 282.038 130.075C281.804 129.808 281.688 129.45 281.688 129L280.963 118.2H284.988ZM284.638 132.65C284.904 132.9 285.038 133.442 285.038 134.275C285.038 135.108 284.904 135.658 284.638 135.925C284.388 136.192 283.846 136.325 283.013 136.325C282.179 136.325 281.629 136.192 281.363 135.925C281.096 135.658 280.963 135.108 280.963 134.275C280.963 133.442 281.096 132.9 281.363 132.65C281.629 132.383 282.179 132.25 283.013 132.25C283.846 132.25 284.388 132.383 284.638 132.65Z" fill="white"/>
<circle cx="206.5" cy="176.5" r="18" stroke="white" stroke-width="3"/>
<circle cx="206.5" cy="176.5" r="10" fill="#FF0000" stroke="white" stroke-width="3"/>
<line x1="224" y1="175.5" x2="537" y2="175.5" stroke="white" stroke-width="3"/>
<circle cx="932.5" cy="96.5" r="18" stroke="white" stroke-width="3"/>
<circle cx="509.5" cy="476.5" r="18" stroke="white" stroke-width="3"/>
<line x1="535.5" y1="175" x2="535.5" y2="96" stroke="white" stroke-width="3"/>
<line x1="534" y1="95.5" x2="616" y2="95.5" stroke="white" stroke-width="3"/>
<line x1="607.061" y1="86.9393" x2="617.061" y2="96.9393" stroke="white" stroke-width="3"/>
<line y1="-1.5" x2="14.1421" y2="-1.5" transform="matrix(-0.707107 0.707107 0.707107 0.707107 832 470)" stroke="white" stroke-width="3"/>
<line y1="-1.5" x2="14.1421" y2="-1.5" transform="matrix(-0.707107 0.707107 0.707107 0.707107 371 469)" stroke="white" stroke-width="3"/>
<line x1="607.939" y1="103.939" x2="616.939" y2="94.9393" stroke="white" stroke-width="3"/>
<line y1="-1.5" x2="12.7279" y2="-1.5" transform="matrix(-0.707107 -0.707107 -0.707107 0.707107 829 487)" stroke="white" stroke-width="3"/>
<line y1="-1.5" x2="12.7279" y2="-1.5" transform="matrix(-0.707107 -0.707107 -0.707107 0.707107 368 486)" stroke="white" stroke-width="3"/>
<rect x="622" y="77" width="282" height="35" fill="white"/>
<rect x="534" y="459" width="282" height="35" fill="white"/>
<rect x="75" y="443" width="282" height="68" fill="white"/>
<line x1="950" y1="95.5" x2="1087" y2="95.5" stroke="white" stroke-width="3"/>
<line x1="1086.5" y1="95" x2="1086.5" y2="398" stroke="white" stroke-width="3"/>
<line x1="1088" y1="397.5" x2="913" y2="397.5" stroke="white" stroke-width="3"/>
<line x1="912.5" y1="396" x2="912.5" y2="479" stroke="white" stroke-width="3"/>
<line x1="913" y1="477.5" x2="822" y2="477.5" stroke="white" stroke-width="3"/>
<line x1="491" y1="476.5" x2="363" y2="476.5" stroke="white" stroke-width="3"/>
</svg>
