<svg width="1134" height="570" viewBox="0 0 1134 570" fill="none" xmlns="http://www.w3.org/2000/svg">
<rect x="1.5" y="32.5" width="1131" height="536" rx="13.5" fill="#4D869C" stroke="white" stroke-width="3"/>
<path d="M153.395 244.2L148.045 254.7V262H144.595V254.7L139.245 244.2H143.02L146.345 251.375L149.62 244.2H153.395ZM163.027 255.55V254.25C163.027 253.017 162.844 252.075 162.477 251.425C162.127 250.775 161.385 250.45 160.252 250.45C158.419 250.45 157.502 251.683 157.502 254.15V255.45C157.502 258.1 158.419 259.425 160.252 259.425C161.435 259.425 162.21 258.983 162.577 258.1C162.877 257.4 163.027 256.55 163.027 255.55ZM166.277 254.8C166.277 257.883 165.694 259.95 164.527 261C163.544 261.9 162.119 262.35 160.252 262.35C157.869 262.35 156.26 261.65 155.427 260.25C154.644 258.967 154.252 257.15 154.252 254.8C154.252 252.6 154.644 250.875 155.427 249.625C156.294 248.225 157.869 247.525 160.152 247.525C162.452 247.525 164.044 248.142 164.927 249.375C165.827 250.592 166.277 252.4 166.277 254.8ZM179.551 262H177.126L176.376 260.3L172.376 262.15C171.26 262.15 170.285 261.742 169.451 260.925C168.635 260.092 168.226 258.883 168.226 257.3V247.725H171.476V256.6C171.476 258.183 172.11 258.975 173.376 258.975L176.301 257.4V247.725H179.551V262ZM198.843 262H196.668L195.668 260.275L192.193 262.15C190.26 262.15 188.96 261.45 188.293 260.05C187.96 259.367 187.726 258.633 187.593 257.85C187.476 257.05 187.418 256.225 187.418 255.375C187.418 254.508 187.426 253.875 187.443 253.475C187.46 253.058 187.501 252.583 187.568 252.05C187.635 251.5 187.726 251.042 187.843 250.675C187.976 250.308 188.16 249.933 188.393 249.55C188.626 249.15 188.91 248.833 189.243 248.6C189.993 248.083 190.968 247.825 192.168 247.825H195.593L198.843 247.625V262ZM195.593 257.45V250.75H193.118C192.201 250.75 191.56 251.1 191.193 251.8C190.843 252.5 190.668 253.55 190.668 254.95C190.668 256.333 190.835 257.308 191.168 257.875C191.518 258.442 192.168 258.725 193.118 258.725L195.593 257.45ZM209.947 247.775L209.047 250.975C208.797 250.875 208.514 250.825 208.197 250.825C207.364 250.825 206.339 251.183 205.122 251.9V262H201.872V247.725H204.297L205.047 248.975L208.497 247.55C208.664 247.533 208.889 247.525 209.172 247.525C209.456 247.525 209.714 247.608 209.947 247.775ZM222.814 255.625H214.489C214.489 256.925 214.689 257.875 215.089 258.475C215.505 259.075 216.33 259.375 217.564 259.375C218.364 259.375 218.955 259.125 219.339 258.625C219.722 258.108 219.914 257.617 219.914 257.15H222.839C222.839 258.933 222.355 260.242 221.389 261.075C220.439 261.908 219.172 262.325 217.589 262.325C216.022 262.325 214.805 262.1 213.939 261.65C212.155 260.733 211.264 258.3 211.264 254.35C211.264 252 211.772 250.283 212.789 249.2C213.805 248.1 215.355 247.55 217.439 247.55C221.055 247.55 222.864 249.558 222.864 253.575C222.864 254.008 222.847 254.692 222.814 255.625ZM214.564 253.4H219.914C219.914 252.3 219.705 251.5 219.289 251C218.872 250.5 218.23 250.25 217.364 250.25C216.514 250.25 215.83 250.508 215.314 251.025C214.814 251.525 214.564 252.317 214.564 253.4ZM242.645 262H239.395V253.05C239.395 251.517 238.795 250.75 237.595 250.75L234.495 251.975V262H231.245V243.2H234.495V249.425L238.62 247.575C240.087 247.575 241.12 247.992 241.72 248.825C242.337 249.658 242.645 250.825 242.645 252.325V262ZM256.554 255.625H248.229C248.229 256.925 248.429 257.875 248.829 258.475C249.245 259.075 250.07 259.375 251.304 259.375C252.104 259.375 252.695 259.125 253.079 258.625C253.462 258.108 253.654 257.617 253.654 257.15H256.579C256.579 258.933 256.095 260.242 255.129 261.075C254.179 261.908 252.912 262.325 251.329 262.325C249.762 262.325 248.545 262.1 247.679 261.65C245.895 260.733 245.004 258.3 245.004 254.35C245.004 252 245.512 250.283 246.529 249.2C247.545 248.1 249.095 247.55 251.179 247.55C254.795 247.55 256.604 249.558 256.604 253.575C256.604 254.008 256.587 254.692 256.554 255.625ZM248.304 253.4H253.654C253.654 252.3 253.445 251.5 253.029 251C252.612 250.5 251.97 250.25 251.104 250.25C250.254 250.25 249.57 250.508 249.054 251.025C248.554 251.525 248.304 252.317 248.304 253.4ZM267.125 247.775L266.225 250.975C265.975 250.875 265.692 250.825 265.375 250.825C264.542 250.825 263.517 251.183 262.3 251.9V262H259.05V247.725H261.475L262.225 248.975L265.675 247.55C265.842 247.533 266.067 247.525 266.35 247.525C266.633 247.525 266.892 247.608 267.125 247.775ZM279.991 255.625H271.666C271.666 256.925 271.866 257.875 272.266 258.475C272.683 259.075 273.508 259.375 274.741 259.375C275.541 259.375 276.133 259.125 276.516 258.625C276.9 258.108 277.091 257.617 277.091 257.15H280.016C280.016 258.933 279.533 260.242 278.566 261.075C277.616 261.908 276.35 262.325 274.766 262.325C273.2 262.325 271.983 262.1 271.116 261.65C269.333 260.733 268.441 258.3 268.441 254.35C268.441 252 268.95 250.283 269.966 249.2C270.983 248.1 272.533 247.55 274.616 247.55C278.233 247.55 280.041 249.558 280.041 253.575C280.041 254.008 280.025 254.692 279.991 255.625ZM271.741 253.4H277.091C277.091 252.3 276.883 251.5 276.466 251C276.05 250.5 275.408 250.25 274.541 250.25C273.691 250.25 273.008 250.508 272.491 251.025C271.991 251.525 271.741 252.317 271.741 253.4ZM287.988 244.2L287.238 255C287.171 255.467 287.004 255.833 286.738 256.1C286.488 256.35 286.204 256.475 285.888 256.475C285.571 256.475 285.288 256.342 285.038 256.075C284.804 255.808 284.688 255.45 284.688 255L283.963 244.2H287.988ZM287.638 258.65C287.904 258.9 288.038 259.442 288.038 260.275C288.038 261.108 287.904 261.658 287.638 261.925C287.388 262.192 286.846 262.325 286.013 262.325C285.179 262.325 284.629 262.192 284.363 261.925C284.096 261.658 283.963 261.108 283.963 260.275C283.963 259.442 284.096 258.9 284.363 258.65C284.629 258.383 285.179 258.25 286.013 258.25C286.846 258.25 287.388 258.383 287.638 258.65Z" fill="white"/>
<circle cx="218.5" cy="301.5" r="18" stroke="white" stroke-width="3"/>
<circle cx="218.5" cy="301.5" r="10" fill="#FF0000" stroke="white" stroke-width="3"/>
<line x1="236" y1="300.5" x2="549" y2="300.5" stroke="white" stroke-width="3"/>
<line x1="542" y1="300.5" x2="624" y2="300.5" stroke="white" stroke-width="3"/>
<line x1="613.061" y1="290.939" x2="623.061" y2="300.939" stroke="white" stroke-width="3"/>
<line x1="613.939" y1="309.939" x2="622.939" y2="300.939" stroke="white" stroke-width="3"/>
<rect x="672" y="262" width="282" height="68" fill="white"/>
<path d="M709.189 241.76L704.909 250.16V256H702.149V250.16L697.869 241.76H700.889L703.549 247.5L706.169 241.76H709.189ZM716.894 250.84V249.8C716.894 248.813 716.747 248.06 716.454 247.54C716.174 247.02 715.581 246.76 714.674 246.76C713.207 246.76 712.474 247.747 712.474 249.72V250.76C712.474 252.88 713.207 253.94 714.674 253.94C715.621 253.94 716.241 253.587 716.534 252.88C716.774 252.32 716.894 251.64 716.894 250.84ZM719.494 250.24C719.494 252.707 719.027 254.36 718.094 255.2C717.307 255.92 716.167 256.28 714.674 256.28C712.767 256.28 711.481 255.72 710.814 254.6C710.187 253.573 709.874 252.12 709.874 250.24C709.874 248.48 710.187 247.1 710.814 246.1C711.507 244.98 712.767 244.42 714.594 244.42C716.434 244.42 717.707 244.913 718.414 245.9C719.134 246.873 719.494 248.32 719.494 250.24ZM730.113 256H728.173L727.573 254.64L724.373 256.12C723.48 256.12 722.7 255.793 722.033 255.14C721.38 254.473 721.053 253.507 721.053 252.24V244.58H723.653V251.68C723.653 252.947 724.16 253.58 725.173 253.58L727.513 252.32V244.58H730.113V256ZM739.098 244.62L738.378 247.18C738.178 247.1 737.951 247.06 737.698 247.06C737.031 247.06 736.211 247.347 735.238 247.92V256H732.638V244.58H734.578L735.178 245.58L737.938 244.44C738.071 244.427 738.251 244.42 738.478 244.42C738.705 244.42 738.911 244.487 739.098 244.62ZM750.32 247H748.2V256H745.6V247H744.52V245.02H745.6V243.92C745.6 243.107 745.86 242.407 746.38 241.82C746.9 241.233 747.653 240.94 748.64 240.94H750.32V243.14H749.1C748.5 243.14 748.2 243.453 748.2 244.08V245.02H750.32V247ZM753.635 240.22C754.262 240.22 754.669 240.32 754.855 240.52C755.042 240.707 755.135 241.113 755.135 241.74C755.135 242.353 755.035 242.76 754.835 242.96C754.649 243.147 754.242 243.24 753.615 243.24C753.002 243.24 752.595 243.14 752.395 242.94C752.209 242.74 752.115 242.333 752.115 241.72C752.115 241.107 752.209 240.707 752.395 240.52C752.595 240.32 753.009 240.22 753.635 240.22ZM754.915 256H752.315V245H754.915V256ZM766.683 256H764.083V248.7C764.083 248.047 763.95 247.6 763.683 247.36C763.417 247.12 763.043 247 762.563 247L760.223 247.98V256H757.623V244.58H759.563L760.163 245.94L763.363 244.46C764.257 244.46 765.03 244.793 765.683 245.46C766.35 246.113 766.683 247.073 766.683 248.34V256ZM777.148 256H775.408L774.608 254.62L771.828 256.12C770.281 256.12 769.241 255.56 768.708 254.44C768.441 253.893 768.255 253.307 768.148 252.68C768.055 252.04 768.008 251.38 768.008 250.7C768.008 250.007 768.015 249.5 768.028 249.18C768.041 248.847 768.075 248.467 768.128 248.04C768.181 247.6 768.255 247.233 768.348 246.94C768.455 246.647 768.601 246.347 768.788 246.04C768.975 245.72 769.201 245.467 769.468 245.28C770.068 244.867 770.848 244.66 771.808 244.66H774.548L777.148 244.5V256ZM774.548 252.36V247H772.568C771.835 247 771.321 247.28 771.028 247.84C770.748 248.4 770.608 249.24 770.608 250.36C770.608 251.467 770.741 252.247 771.008 252.7C771.288 253.153 771.808 253.38 772.568 253.38L774.548 252.36ZM782.472 256L779.872 256.02V240.96H782.472V256ZM798.213 256H796.473L795.673 254.62L792.893 256.12C791.346 256.12 790.306 255.56 789.773 254.44C789.506 253.893 789.32 253.307 789.213 252.68C789.12 252.04 789.073 251.38 789.073 250.7C789.073 250.007 789.08 249.5 789.093 249.18C789.106 248.847 789.14 248.467 789.193 248.04C789.246 247.6 789.32 247.233 789.413 246.94C789.52 246.647 789.666 246.347 789.853 246.04C790.04 245.72 790.266 245.467 790.533 245.28C791.133 244.867 791.913 244.66 792.873 244.66H795.613V240.96H798.213V256ZM795.613 252.36V247H793.633C792.9 247 792.386 247.28 792.093 247.84C791.813 248.4 791.673 249.24 791.673 250.36C791.673 251.467 791.806 252.247 792.073 252.7C792.353 253.153 792.873 253.38 793.633 253.38L795.613 252.36ZM809.684 250.9H803.024C803.024 251.94 803.184 252.7 803.504 253.18C803.837 253.66 804.497 253.9 805.484 253.9C806.124 253.9 806.597 253.7 806.904 253.3C807.211 252.887 807.364 252.493 807.364 252.12H809.704C809.704 253.547 809.317 254.593 808.544 255.26C807.784 255.927 806.771 256.26 805.504 256.26C804.251 256.26 803.277 256.08 802.584 255.72C801.157 254.987 800.444 253.04 800.444 249.88C800.444 248 800.851 246.627 801.664 245.76C802.477 244.88 803.717 244.44 805.384 244.44C808.277 244.44 809.724 246.047 809.724 249.26C809.724 249.607 809.711 250.153 809.684 250.9ZM803.084 249.12H807.364C807.364 248.24 807.197 247.6 806.864 247.2C806.531 246.8 806.017 246.6 805.324 246.6C804.644 246.6 804.097 246.807 803.684 247.22C803.284 247.62 803.084 248.253 803.084 249.12ZM819.921 252.84V253.14C819.841 254.14 819.414 254.893 818.641 255.4C817.881 255.907 816.928 256.16 815.781 256.16C814.088 256.16 812.901 255.853 812.221 255.24C811.594 254.68 811.281 253.853 811.281 252.76V252.52H813.641C813.641 253.133 813.801 253.553 814.121 253.78C814.441 254.007 814.994 254.12 815.781 254.12C816.848 254.12 817.381 253.733 817.381 252.96C817.381 252.32 817.194 251.893 816.821 251.68C816.648 251.573 816.428 251.493 816.161 251.44L814.141 251.1C812.381 250.82 811.501 249.72 811.501 247.8C811.501 246.733 811.888 245.907 812.661 245.32C813.448 244.72 814.441 244.42 815.641 244.42C818.374 244.42 819.741 245.6 819.741 247.96V248.22H817.481C817.454 247.593 817.288 247.167 816.981 246.94C816.674 246.713 816.241 246.6 815.681 246.6C815.134 246.6 814.721 246.713 814.441 246.94C814.161 247.153 814.021 247.393 814.021 247.66C814.021 248.42 814.328 248.853 814.941 248.96L817.361 249.4C819.068 249.72 819.921 250.867 819.921 252.84ZM826.981 256H825.361C824.374 256 823.621 255.707 823.101 255.12C822.594 254.533 822.341 253.833 822.341 253.02V247.02H821.241V245.04H822.341V242.8H824.941V245.04H826.781V247.02H824.941V252.86C824.941 253.487 825.241 253.8 825.841 253.8H826.981V256ZM830.452 240.22C831.079 240.22 831.485 240.32 831.672 240.52C831.859 240.707 831.952 241.113 831.952 241.74C831.952 242.353 831.852 242.76 831.652 242.96C831.465 243.147 831.059 243.24 830.432 243.24C829.819 243.24 829.412 243.14 829.212 242.94C829.025 242.74 828.932 242.333 828.932 241.72C828.932 241.107 829.025 240.707 829.212 240.52C829.412 240.32 829.825 240.22 830.452 240.22ZM831.732 256H829.132V245H831.732V256ZM843.5 256H840.9V248.7C840.9 248.047 840.766 247.6 840.5 247.36C840.233 247.12 839.86 247 839.38 247L837.04 247.98V256H834.44V244.58H836.38L836.98 245.94L840.18 244.46C841.073 244.46 841.846 244.793 842.5 245.46C843.166 246.113 843.5 247.073 843.5 248.34V256ZM853.965 256H852.225L851.425 254.62L848.645 256.12C847.098 256.12 846.058 255.56 845.525 254.44C845.258 253.893 845.071 253.307 844.965 252.68C844.871 252.04 844.825 251.38 844.825 250.7C844.825 250.007 844.831 249.5 844.845 249.18C844.858 248.847 844.891 248.467 844.945 248.04C844.998 247.6 845.071 247.233 845.165 246.94C845.271 246.647 845.418 246.347 845.605 246.04C845.791 245.72 846.018 245.467 846.285 245.28C846.885 244.867 847.665 244.66 848.625 244.66H851.365L853.965 244.5V256ZM851.365 252.36V247H849.385C848.651 247 848.138 247.28 847.845 247.84C847.565 248.4 847.425 249.24 847.425 250.36C847.425 251.467 847.558 252.247 847.825 252.7C848.105 253.153 848.625 253.38 849.385 253.38L851.365 252.36ZM861.668 256H860.048C859.061 256 858.308 255.707 857.788 255.12C857.281 254.533 857.028 253.833 857.028 253.02V247.02H855.928V245.04H857.028V242.8H859.628V245.04H861.468V247.02H859.628V252.86C859.628 253.487 859.928 253.8 860.528 253.8H861.668V256ZM865.139 240.22C865.766 240.22 866.173 240.32 866.359 240.52C866.546 240.707 866.639 241.113 866.639 241.74C866.639 242.353 866.539 242.76 866.339 242.96C866.153 243.147 865.746 243.24 865.119 243.24C864.506 243.24 864.099 243.14 863.899 242.94C863.713 242.74 863.619 242.333 863.619 241.72C863.619 241.107 863.713 240.707 863.899 240.52C864.099 240.32 864.513 240.22 865.139 240.22ZM866.419 256H863.819V245H866.419V256ZM875.507 250.84V249.8C875.507 248.813 875.361 248.06 875.067 247.54C874.787 247.02 874.194 246.76 873.287 246.76C871.821 246.76 871.087 247.747 871.087 249.72V250.76C871.087 252.88 871.821 253.94 873.287 253.94C874.234 253.94 874.854 253.587 875.147 252.88C875.387 252.32 875.507 251.64 875.507 250.84ZM878.107 250.24C878.107 252.707 877.641 254.36 876.707 255.2C875.921 255.92 874.781 256.28 873.287 256.28C871.381 256.28 870.094 255.72 869.427 254.6C868.801 253.573 868.487 252.12 868.487 250.24C868.487 248.48 868.801 247.1 869.427 246.1C870.121 244.98 871.381 244.42 873.207 244.42C875.047 244.42 876.321 244.913 877.027 245.9C877.747 246.873 878.107 248.32 878.107 250.24ZM889.047 256H886.447V248.7C886.447 248.047 886.313 247.6 886.047 247.36C885.78 247.12 885.407 247 884.927 247L882.587 247.98V256H879.987V244.58H881.927L882.527 245.94L885.727 244.46C886.62 244.46 887.393 244.793 888.047 245.46C888.713 246.113 889.047 247.073 889.047 248.34V256Z" fill="white"/>
<path d="M742.605 292C743.432 292.813 743.845 294.013 743.845 295.6C743.845 297.187 743.432 298.393 742.605 299.22C741.792 300.033 740.638 300.44 739.145 300.44H736.405V305H733.625V290.76H739.145C740.638 290.76 741.792 291.173 742.605 292ZM741.065 295.6C741.065 294.027 740.378 293.24 739.005 293.24H736.405V297.94H739.005C739.672 297.94 740.178 297.76 740.525 297.4C740.885 297.04 741.065 296.44 741.065 295.6ZM748.483 305L745.883 305.02V289.96H748.483V305ZM759.136 305H757.396L756.596 303.62L753.816 305.12C752.27 305.12 751.23 304.56 750.696 303.44C750.43 302.893 750.243 302.307 750.136 301.68C750.043 301.04 749.996 300.38 749.996 299.7C749.996 299.007 750.003 298.5 750.016 298.18C750.03 297.847 750.063 297.467 750.116 297.04C750.17 296.6 750.243 296.233 750.336 295.94C750.443 295.647 750.59 295.347 750.776 295.04C750.963 294.72 751.19 294.467 751.456 294.28C752.056 293.867 752.836 293.66 753.796 293.66H756.536L759.136 293.5V305ZM756.536 301.36V296H754.556C753.823 296 753.31 296.28 753.016 296.84C752.736 297.4 752.596 298.24 752.596 299.36C752.596 300.467 752.73 301.247 752.996 301.7C753.276 302.153 753.796 302.38 754.556 302.38L756.536 301.36ZM767.8 300.82L770.16 300.8C770.147 300.907 770.133 301.1 770.12 301.38C770.107 301.66 770.093 301.853 770.08 301.96C770.08 302.053 770.067 302.207 770.04 302.42C770.013 302.633 769.98 302.793 769.94 302.9C769.913 302.993 769.873 303.12 769.82 303.28C769.58 303.973 768.927 304.52 767.86 304.92C767.18 305.16 766.467 305.28 765.72 305.28C764.987 305.28 764.32 305.16 763.72 304.92C763.12 304.68 762.647 304.373 762.3 304C761.513 303.173 761.12 301.627 761.12 299.36C761.12 297.08 761.513 295.527 762.3 294.7C762.647 294.327 763.12 294.02 763.72 293.78C764.32 293.54 764.987 293.42 765.72 293.42C767.16 293.42 768.253 293.78 769 294.5C769.747 295.22 770.12 296.22 770.12 297.5H767.76C767.76 296.913 767.613 296.48 767.32 296.2C767.027 295.907 766.48 295.76 765.68 295.76C764.893 295.76 764.367 296.007 764.1 296.5C763.847 296.993 763.72 297.733 763.72 298.72V299.76C763.72 301.347 764.027 302.32 764.64 302.68C764.92 302.853 765.287 302.94 765.74 302.94C766.193 302.94 766.56 302.9 766.84 302.82C767.133 302.727 767.34 302.573 767.46 302.36C767.593 302.147 767.68 301.94 767.72 301.74C767.76 301.527 767.787 301.22 767.8 300.82ZM780.891 299.9H774.231C774.231 300.94 774.391 301.7 774.711 302.18C775.044 302.66 775.704 302.9 776.691 302.9C777.331 302.9 777.804 302.7 778.111 302.3C778.418 301.887 778.571 301.493 778.571 301.12H780.911C780.911 302.547 780.524 303.593 779.751 304.26C778.991 304.927 777.978 305.26 776.711 305.26C775.458 305.26 774.484 305.08 773.791 304.72C772.364 303.987 771.651 302.04 771.651 298.88C771.651 297 772.058 295.627 772.871 294.76C773.684 293.88 774.924 293.44 776.591 293.44C779.484 293.44 780.931 295.047 780.931 298.26C780.931 298.607 780.918 299.153 780.891 299.9ZM774.291 298.12H778.571C778.571 297.24 778.404 296.6 778.071 296.2C777.738 295.8 777.224 295.6 776.531 295.6C775.851 295.6 775.304 295.807 774.891 296.22C774.491 296.62 774.291 297.253 774.291 298.12ZM796.237 305H794.497L793.697 303.62L790.917 305.12C789.37 305.12 788.33 304.56 787.797 303.44C787.53 302.893 787.343 302.307 787.237 301.68C787.143 301.04 787.097 300.38 787.097 299.7C787.097 299.007 787.103 298.5 787.117 298.18C787.13 297.847 787.163 297.467 787.217 297.04C787.27 296.6 787.343 296.233 787.437 295.94C787.543 295.647 787.69 295.347 787.877 295.04C788.063 294.72 788.29 294.467 788.557 294.28C789.157 293.867 789.937 293.66 790.897 293.66H793.637V289.96H796.237V305ZM793.637 301.36V296H791.657C790.923 296 790.41 296.28 790.117 296.84C789.837 297.4 789.697 298.24 789.697 299.36C789.697 300.467 789.83 301.247 790.097 301.7C790.377 302.153 790.897 302.38 791.657 302.38L793.637 301.36ZM807.708 299.9H801.048C801.048 300.94 801.208 301.7 801.528 302.18C801.861 302.66 802.521 302.9 803.508 302.9C804.148 302.9 804.621 302.7 804.928 302.3C805.234 301.887 805.388 301.493 805.388 301.12H807.728C807.728 302.547 807.341 303.593 806.568 304.26C805.808 304.927 804.794 305.26 803.528 305.26C802.274 305.26 801.301 305.08 800.608 304.72C799.181 303.987 798.468 302.04 798.468 298.88C798.468 297 798.874 295.627 799.688 294.76C800.501 293.88 801.741 293.44 803.408 293.44C806.301 293.44 807.748 295.047 807.748 298.26C807.748 298.607 807.734 299.153 807.708 299.9ZM801.108 298.12H805.388C805.388 297.24 805.221 296.6 804.888 296.2C804.554 295.8 804.041 295.6 803.348 295.6C802.668 295.6 802.121 295.807 801.708 296.22C801.308 296.62 801.108 297.253 801.108 298.12ZM817.945 301.84V302.14C817.865 303.14 817.438 303.893 816.665 304.4C815.905 304.907 814.951 305.16 813.805 305.16C812.111 305.16 810.925 304.853 810.245 304.24C809.618 303.68 809.305 302.853 809.305 301.76V301.52H811.665C811.665 302.133 811.825 302.553 812.145 302.78C812.465 303.007 813.018 303.12 813.805 303.12C814.871 303.12 815.405 302.733 815.405 301.96C815.405 301.32 815.218 300.893 814.845 300.68C814.671 300.573 814.451 300.493 814.185 300.44L812.165 300.1C810.405 299.82 809.525 298.72 809.525 296.8C809.525 295.733 809.911 294.907 810.685 294.32C811.471 293.72 812.465 293.42 813.665 293.42C816.398 293.42 817.765 294.6 817.765 296.96V297.22H815.505C815.478 296.593 815.311 296.167 815.005 295.94C814.698 295.713 814.265 295.6 813.705 295.6C813.158 295.6 812.745 295.713 812.465 295.94C812.185 296.153 812.045 296.393 812.045 296.66C812.045 297.42 812.351 297.853 812.965 297.96L815.385 298.4C817.091 298.72 817.945 299.867 817.945 301.84ZM839.493 305H836.893V297.9C836.893 297.193 836.806 296.7 836.633 296.42C836.473 296.14 836.186 296 835.773 296L833.433 296.98V305H830.833V297.9C830.833 296.633 830.393 296 829.513 296L827.373 296.98V305H824.773V293.58H826.713L827.313 294.94L830.313 293.46C831.353 293.46 832.139 293.967 832.673 294.98L836.393 293.46C837.433 293.46 838.206 293.813 838.713 294.52C839.233 295.213 839.493 296.153 839.493 297.34V305ZM850.152 305H848.412L847.612 303.62L844.832 305.12C843.285 305.12 842.245 304.56 841.712 303.44C841.445 302.893 841.259 302.307 841.152 301.68C841.059 301.04 841.012 300.38 841.012 299.7C841.012 299.007 841.019 298.5 841.032 298.18C841.045 297.847 841.079 297.467 841.132 297.04C841.185 296.6 841.259 296.233 841.352 295.94C841.459 295.647 841.605 295.347 841.792 295.04C841.979 294.72 842.205 294.467 842.472 294.28C843.072 293.867 843.852 293.66 844.812 293.66H847.552L850.152 293.5V305ZM847.552 301.36V296H845.572C844.839 296 844.325 296.28 844.032 296.84C843.752 297.4 843.612 298.24 843.612 299.36C843.612 300.467 843.745 301.247 844.012 301.7C844.292 302.153 844.812 302.38 845.572 302.38L847.552 301.36ZM859.036 293.62L858.316 296.18C858.116 296.1 857.889 296.06 857.636 296.06C856.969 296.06 856.149 296.347 855.176 296.92V305H852.576V293.58H854.516L855.116 294.58L857.876 293.44C858.009 293.427 858.189 293.42 858.416 293.42C858.642 293.42 858.849 293.487 859.036 293.62ZM865.649 305H864.029C863.042 305 862.289 304.707 861.769 304.12C861.262 303.533 861.009 302.833 861.009 302.02V296.02H859.909V294.04H861.009V291.8H863.609V294.04H865.449V296.02H863.609V301.86C863.609 302.487 863.909 302.8 864.509 302.8H865.649V305ZM876.14 293.58L871.8 306.28C871.6 306.853 871.34 307.3 871.02 307.62C870.487 308.153 869.74 308.42 868.78 308.42H867.56V306.08H868.36C868.733 306.08 869.007 306.013 869.18 305.88C869.367 305.76 869.527 305.513 869.66 305.14L869.86 304.58L866.42 293.58H869.16L871.2 301.52L873.4 293.58H876.14ZM883.743 293.62L883.023 296.18C882.823 296.1 882.596 296.06 882.343 296.06C881.676 296.06 880.856 296.347 879.883 296.92V305H877.283V293.58H879.223L879.823 294.58L882.583 293.44C882.716 293.427 882.896 293.42 883.123 293.42C883.349 293.42 883.556 293.487 883.743 293.62ZM893.316 301.84V302.14C893.236 303.14 892.809 303.893 892.036 304.4C891.276 304.907 890.322 305.16 889.176 305.16C887.482 305.16 886.296 304.853 885.616 304.24C884.989 303.68 884.676 302.853 884.676 301.76V301.52H887.036C887.036 302.133 887.196 302.553 887.516 302.78C887.836 303.007 888.389 303.12 889.176 303.12C890.242 303.12 890.776 302.733 890.776 301.96C890.776 301.32 890.589 300.893 890.216 300.68C890.042 300.573 889.822 300.493 889.556 300.44L887.536 300.1C885.776 299.82 884.896 298.72 884.896 296.8C884.896 295.733 885.282 294.907 886.056 294.32C886.842 293.72 887.836 293.42 889.036 293.42C891.769 293.42 893.136 294.6 893.136 296.96V297.22H890.876C890.849 296.593 890.682 296.167 890.376 295.94C890.069 295.713 889.636 295.6 889.076 295.6C888.529 295.6 888.116 295.713 887.836 295.94C887.556 296.153 887.416 296.393 887.416 296.66C887.416 297.42 887.722 297.853 888.336 297.96L890.756 298.4C892.462 298.72 893.316 299.867 893.316 301.84Z" fill="#000138"/>
<path d="M143.685 358.9C143.685 360.22 143.325 361.233 142.605 361.94C141.898 362.647 140.905 363 139.625 363H137.705C136.132 363 135.012 362.727 134.345 362.18C133.692 361.633 133.365 360.687 133.365 359.34V348.76H139.385C140.745 348.76 141.765 349.1 142.445 349.78C143.138 350.46 143.485 351.42 143.485 352.66C143.485 353.38 143.298 353.993 142.925 354.5C142.565 355.007 142.165 355.367 141.725 355.58C143.032 356.193 143.685 357.3 143.685 358.9ZM139.165 354.32C140.192 354.32 140.705 353.807 140.705 352.78C140.705 351.753 140.192 351.24 139.165 351.24H136.145V354.32H139.165ZM140.905 358.76C140.905 358.12 140.792 357.64 140.565 357.32C140.338 356.987 139.932 356.82 139.345 356.82H136.145V359.06C136.145 359.607 136.278 359.987 136.545 360.2C136.825 360.413 137.278 360.52 137.905 360.52H139.345C140.385 360.52 140.905 359.933 140.905 358.76ZM154.889 357.9H148.229C148.229 358.94 148.389 359.7 148.709 360.18C149.042 360.66 149.702 360.9 150.689 360.9C151.329 360.9 151.802 360.7 152.109 360.3C152.416 359.887 152.569 359.493 152.569 359.12H154.909C154.909 360.547 154.522 361.593 153.749 362.26C152.989 362.927 151.976 363.26 150.709 363.26C149.456 363.26 148.482 363.08 147.789 362.72C146.362 361.987 145.649 360.04 145.649 356.88C145.649 355 146.056 353.627 146.869 352.76C147.682 351.88 148.922 351.44 150.589 351.44C153.482 351.44 154.929 353.047 154.929 356.26C154.929 356.607 154.916 357.153 154.889 357.9ZM148.289 356.12H152.569C152.569 355.24 152.402 354.6 152.069 354.2C151.736 353.8 151.222 353.6 150.529 353.6C149.849 353.6 149.302 353.807 148.889 354.22C148.489 354.62 148.289 355.253 148.289 356.12ZM166.146 363H163.546V355.7C163.546 355.047 163.413 354.6 163.146 354.36C162.88 354.12 162.506 354 162.026 354L159.686 354.98V363H157.086V351.58H159.026L159.626 352.94L162.826 351.46C163.72 351.46 164.493 351.793 165.146 352.46C165.813 353.113 166.146 354.073 166.146 355.34V363ZM181.259 363H179.519L178.719 361.62L175.939 363.12C174.393 363.12 173.353 362.56 172.819 361.44C172.553 360.893 172.366 360.307 172.259 359.68C172.166 359.04 172.119 358.38 172.119 357.7C172.119 357.007 172.126 356.5 172.139 356.18C172.153 355.847 172.186 355.467 172.239 355.04C172.293 354.6 172.366 354.233 172.459 353.94C172.566 353.647 172.713 353.347 172.899 353.04C173.086 352.72 173.313 352.467 173.579 352.28C174.179 351.867 174.959 351.66 175.919 351.66H178.659L181.259 351.5V363ZM178.659 359.36V354H176.679C175.946 354 175.433 354.28 175.139 354.84C174.859 355.4 174.719 356.24 174.719 357.36C174.719 358.467 174.853 359.247 175.119 359.7C175.399 360.153 175.919 360.38 176.679 360.38L178.659 359.36ZM193.903 363H190.783L187.783 358.96L186.643 360.58V363H184.043V347.96H186.643V357.46L190.283 352.04H193.223L189.483 357.16L193.903 363ZM204.115 363H201.515V355.7C201.515 355.047 201.382 354.6 201.115 354.36C200.848 354.12 200.475 354 199.995 354L197.655 354.98V363H195.055V351.58H196.995L197.595 352.94L200.795 351.46C201.688 351.46 202.462 351.793 203.115 352.46C203.782 353.113 204.115 354.073 204.115 355.34V363ZM212.9 357.84V356.8C212.9 355.813 212.753 355.06 212.46 354.54C212.18 354.02 211.586 353.76 210.68 353.76C209.213 353.76 208.48 354.747 208.48 356.72V357.76C208.48 359.88 209.213 360.94 210.68 360.94C211.626 360.94 212.246 360.587 212.54 359.88C212.78 359.32 212.9 358.64 212.9 357.84ZM215.5 357.24C215.5 359.707 215.033 361.36 214.1 362.2C213.313 362.92 212.173 363.28 210.68 363.28C208.773 363.28 207.486 362.72 206.82 361.6C206.193 360.573 205.88 359.12 205.88 357.24C205.88 355.48 206.193 354.1 206.82 353.1C207.513 351.98 208.773 351.42 210.6 351.42C212.44 351.42 213.713 351.913 214.42 352.9C215.14 353.873 215.5 355.32 215.5 357.24ZM226.119 363H224.179L223.579 361.64L220.379 363.12C219.486 363.12 218.706 362.793 218.039 362.14C217.386 361.473 217.059 360.507 217.059 359.24V351.58H219.659V358.68C219.659 359.947 220.166 360.58 221.179 360.58L223.519 359.32V351.58H226.119V363ZM237.904 363H235.304V355.7C235.304 355.047 235.171 354.6 234.904 354.36C234.637 354.12 234.264 354 233.784 354L231.444 354.98V363H228.844V351.58H230.784L231.384 352.94L234.584 351.46C235.477 351.46 236.251 351.793 236.904 352.46C237.571 353.113 237.904 354.073 237.904 355.34V363ZM252.997 359.84V360.14C252.917 361.14 252.491 361.893 251.717 362.4C250.957 362.907 250.004 363.16 248.857 363.16C247.164 363.16 245.977 362.853 245.297 362.24C244.671 361.68 244.357 360.853 244.357 359.76V359.52H246.717C246.717 360.133 246.877 360.553 247.197 360.78C247.517 361.007 248.071 361.12 248.857 361.12C249.924 361.12 250.457 360.733 250.457 359.96C250.457 359.32 250.271 358.893 249.897 358.68C249.724 358.573 249.504 358.493 249.237 358.44L247.217 358.1C245.457 357.82 244.577 356.72 244.577 354.8C244.577 353.733 244.964 352.907 245.737 352.32C246.524 351.72 247.517 351.42 248.717 351.42C251.451 351.42 252.817 352.6 252.817 354.96V355.22H250.557C250.531 354.593 250.364 354.167 250.057 353.94C249.751 353.713 249.317 353.6 248.757 353.6C248.211 353.6 247.797 353.713 247.517 353.94C247.237 354.153 247.097 354.393 247.097 354.66C247.097 355.42 247.404 355.853 248.017 355.96L250.437 356.4C252.144 356.72 252.997 357.867 252.997 359.84ZM260.057 363H258.437C257.45 363 256.697 362.707 256.177 362.12C255.67 361.533 255.417 360.833 255.417 360.02V354.02H254.317V352.04H255.417V349.8H258.017V352.04H259.857V354.02H258.017V359.86C258.017 360.487 258.317 360.8 258.917 360.8H260.057V363ZM270.068 363H268.328L267.528 361.62L264.748 363.12C263.201 363.12 262.161 362.56 261.628 361.44C261.361 360.893 261.175 360.307 261.068 359.68C260.975 359.04 260.928 358.38 260.928 357.7C260.928 357.007 260.935 356.5 260.948 356.18C260.961 355.847 260.995 355.467 261.048 355.04C261.101 354.6 261.175 354.233 261.268 353.94C261.375 353.647 261.521 353.347 261.708 353.04C261.895 352.72 262.121 352.467 262.388 352.28C262.988 351.867 263.768 351.66 264.728 351.66H267.468L270.068 351.5V363ZM267.468 359.36V354H265.488C264.755 354 264.241 354.28 263.948 354.84C263.668 355.4 263.528 356.24 263.528 357.36C263.528 358.467 263.661 359.247 263.928 359.7C264.208 360.153 264.728 360.38 265.488 360.38L267.468 359.36ZM277.772 363H276.152C275.165 363 274.412 362.707 273.892 362.12C273.385 361.533 273.132 360.833 273.132 360.02V354.02H272.032V352.04H273.132V349.8H275.732V352.04H277.572V354.02H275.732V359.86C275.732 360.487 276.032 360.8 276.632 360.8H277.772V363ZM281.243 347.22C281.87 347.22 282.276 347.32 282.463 347.52C282.65 347.707 282.743 348.113 282.743 348.74C282.743 349.353 282.643 349.76 282.443 349.96C282.256 350.147 281.85 350.24 281.223 350.24C280.61 350.24 280.203 350.14 280.003 349.94C279.816 349.74 279.723 349.333 279.723 348.72C279.723 348.107 279.816 347.707 280.003 347.52C280.203 347.32 280.616 347.22 281.243 347.22ZM282.523 363H279.923V352H282.523V363ZM291.611 357.84V356.8C291.611 355.813 291.464 355.06 291.171 354.54C290.891 354.02 290.297 353.76 289.391 353.76C287.924 353.76 287.191 354.747 287.191 356.72V357.76C287.191 359.88 287.924 360.94 289.391 360.94C290.337 360.94 290.957 360.587 291.251 359.88C291.491 359.32 291.611 358.64 291.611 357.84ZM294.211 357.24C294.211 359.707 293.744 361.36 292.811 362.2C292.024 362.92 290.884 363.28 289.391 363.28C287.484 363.28 286.197 362.72 285.531 361.6C284.904 360.573 284.591 359.12 284.591 357.24C284.591 355.48 284.904 354.1 285.531 353.1C286.224 351.98 287.484 351.42 289.311 351.42C291.151 351.42 292.424 351.913 293.131 352.9C293.851 353.873 294.211 355.32 294.211 357.24ZM305.15 363H302.55V355.7C302.55 355.047 302.417 354.6 302.15 354.36C301.883 354.12 301.51 354 301.03 354L298.69 354.98V363H296.09V351.58H298.03L298.63 352.94L301.83 351.46C302.723 351.46 303.497 351.793 304.15 352.46C304.817 353.113 305.15 354.073 305.15 355.34V363Z" fill="white"/>
<path d="M386.06 444.54H377.465V471H371.21V444.54H362.66V438.96H386.06V444.54ZM415.233 471H408.708L406.908 465.465H396.153L394.398 471H387.873L398.133 441.66C398.583 440.64 399.078 439.935 399.618 439.545C400.188 439.155 400.878 438.96 401.688 438.96C402.498 438.96 403.143 439.14 403.623 439.5C404.133 439.86 404.583 440.58 404.973 441.66L415.233 471ZM405.468 460.2L401.688 447.51L397.728 460.2H405.468ZM434.074 454.035L445.099 471H437.809L430.249 458.895L425.884 464.745V471H419.629V438.96H425.884V456.87L437.989 438.96H444.289L434.074 454.035ZM470.661 471H459.321C455.721 471 453.186 470.385 451.716 469.155C450.276 467.895 449.556 465.69 449.556 462.54V438.96H470.661V444.54H455.811V452.055H466.206L465.756 457.635H455.811V462.09C455.811 463.35 456.096 464.22 456.666 464.7C457.236 465.18 458.271 465.42 459.771 465.42H470.661V471ZM511.561 471H505.036L503.236 465.465H492.481L490.726 471H484.201L494.461 441.66C494.911 440.64 495.406 439.935 495.946 439.545C496.516 439.155 497.206 438.96 498.016 438.96C498.826 438.96 499.471 439.14 499.951 439.5C500.461 439.86 500.911 440.58 501.301 441.66L511.561 471ZM501.796 460.2L498.016 447.51L494.056 460.2H501.796ZM550.581 454.845L550.626 458.31C550.506 460.5 550.236 462.345 549.816 463.845C549.396 465.345 548.571 466.71 547.341 467.94C545.301 469.98 542.331 471 538.431 471C533.841 471 530.691 470.4 528.981 469.2C527.271 467.97 526.416 465.765 526.416 462.585V438.96H538.881C542.481 438.96 545.301 439.98 547.341 442.02C548.991 443.67 549.966 445.68 550.266 448.05C550.476 449.73 550.581 451.995 550.581 454.845ZM542.976 463.44C543.546 462.75 543.906 461.805 544.056 460.605C544.236 459.375 544.326 457.47 544.326 454.89C544.326 452.31 544.236 450.45 544.056 449.31C543.906 448.14 543.546 447.21 542.976 446.52C541.896 445.2 540.336 444.54 538.296 444.54H532.671V462.27C532.671 463.47 533.076 464.295 533.886 464.745C534.696 465.195 536.136 465.42 538.206 465.42C540.306 465.42 541.896 464.76 542.976 463.44ZM562.334 471H556.079V438.96H562.334V471ZM594.045 471H586.8L580.545 459.12H576.045V471H569.79V445.845C569.79 443.445 570.345 441.705 571.455 440.625C572.565 439.515 574.425 438.96 577.035 438.96H582.345C585.525 438.96 588.045 439.935 589.905 441.885C591.795 443.805 592.74 446.25 592.74 449.22C592.74 451.38 592.17 453.255 591.03 454.845C589.92 456.405 588.54 457.485 586.89 458.085L594.045 471ZM581.94 453.9C583.26 453.9 584.34 453.45 585.18 452.55C586.05 451.62 586.485 450.48 586.485 449.13C586.485 447.75 586.065 446.64 585.225 445.8C584.415 444.96 583.32 444.54 581.94 444.54H578.835C576.975 444.54 576.045 445.485 576.045 447.375V453.9H581.94ZM620.339 471H608.999C605.399 471 602.864 470.385 601.394 469.155C599.954 467.895 599.234 465.69 599.234 462.54V438.96H620.339V444.54H605.489V452.055H615.884L615.434 457.635H605.489V462.09C605.489 463.35 605.774 464.22 606.344 464.7C606.914 465.18 607.949 465.42 609.449 465.42H620.339V471ZM642.68 458.58H648.485C648.485 462.66 647.465 465.795 645.425 467.985C643.385 470.175 640.505 471.27 636.785 471.27C628.595 471.27 624.5 466.455 624.5 456.825V454.125C624.5 446.535 626.6 441.78 630.8 439.86C632.45 439.08 634.445 438.69 636.785 438.69C640.205 438.69 642.98 439.635 645.11 441.525C647.27 443.385 648.35 446.085 648.35 449.625H642.5C642.17 447.855 641.585 446.52 640.745 445.62C639.905 444.72 638.585 444.27 636.785 444.27C634.685 444.27 633.125 444.93 632.105 446.25C631.385 447.18 630.965 448.77 630.845 451.02C630.785 451.74 630.755 452.715 630.755 453.945V456.735C630.755 460.185 631.235 462.54 632.195 463.8C633.185 465.06 634.715 465.69 636.785 465.69C638.885 465.69 640.325 465.12 641.105 463.98C641.915 462.81 642.44 461.01 642.68 458.58ZM674.649 444.54H666.054V471H659.799V444.54H651.249V438.96H674.649V444.54ZM713.201 461.775C713.201 464.745 712.391 467.025 710.771 468.615C709.181 470.205 706.946 471 704.066 471H699.746C696.206 471 693.686 470.385 692.186 469.155C690.716 467.925 689.981 465.795 689.981 462.765V438.96H703.526C706.586 438.96 708.881 439.725 710.411 441.255C711.971 442.785 712.751 444.945 712.751 447.735C712.751 449.355 712.331 450.735 711.491 451.875C710.681 453.015 709.781 453.825 708.791 454.305C711.731 455.685 713.201 458.175 713.201 461.775ZM703.031 451.47C705.341 451.47 706.496 450.315 706.496 448.005C706.496 445.695 705.341 444.54 703.031 444.54H696.236V451.47H703.031ZM706.946 461.46C706.946 460.02 706.691 458.94 706.181 458.22C705.671 457.47 704.756 457.095 703.436 457.095H696.236V462.135C696.236 463.365 696.536 464.22 697.136 464.7C697.766 465.18 698.786 465.42 700.196 465.42H703.436C705.776 465.42 706.946 464.1 706.946 461.46ZM743.135 438.96V460.02C743.135 463.5 741.95 466.245 739.58 468.255C737.24 470.265 734.345 471.27 730.895 471.27C727.445 471.27 724.535 470.265 722.165 468.255C719.825 466.245 718.655 463.5 718.655 460.02V438.96H724.91V459.795C724.91 461.775 725.45 463.26 726.53 464.25C727.64 465.21 729.095 465.69 730.895 465.69C732.695 465.69 734.15 465.21 735.26 464.25C736.37 463.26 736.925 461.775 736.925 459.795V438.96H743.135ZM771.258 461.55C771.258 464.58 770.148 466.965 767.928 468.705C765.708 470.415 762.873 471.27 759.423 471.27C756.693 471.27 754.053 470.52 751.503 469.02C750.243 468.24 749.208 467.145 748.398 465.735C747.588 464.295 747.183 462.66 747.183 460.83L752.853 460.56C752.853 462.18 753.543 463.44 754.923 464.34C756.303 465.24 757.833 465.69 759.513 465.69C763.263 465.69 765.138 464.37 765.138 461.73C765.138 459.57 763.863 458.295 761.313 457.905L756.093 457.365C753.483 456.975 751.413 456.045 749.883 454.575C748.353 453.105 747.588 450.99 747.588 448.23C747.588 445.47 748.683 443.19 750.873 441.39C753.063 439.59 755.823 438.69 759.153 438.69C762.513 438.69 765.213 439.545 767.253 441.255C769.293 442.935 770.313 445.11 770.313 447.78L764.733 448.05C764.223 445.44 762.468 444.135 759.468 444.135C757.638 444.135 756.198 444.525 755.148 445.305C754.128 446.085 753.618 447.015 753.618 448.095C753.618 449.145 753.993 449.985 754.743 450.615C755.493 451.215 756.423 451.59 757.533 451.74L762.663 452.28C768.393 453.06 771.258 456.15 771.258 461.55Z" fill="white"/>
<path d="M361.49 477.075H772.518V480.99H361.49V477.075Z" fill="white"/>
<rect x="253" y="1" width="287" height="60" fill="#4D869C"/>
<path d="M289.012 12.96L279.382 31.86V45H273.172V31.86L263.542 12.96H270.337L276.322 25.875L282.217 12.96H289.012ZM306.349 33.39V31.05C306.349 28.83 306.019 27.135 305.359 25.965C304.729 24.795 303.394 24.21 301.354 24.21C298.054 24.21 296.404 26.43 296.404 30.87V33.21C296.404 37.98 298.054 40.365 301.354 40.365C303.484 40.365 304.879 39.57 305.539 37.98C306.079 36.72 306.349 35.19 306.349 33.39ZM312.199 32.04C312.199 37.59 311.149 41.31 309.049 43.2C307.279 44.82 304.714 45.63 301.354 45.63C297.064 45.63 294.169 44.37 292.669 41.85C291.259 39.54 290.554 36.27 290.554 32.04C290.554 28.08 291.259 24.975 292.669 22.725C294.229 20.205 297.064 18.945 301.174 18.945C305.314 18.945 308.179 20.055 309.769 22.275C311.389 24.465 312.199 27.72 312.199 32.04ZM336.092 45H331.727L330.377 41.94L323.177 45.27C321.167 45.27 319.412 44.535 317.912 43.065C316.442 41.565 315.707 39.39 315.707 36.54V19.305H321.557V35.28C321.557 38.13 322.697 39.555 324.977 39.555L330.242 36.72V19.305H336.092V45ZM370.817 45H366.902L365.102 41.895L358.847 45.27C355.367 45.27 353.027 44.01 351.827 41.49C351.227 40.26 350.807 38.94 350.567 37.53C350.357 36.09 350.252 34.605 350.252 33.075C350.252 31.515 350.267 30.375 350.297 29.655C350.327 28.905 350.402 28.05 350.522 27.09C350.642 26.1 350.807 25.275 351.017 24.615C351.257 23.955 351.587 23.28 352.007 22.59C352.427 21.87 352.937 21.3 353.537 20.88C354.887 19.95 356.642 19.485 358.802 19.485H364.967L370.817 19.125V45ZM364.967 36.81V24.75H360.512C358.862 24.75 357.707 25.38 357.047 26.64C356.417 27.9 356.102 29.79 356.102 32.31C356.102 34.8 356.402 36.555 357.002 37.575C357.632 38.595 358.802 39.105 360.512 39.105L364.967 36.81ZM390.805 19.395L389.185 25.155C388.735 24.975 388.225 24.885 387.655 24.885C386.155 24.885 384.31 25.53 382.12 26.82V45H376.27V19.305H380.635L381.985 21.555L388.195 18.99C388.495 18.96 388.9 18.945 389.41 18.945C389.92 18.945 390.385 19.095 390.805 19.395ZM413.964 33.525H398.979C398.979 35.865 399.339 37.575 400.059 38.655C400.809 39.735 402.294 40.275 404.514 40.275C405.954 40.275 407.019 39.825 407.709 38.925C408.399 37.995 408.744 37.11 408.744 36.27H414.009C414.009 39.48 413.139 41.835 411.399 43.335C409.689 44.835 407.409 45.585 404.559 45.585C401.739 45.585 399.549 45.18 397.989 44.37C394.779 42.72 393.174 38.34 393.174 31.23C393.174 27 394.089 23.91 395.919 21.96C397.749 19.98 400.539 18.99 404.289 18.99C410.799 18.99 414.054 22.605 414.054 29.835C414.054 30.615 414.024 31.845 413.964 33.525ZM399.114 29.52H408.744C408.744 27.54 408.369 26.1 407.619 25.2C406.869 24.3 405.714 23.85 404.154 23.85C402.624 23.85 401.394 24.315 400.464 25.245C399.564 26.145 399.114 27.57 399.114 29.52ZM449.662 45H443.812V28.89C443.812 26.13 442.732 24.75 440.572 24.75L434.992 26.955V45H429.142V11.16H434.992V22.365L442.417 19.035C445.057 19.035 446.917 19.785 447.997 21.285C449.107 22.785 449.662 24.885 449.662 27.585V45ZM474.697 33.525H459.712C459.712 35.865 460.072 37.575 460.792 38.655C461.542 39.735 463.027 40.275 465.247 40.275C466.687 40.275 467.752 39.825 468.442 38.925C469.132 37.995 469.477 37.11 469.477 36.27H474.742C474.742 39.48 473.872 41.835 472.132 43.335C470.422 44.835 468.142 45.585 465.292 45.585C462.472 45.585 460.282 45.18 458.722 44.37C455.512 42.72 453.907 38.34 453.907 31.23C453.907 27 454.822 23.91 456.652 21.96C458.482 19.98 461.272 18.99 465.022 18.99C471.532 18.99 474.787 22.605 474.787 29.835C474.787 30.615 474.757 31.845 474.697 33.525ZM459.847 29.52H469.477C469.477 27.54 469.102 26.1 468.352 25.2C467.602 24.3 466.447 23.85 464.887 23.85C463.357 23.85 462.127 24.315 461.197 25.245C460.297 26.145 459.847 27.57 459.847 29.52ZM493.725 19.395L492.105 25.155C491.655 24.975 491.145 24.885 490.575 24.885C489.075 24.885 487.23 25.53 485.04 26.82V45H479.19V19.305H483.555L484.905 21.555L491.115 18.99C491.415 18.96 491.82 18.945 492.33 18.945C492.84 18.945 493.305 19.095 493.725 19.395ZM516.884 33.525H501.899C501.899 35.865 502.259 37.575 502.979 38.655C503.729 39.735 505.214 40.275 507.434 40.275C508.874 40.275 509.939 39.825 510.629 38.925C511.319 37.995 511.664 37.11 511.664 36.27H516.929C516.929 39.48 516.059 41.835 514.319 43.335C512.609 44.835 510.329 45.585 507.479 45.585C504.659 45.585 502.469 45.18 500.909 44.37C497.699 42.72 496.094 38.34 496.094 31.23C496.094 27 497.009 23.91 498.839 21.96C500.669 19.98 503.459 18.99 507.209 18.99C513.719 18.99 516.974 22.605 516.974 29.835C516.974 30.615 516.944 31.845 516.884 33.525ZM502.034 29.52H511.664C511.664 27.54 511.289 26.1 510.539 25.2C509.789 24.3 508.634 23.85 507.074 23.85C505.544 23.85 504.314 24.315 503.384 25.245C502.484 26.145 502.034 27.57 502.034 29.52ZM531.278 12.96L529.928 32.4C529.808 33.24 529.508 33.9 529.028 34.38C528.578 34.83 528.068 35.055 527.498 35.055C526.928 35.055 526.418 34.815 525.968 34.335C525.548 33.855 525.338 33.21 525.338 32.4L524.033 12.96H531.278ZM530.648 38.97C531.128 39.42 531.368 40.395 531.368 41.895C531.368 43.395 531.128 44.385 530.648 44.865C530.198 45.345 529.223 45.585 527.723 45.585C526.223 45.585 525.233 45.345 524.753 44.865C524.273 44.385 524.033 43.395 524.033 41.895C524.033 40.395 524.273 39.42 524.753 38.97C525.233 38.49 526.223 38.25 527.723 38.25C529.223 38.25 530.198 38.49 530.648 38.97Z" fill="white"/>
</svg>
