<svg width="32" height="32" viewBox="0 0 32 32" fill="none" xmlns="http://www.w3.org/2000/svg">
<path d="M15.9079 22.0892C19.3217 22.0892 22.0893 19.3217 22.0893 15.9079C22.0893 12.494 19.3217 9.72656 15.9079 9.72656C12.4941 9.72656 9.72662 12.494 9.72662 15.9079C9.72662 19.3217 12.4941 22.0892 15.9079 22.0892Z" stroke="white" stroke-width="3" stroke-linecap="round" stroke-linejoin="round"/>
<path d="M2 22.0893V9.72664C2 5.45934 5.45934 2 9.72664 2H22.0893C26.3565 2 29.8159 5.45934 29.8159 9.72664V22.0893C29.8159 26.3565 26.3565 29.8159 22.0893 29.8159H9.72664C5.45934 29.8159 2 26.3565 2 22.0893Z" stroke="white" stroke-width="3"/>
<path d="M24.4073 7.42391L24.4227 7.40674" stroke="white" stroke-width="3" stroke-linecap="round" stroke-linejoin="round"/>
</svg>
