<?xml version="1.0" encoding="UTF-8"?>
<svg id="OBJECTS" xmlns="http://www.w3.org/2000/svg" viewBox="0 0 500 500">
  <defs>
    <style>
      .cls-1 {
        fill: #005cee;
      }

      .cls-2 {
        fill: #00b4ff;
      }

      .cls-3 {
        fill: #003375;
      }

      .cls-4 {
        fill: #fff;
      }

      .cls-5 {
        fill: #1b94ff;
      }

      .cls-6 {
        fill: #003da7;
      }

      .cls-7 {
        fill: #00b3ff;
      }

      .cls-8 {
        fill: #373442;
      }

      .cls-9 {
        fill: #7fcaff;
      }

      .cls-10 {
        fill: #ff9600;
      }

      .cls-11 {
        fill: #002cd0;
      }

      .cls-12 {
        fill: #008aff;
      }

      .cls-13 {
        fill: #ff6500;
      }

      .cls-14 {
        opacity: .39;
      }

      .cls-15 {
        fill: #0012cd;
      }

      .cls-16 {
        fill: #3ed0ff;
      }

      .cls-17 {
        fill: #001e82;
      }

      .cls-18 {
        fill: #00016d;
      }

      .cls-19 {
        fill: #0029ff;
      }

      .cls-20 {
        fill: #0021a6;
      }

      .cls-21 {
        fill: #000125;
      }

      .cls-22 {
        fill: #e9ffff;
      }

      .cls-23 {
        fill: #004fda;
      }

      .cls-24 {
        fill: #000139;
      }

      .cls-25 {
        opacity: .3;
      }

      .cls-26 {
        font-size: 12.5px;
      }

      .cls-26, .cls-27 {
        font-family: Viga-Regular, 'Viga Regular';
      }

      .cls-26, .cls-27, .cls-28 {
        fill: #ffb900;
      }

      .cls-27 {
        font-size: 8.89px;
      }

      .cls-29 {
        fill: #ff1815;
      }

      .cls-30 {
        fill: #005eff;
      }

      .cls-31 {
        fill: #0063ff;
      }

      .cls-32 {
        fill: #be0a00;
      }

      .cls-33 {
        fill: #b8ffff;
      }

      .cls-34 {
        fill: #706f6f;
      }

      .cls-35 {
        opacity: .1;
      }

      .cls-36 {
        fill: #00015b;
      }

      .cls-37 {
        fill: #00cdff;
      }

      .cls-38 {
        fill: #002846;
      }

      .cls-39 {
        fill: #0033bd;
      }

      .cls-40 {
        fill: #0015a0;
      }

      .cls-41 {
        fill: #0041fc;
      }

      .cls-42 {
        fill: #0080ff;
      }

      .cls-43 {
        fill: #001618;
      }

      .cls-44 {
        fill: #000153;
      }

      .cls-45 {
        fill: #85d7ff;
      }

      .cls-46 {
        fill: #000480;
      }

      .cls-47 {
        fill: #4fe4ff;
      }

      .cls-48 {
        fill: #000138;
      }

      .cls-49 {
        fill: #3363e3;
      }

      .cls-50 {
        fill: #ffe200;
      }

      .cls-51 {
        fill: #0093ff;
      }

      .cls-52 {
        fill: #ffc300;
      }

      .cls-53 {
        fill: #00017d;
      }

      .cls-54 {
        fill: #ff5000;
      }

      .cls-55 {
        fill: #0015dc;
      }
    </style>
  </defs>
  <g>
    <polygon class="cls-9" points="434.38 273.79 368.86 310.3 252.86 243.53 318.38 207.02 434.38 273.79"/>
    <g>
      <polygon class="cls-17" points="390.91 271.59 389.83 272.2 387.28 270.77 388.42 270.15 390.91 271.59"/>
      <polygon class="cls-11" points="390.92 282.1 389.83 282.67 389.83 272.19 390.92 271.59 390.92 282.1"/>
      <polygon class="cls-30" points="389.83 282.67 387.28 281.25 387.28 270.77 389.83 272.19 389.83 282.67"/>
    </g>
    <g>
      <g class="cls-14">
        <polygon class="cls-30" points="410.16 261.9 336.88 221.63 336.88 149.07 410.16 189.34 410.16 261.9"/>
      </g>
      <g class="cls-14">
        <polygon class="cls-30" points="358.8 231.44 338.86 220.25 338.86 152.7 358.8 163.43 358.8 231.44"/>
      </g>
      <g class="cls-14">
        <polygon class="cls-30" points="383.5 244.8 363.55 233.89 363.55 166.35 383.5 177.08 383.5 244.8"/>
      </g>
      <g class="cls-14">
        <polygon class="cls-30" points="407.58 258.05 387.64 246.85 387.64 179.77 407.58 190.5 407.58 258.05"/>
      </g>
      <g>
        <polygon class="cls-17" points="402.97 238.14 401.59 238.92 398.34 237.09 399.79 236.3 402.97 238.14"/>
        <polygon class="cls-11" points="402.98 277.32 401.59 278.06 401.59 238.91 402.98 238.14 402.98 277.32"/>
        <polygon class="cls-30" points="401.59 278.06 398.34 276.24 398.34 237.09 401.59 238.91 401.59 278.06"/>
      </g>
      <g>
        <polygon class="cls-17" points="348.31 206.57 346.92 207.36 343.67 205.53 345.12 204.74 348.31 206.57"/>
        <polygon class="cls-11" points="348.31 245.76 346.93 246.49 346.93 207.35 348.31 206.58 348.31 245.76"/>
        <polygon class="cls-30" points="346.93 246.49 343.67 244.67 343.67 205.53 346.93 207.35 346.93 246.49"/>
      </g>
      <g>
        <polygon class="cls-17" points="330.66 237.22 329.58 237.84 327.03 236.4 328.17 235.78 330.66 237.22"/>
        <polygon class="cls-11" points="330.67 247.73 329.58 248.31 329.58 237.83 330.67 237.22 330.67 247.73"/>
        <polygon class="cls-30" points="329.58 248.31 327.03 246.88 327.03 236.4 329.58 237.83 329.58 248.31"/>
      </g>
      <g>
        <polygon class="cls-54" points="403.43 264.65 389.64 272.33 327.03 236.56 327.03 234.47 340.82 228.87 403.43 262.56 403.43 264.65"/>
        <polygon class="cls-10" points="403.43 262.56 389.64 270.24 327.03 234.47 340.82 226.78 403.43 262.56"/>
        <polygon class="cls-50" points="405.19 260.44 403.9 261.18 343.12 225.06 341.82 207.45 343.12 206.71 405.19 242.09 405.19 260.44"/>
        <polygon class="cls-28" points="403.9 261.18 341.82 225.8 341.82 207.45 403.9 242.83 403.9 261.18"/>
      </g>
      <path class="cls-38" d="M416.93,208.98c-.19,0-.38-.05-.56-.14l-6.76-3.78c-.55-.31-.74-1-.44-1.55,.31-.55,1-.74,1.55-.44l6.76,3.78c.55,.31,.74,1,.44,1.55-.21,.37-.6,.58-.99,.58Z"/>
      <path class="cls-38" d="M416.93,228.64c-.19,0-.38-.05-.56-.14l-6.76-3.78c-.55-.31-.74-1-.44-1.55,.31-.55,1-.74,1.55-.44l6.76,3.78c.55,.31,.74,1,.44,1.55-.21,.37-.6,.58-.99,.58Z"/>
      <path class="cls-38" d="M416.93,248.31c-.19,0-.38-.05-.56-.14l-6.76-3.78c-.55-.31-.74-1-.44-1.55s1-.74,1.55-.44l6.76,3.78c.55,.31,.74,1,.44,1.55-.21,.37-.6,.58-.99,.58Z"/>
      <g class="cls-14">
        <polygon class="cls-30" points="318.79 221.45 270.07 248.56 270.07 173.31 318.79 146.21 318.79 221.45"/>
      </g>
      <polygon class="cls-28" points="296.27 207.86 273.6 220.47 273.6 177.17 296.27 164.56 296.27 207.86"/>
      <polygon class="cls-13" points="287.9 196.82 275.41 203.76 275.41 179.91 287.9 172.96 287.9 196.82"/>
      <polygon class="cls-13" points="287.9 200.99 275.41 207.94 275.41 205.34 287.9 198.39 287.9 200.99"/>
      <polygon class="cls-13" points="287.9 205.18 275.41 212.13 275.41 209.53 287.9 202.59 287.9 205.18"/>
      <polygon class="cls-13" points="287.9 209.38 275.41 216.32 275.41 213.73 287.9 206.78 287.9 209.38"/>
      <polygon class="cls-13" points="295.24 206.8 289.69 209.86 289.69 208.94 295.24 205.88 295.24 206.8"/>
      <polygon class="cls-13" points="295.24 203.74 289.69 206.79 289.69 205.87 295.24 202.82 295.24 203.74"/>
      <polygon class="cls-13" points="295.24 200.67 289.69 203.73 289.69 202.81 295.24 199.75 295.24 200.67"/>
      <polygon class="cls-13" points="295.24 197.61 289.69 200.66 289.69 199.75 295.24 196.69 295.24 197.61"/>
      <polygon class="cls-13" points="295.24 194.54 289.69 197.6 289.69 196.68 295.24 193.63 295.24 194.54"/>
      <polygon class="cls-13" points="295.24 191.48 289.69 194.53 289.69 193.62 295.24 190.56 295.24 191.48"/>
      <polygon class="cls-13" points="295.24 188.41 289.69 191.47 289.69 190.55 295.24 187.5 295.24 188.41"/>
      <polygon class="cls-13" points="295.24 185.35 289.69 188.41 289.69 187.49 295.24 184.43 295.24 185.35"/>
      <polygon class="cls-13" points="295.24 182.28 289.69 185.34 289.69 184.42 295.24 181.37 295.24 182.28"/>
      <polygon class="cls-13" points="295.24 179.22 289.69 182.28 289.69 181.36 295.24 178.3 295.24 179.22"/>
      <polygon class="cls-13" points="295.24 176.16 289.69 179.21 289.69 178.3 295.24 175.24 295.24 176.16"/>
      <polygon class="cls-13" points="295.24 173.09 289.69 176.15 289.69 175.23 295.24 172.17 295.24 173.09"/>
      <polygon class="cls-28" points="310.2 181.11 301.33 186.04 301.33 169.11 310.2 164.18 310.2 181.11"/>
      <path class="cls-8" d="M267.74,249.68v-77.85l50.99-28.37,1.19,.82-1.19,77.03-49.8,29.19-1.19-.82Zm2.28-76.51v72.64l46.44-25.84v-72.64l-46.44,25.84Z"/>
      <path class="cls-34" d="M268.93,250.49v-77.85l50.99-28.37v77.85l-50.99,28.37Zm2.28-76.51v72.64l46.44-25.84v-72.64l-46.44,25.84Z"/>
      <g>
        <polygon class="cls-17" points="334.14 140.31 330.4 142.4 323.65 138.59 327.52 136.5 334.14 140.31"/>
        <polygon class="cls-11" points="333.29 222.19 330.41 223.72 330.41 142.37 333.29 140.77 333.29 222.19"/>
        <path class="cls-38" d="M336.88,191.38c-.19,0-.38-.05-.56-.14l-5.03-2.82c-.55-.31-.74-1-.44-1.55,.31-.55,1-.74,1.55-.44l5.03,2.82c.55,.31,.74,1,.44,1.55-.21,.37-.6,.58-.99,.58Z"/>
        <path class="cls-38" d="M336.88,166.72c-.19,0-.38-.05-.56-.14l-5.03-2.81c-.55-.31-.74-1-.44-1.55,.31-.55,1-.74,1.55-.44l5.03,2.81c.55,.31,.74,1,.44,1.55-.21,.37-.6,.58-.99,.58Z"/>
        <polygon class="cls-30" points="330.41 223.72 323.65 219.94 323.65 138.59 330.41 142.37 330.41 223.72"/>
      </g>
      <g>
        <polygon class="cls-17" points="254.15 167.32 256.13 168.42 259.71 166.41 257.66 165.3 254.15 167.32"/>
        <polygon class="cls-11" points="254.6 259.22 256.13 260.03 256.13 168.41 254.6 167.56 254.6 259.22"/>
        <path class="cls-51" d="M259.24,194.82c.1,0,.2-.02,.29-.08l8.79-4.92c.29-.16,.39-.53,.23-.82-.16-.29-.53-.39-.82-.23l-8.79,4.92c-.29,.16-.39,.53-.23,.82,.11,.2,.32,.31,.53,.31Z"/>
        <path class="cls-51" d="M259.24,210.93c.1,0,.2-.02,.29-.08l8.79-4.92c.29-.16,.39-.53,.23-.82-.16-.29-.53-.39-.82-.23l-8.79,4.92c-.29,.16-.39,.53-.23,.82,.11,.2,.32,.31,.53,.31Z"/>
        <path class="cls-51" d="M259.24,227.05c.1,0,.2-.02,.29-.08l8.79-4.92c.29-.16,.39-.53,.23-.82-.16-.29-.53-.39-.82-.23l-8.79,4.92c-.29,.16-.39,.53-.23,.82,.11,.2,.32,.31,.53,.31Z"/>
        <polygon class="cls-30" points="256.13 260.03 259.71 258.03 259.71 166.41 256.13 168.41 256.13 260.03"/>
      </g>
      <rect class="cls-38" x="271.17" y="158.89" width="75.09" height="2.28" transform="translate(-38.66 175.76) rotate(-29.99)"/>
      <rect class="cls-38" x="344.81" y="201.9" width="75.09" height="2.28" transform="translate(-50.3 218.34) rotate(-29.99)"/>
      <rect class="cls-38" x="301.31" y="176.5" width="75.09" height="2.28" transform="translate(-43.42 193.19) rotate(-29.99)"/>
      <g class="cls-25">
        <polygon class="cls-30" points="434.38 195.39 368.86 231.9 252.86 165.12 318.38 128.62 434.38 195.39"/>
      </g>
      <g>
        <polygon class="cls-17" points="426.48 193.13 422.74 195.21 415.99 191.4 419.86 189.31 426.48 193.13"/>
        <polygon class="cls-11" points="425.62 275 422.75 276.54 422.75 195.18 425.62 193.58 425.62 275"/>
        <polygon class="cls-30" points="422.75 276.54 415.99 272.75 415.99 191.4 422.75 195.18 422.75 276.54"/>
      </g>
      <path class="cls-43" d="M318.4,127.07l-70.16,38.02v1.07l120.6,69.42,70.16-39.09v-1.07l-120.6-68.35Zm-60.92,39.16l60.88-33.93,111.4,64.13-60.88,33.93-111.4-64.13Z"/>
      <path class="cls-38" d="M318.4,126l-70.16,39.09,120.6,69.42,70.16-39.09-120.6-69.42Zm-60.92,39.16l60.88-33.93,111.4,64.13-60.88,33.93-111.4-64.13Z"/>
      <g>
        <polygon class="cls-39" points="247.01 211.85 218.16 229.36 217 228.54 217 191.39 247.01 174.7 248.17 175.51 247.01 211.85"/>
        <polygon class="cls-30" points="248.17 212.66 218.16 229.36 218.16 192.21 248.17 175.51 248.17 212.66"/>
        <polygon class="cls-4" points="245.39 210.77 220.94 224.37 220.94 194.1 245.39 180.5 245.39 210.77"/>
        <g>
          <path class="cls-49" d="M237.98,209.21l-8.69,4.93c-1.67,.95-3.02,.02-3.02-2.08v-10.9c0-2.09,1.35-4.56,3.02-5.5l8.69-4.93c1.67-.95,3.02-.02,3.02,2.08v10.9c0,2.09-1.35,4.56-3.02,5.5Z"/>
          <g>
            <polygon class="cls-49" points="230.98 214.73 227.82 216.52 227.82 212 230.98 210.21 230.98 214.73"/>
            <polygon class="cls-49" points="239.45 209.93 236.29 211.72 236.29 207.2 239.45 205.41 239.45 209.93"/>
          </g>
          <path class="cls-4" d="M227.07,210.66l6.18-3.51v-10.33l-6.18,3.51v10.33Zm6.96-14.27v10.33l6.18-3.51v-10.33l-6.18,3.51Z"/>
          <polygon class="cls-4" points="237.49 192.84 229.78 197.21 229.78 196.61 237.49 192.24 237.49 192.84"/>
          <polygon class="cls-4" points="240.21 205.93 227.07 213.38 227.07 211.42 240.21 203.97 240.21 205.93"/>
          <g>
            <ellipse class="cls-49" cx="239" cy="205.63" rx=".91" ry=".52" transform="translate(-50.25 331.09) rotate(-64.16)"/>
            <ellipse class="cls-49" cx="237.34" cy="206.57" rx=".57" ry=".33" transform="translate(-52.03 330.13) rotate(-64.16)"/>
          </g>
          <g>
            <ellipse class="cls-49" cx="228.12" cy="211.8" rx=".91" ry=".52" transform="translate(-61.94 324.77) rotate(-64.16)"/>
            <ellipse class="cls-49" cx="229.77" cy="210.86" rx=".57" ry=".33" transform="translate(-60.17 325.73) rotate(-64.16)"/>
          </g>
          <polygon class="cls-49" points="236.29 206.8 230.98 209.82 230.98 209.57 236.29 206.55 236.29 206.8"/>
          <polygon class="cls-49" points="236.68 207.13 230.6 210.57 230.6 210.29 236.68 206.84 236.68 207.13"/>
          <polygon class="cls-49" points="236.68 207.67 230.6 211.11 230.6 210.82 236.68 207.38 236.68 207.67"/>
          <polygon class="cls-49" points="242.85 197.21 241.39 198.04 241.39 193.75 242.85 192.93 242.85 197.21"/>
          <polygon class="cls-49" points="225.85 206.85 224.39 207.68 224.39 203.39 225.85 202.57 225.85 206.85"/>
          <polygon class="cls-49" points="226.63 203.14 225.12 204 225.12 203.59 226.63 202.73 226.63 203.14"/>
          <polygon class="cls-49" points="242.15 194.34 240.63 195.2 240.63 194.79 242.15 193.94 242.15 194.34"/>
        </g>
      </g>
      <path class="cls-23" d="M231.58,184.36c-.63,0-1.14-.51-1.14-1.14v-13.21c0-8.5,6.88-19.18,15.33-23.81,4.61-2.52,9.06-2.89,12.21-1.02,2.72,1.61,4.21,4.7,4.21,8.7v4.22c0,.63-.51,1.14-1.14,1.14s-1.14-.51-1.14-1.14v-4.22c0-3.16-1.1-5.55-3.1-6.74-2.44-1.45-6.08-1.06-9.96,1.06-7.8,4.27-14.15,14.06-14.15,21.81v13.21c0,.63-.51,1.14-1.14,1.14Z"/>
    </g>
  </g>
  <g>
    <polygon class="cls-9" points="329.41 362.64 273.14 393.93 57.62 269.58 113.89 238.29 329.41 362.64"/>
    <g>
      <polygon class="cls-30" points="329.41 281.64 273.14 312.93 57.62 188.58 113.89 157.29 329.41 281.64"/>
      <polygon class="cls-19" points="334.86 354.72 278.58 385.87 273.15 312.93 329.44 281.54 334.86 354.72"/>
      <polygon class="cls-19" points="334.86 354.72 278.58 385.87 273.15 312.93 329.44 281.54 334.86 354.72"/>
      <path class="cls-42" d="M317.83,355.96c-.04-.57-.37-1.08-.88-1.35-.51-.27-1.11-.26-1.61,.01l-16.79,9.36c-1.11,.62-1.77,1.84-1.68,3.11l.62,8.3,20.92-11.58-.58-7.86Z"/>
      <path class="cls-40" d="M315.59,355.07l-16.79,9.36c-.94,.53-1.5,1.55-1.42,2.63l.6,8.06,19.93-11.03-.6-8.09c-.06-.85-.99-1.35-1.73-.93Z"/>
      <polygon class="cls-48" points="333.99 342.96 329.44 281.54 273.15 312.93 277.7 374.12 333.99 342.96"/>
      <polygon class="cls-48" points="277.49 371.23 333.78 340.07 329.44 281.54 273.15 312.93 277.49 371.23"/>
      <polyline class="cls-20" points="313.52 304.56 313.52 335.56 330.3 335.96 328.3 304.37"/>
      <path class="cls-18" d="M313.83,343.33c-3.73,1.8-6.76-.23-6.76-4.51s3.03-9.23,6.76-11.03c3.73-1.8,6.76,.23,6.76,4.51s-3.03,9.23-6.76,11.02Zm0-13.49c-2.75,1.32-4.98,4.97-4.98,8.13s2.24,4.65,4.98,3.32c2.75-1.32,4.98-4.97,4.98-8.13s-2.24-4.65-4.98-3.33Z"/>
      <path class="cls-18" d="M276.13,352.88l1.36,18.34,56.29-31.16s-.84-7.44-8.86-12.24l-48.79,25.05Z"/>
      <polygon class="cls-41" points="274.47 312.24 279.22 373.33 277.79 374.12 273.23 312.93 274.47 312.24"/>
      <polygon class="cls-41" points="329.93 281.47 333.99 343 332.56 343.79 328.69 282.16 329.93 281.47"/>
      <polygon class="cls-55" points="327.09 287.93 276.23 316.29 277.44 332.53 328.3 304.37 327.09 287.93"/>
      <polygon class="cls-48" points="278.34 330.87 327.24 303.8 326.19 289.6 277.29 316.86 278.34 330.87"/>
      <polygon class="cls-22" points="302.75 370.84 313.83 364.66 313.36 358.22 302.28 364.5 302.75 370.84"/>
      <polygon class="cls-4" points="313.36 358.37 313.82 364.66 313.83 364.66 313.36 358.22 302.28 364.5 302.29 364.65 313.36 358.37"/>
      <polygon class="cls-28" points="319.53 298.32 324.92 295.33 324.8 293.77 319.42 296.77 319.53 298.32"/>
      <polygon class="cls-28" points="319.53 301.44 324.92 298.46 324.8 296.89 319.42 299.9 319.53 301.44"/>
      <polygon class="cls-28" points="319.53 304.56 324.92 301.58 324.8 300.02 319.42 303.02 319.53 304.56"/>
      <polygon class="cls-28" points="311.05 302.83 318.32 298.76 318.2 297.2 310.94 301.29 311.05 302.83"/>
      <polygon class="cls-28" points="311.05 305.99 312.6 305.12 312.48 303.56 310.94 304.45 311.05 305.99"/>
      <polygon class="cls-28" points="313.52 304.56 315.07 303.7 314.95 302.13 313.4 303.02 313.52 304.56"/>
      <polyline class="cls-46" points="203.37 342.47 233.65 325.71 230.92 301.22 213.24 296.18 196.63 295.2 187.4 300.39"/>
      <g>
        <polyline class="cls-21" points="220.08 358.9 250.36 342.15 247.63 317.65 229.95 312.62 213.34 311.63 204.11 316.82"/>
        <polygon class="cls-21" points="207.66 337.14 214.82 333.24 217.37 337.14 210.54 341.29 207.66 337.14"/>
        <ellipse class="cls-44" cx="213.72" cy="348.13" rx="7.71" ry="12.55" transform="translate(-142.73 148.59) rotate(-29.21)"/>
        <ellipse class="cls-24" cx="213.72" cy="348.13" rx="5.43" ry="8.84" transform="translate(-142.73 148.59) rotate(-29.21)"/>
        <ellipse class="cls-33" cx="213.72" cy="348.13" rx="4.71" ry="7.67" transform="translate(-142.73 148.59) rotate(-29.21)"/>
        <ellipse class="cls-45" cx="213.72" cy="348.13" rx="2.86" ry="4.66" transform="translate(-142.73 148.59) rotate(-29.21)"/>
        <ellipse class="cls-48" cx="213.72" cy="348.13" rx="1.51" ry="2.45" transform="translate(-142.73 148.59) rotate(-29.21)"/>
        <g>
          <ellipse class="cls-48" cx="213.91" cy="342.73" rx=".37" ry=".61" transform="translate(-140.07 148) rotate(-29.21)"/>
          <ellipse class="cls-3" cx="213.91" cy="342.73" rx=".22" ry=".35" transform="translate(-140.07 148) rotate(-29.21)"/>
        </g>
        <g>
          <ellipse class="cls-48" cx="213.91" cy="353.67" rx=".37" ry=".61" transform="translate(-145.41 149.39) rotate(-29.21)"/>
          <ellipse class="cls-3" cx="213.91" cy="353.67" rx=".22" ry=".35" transform="translate(-145.41 149.39) rotate(-29.21)"/>
        </g>
        <g>
          <ellipse class="cls-48" cx="218.47" cy="351.46" rx=".37" ry=".61" transform="translate(-143.75 151.33) rotate(-29.21)"/>
          <ellipse class="cls-3" cx="218.47" cy="351.46" rx=".22" ry=".35" transform="translate(-143.75 151.33) rotate(-29.21)"/>
        </g>
        <g>
          <ellipse class="cls-48" cx="209.03" cy="344.94" rx=".37" ry=".61" transform="translate(-141.76 145.89) rotate(-29.21)"/>
          <ellipse class="cls-3" cx="209.03" cy="344.94" rx=".22" ry=".35" transform="translate(-141.76 145.89) rotate(-29.21)"/>
        </g>
        <g>
          <ellipse class="cls-48" cx="210.52" cy="342.41" rx=".37" ry=".61" transform="translate(-140.34 146.3) rotate(-29.21)"/>
          <ellipse class="cls-3" cx="210.52" cy="342.41" rx=".22" ry=".35" transform="translate(-140.34 146.3) rotate(-29.21)"/>
        </g>
        <g>
          <ellipse class="cls-48" cx="216.99" cy="346.44" rx=".37" ry=".61" transform="translate(-141.48 149.97) rotate(-29.21)"/>
          <ellipse class="cls-3" cx="216.99" cy="346.44" rx=".22" ry=".35" transform="translate(-141.48 149.97) rotate(-29.21)"/>
        </g>
        <g>
          <ellipse class="cls-48" cx="216.43" cy="353.86" rx=".37" ry=".61" transform="translate(-145.18 150.64) rotate(-29.21)"/>
          <ellipse class="cls-3" cx="216.43" cy="353.86" rx=".22" ry=".35" transform="translate(-145.18 150.64) rotate(-29.21)"/>
        </g>
        <g>
          <ellipse class="cls-48" cx="210.52" cy="350.06" rx=".37" ry=".61" transform="translate(-144.07 147.27) rotate(-29.21)"/>
          <ellipse class="cls-3" cx="210.52" cy="350.06" rx=".22" ry=".35" transform="translate(-144.07 147.27) rotate(-29.21)"/>
        </g>
      </g>
      <g>
        <polyline class="cls-21" points="133.84 309.59 164.11 292.83 161.39 268.34 143.71 263.3 127.09 262.32 117.86 267.5"/>
        <polyline class="cls-46" points="101.56 250.69 110.79 245.51 127.4 246.49 145.08 251.53 147.81 276.02 117.45 292.91 115.98 290.42 114.64 288.03 116.61 284.31"/>
        <polygon class="cls-21" points="121.41 287.82 128.58 283.93 131.13 287.82 124.3 291.98 121.41 287.82"/>
        <ellipse class="cls-44" cx="127.48" cy="298.82" rx="7.71" ry="12.55" transform="translate(-129.63 100.23) rotate(-29.21)"/>
        <ellipse class="cls-24" cx="127.48" cy="298.82" rx="5.43" ry="8.84" transform="translate(-129.63 100.23) rotate(-29.21)"/>
        <ellipse class="cls-33" cx="127.48" cy="298.82" rx="4.71" ry="7.67" transform="translate(-129.63 100.23) rotate(-29.21)"/>
        <ellipse class="cls-45" cx="127.48" cy="298.82" rx="2.86" ry="4.66" transform="translate(-129.63 100.23) rotate(-29.21)"/>
        <ellipse class="cls-48" cx="127.48" cy="298.82" rx="1.51" ry="2.45" transform="translate(-129.63 100.23) rotate(-29.21)"/>
        <g>
          <ellipse class="cls-48" cx="127.67" cy="293.42" rx=".37" ry=".61" transform="translate(-126.97 99.63) rotate(-29.21)"/>
          <ellipse class="cls-3" cx="127.67" cy="293.42" rx=".22" ry=".35" transform="translate(-126.97 99.63) rotate(-29.21)"/>
        </g>
        <g>
          <ellipse class="cls-48" cx="127.67" cy="304.36" rx=".37" ry=".61" transform="translate(-132.31 101.02) rotate(-29.21)"/>
          <ellipse class="cls-3" cx="127.67" cy="304.36" rx=".22" ry=".35" transform="translate(-132.31 101.02) rotate(-29.21)"/>
        </g>
        <g>
          <ellipse class="cls-48" cx="132.23" cy="302.15" rx=".37" ry=".61" transform="translate(-130.65 102.97) rotate(-29.21)"/>
          <ellipse class="cls-3" cx="132.23" cy="302.15" rx=".22" ry=".35" transform="translate(-130.65 102.97) rotate(-29.21)"/>
        </g>
        <g>
          <ellipse class="cls-48" cx="122.79" cy="295.62" rx=".37" ry=".61" transform="translate(-128.66 97.53) rotate(-29.21)"/>
          <ellipse class="cls-3" cx="122.79" cy="295.62" rx=".22" ry=".35" transform="translate(-128.66 97.53) rotate(-29.21)"/>
        </g>
        <g>
          <ellipse class="cls-48" cx="124.28" cy="293.09" rx=".37" ry=".61" transform="translate(-127.24 97.93) rotate(-29.21)"/>
          <ellipse class="cls-3" cx="124.28" cy="293.09" rx=".22" ry=".35" transform="translate(-127.24 97.93) rotate(-29.21)"/>
        </g>
        <g>
          <ellipse class="cls-48" cx="130.75" cy="297.12" rx=".37" ry=".61" transform="translate(-128.39 101.61) rotate(-29.21)"/>
          <ellipse class="cls-3" cx="130.75" cy="297.12" rx=".22" ry=".35" transform="translate(-128.39 101.61) rotate(-29.21)"/>
        </g>
        <g>
          <ellipse class="cls-48" cx="130.18" cy="304.54" rx=".37" ry=".61" transform="translate(-132.08 102.27) rotate(-29.21)"/>
          <ellipse class="cls-3" cx="130.18" cy="304.54" rx=".22" ry=".35" transform="translate(-132.08 102.27) rotate(-29.21)"/>
        </g>
        <g>
          <ellipse class="cls-48" cx="124.28" cy="300.74" rx=".37" ry=".61" transform="translate(-130.97 98.91) rotate(-29.21)"/>
          <ellipse class="cls-3" cx="124.28" cy="300.74" rx=".22" ry=".35" transform="translate(-130.97 98.91) rotate(-29.21)"/>
        </g>
      </g>
      <path class="cls-15" d="M273.14,312.93L57.62,188.68v65.07c0,2.87,1.53,5.52,4.01,6.96l55.81,32.2c.34-5.49,4-8.43,9-6.65,5.69,2.03,10.89,9.36,11.61,16.38,.03,.27,.05,1.13,.06,2.2l65.25,37.64c.17-5.76,3.92-8.88,9.04-7.05,5.69,2.03,10.89,9.36,11.61,16.38,.03,.31,.05,1.36,.06,2.63l54.48,31.43-5.44-72.94Z"/>
      <polygon class="cls-48" points="273.49 360.95 64.47 239.88 64.47 200.16 270.41 319.44 273.49 360.95"/>
      <g>
        <path class="cls-36" d="M198.27,317.38l25.15-25.15-23.02-13.33c-7.02,7.02-16.96,16.97-25.14,25.16l23,13.32Z"/>
        <polygon class="cls-36" points="213.73 326.33 216.84 328.14 242 302.98 238.89 301.18 213.73 326.33"/>
        <polygon class="cls-36" points="235.46 299.2 230.49 296.32 205.34 321.47 210.31 324.35 235.46 299.2"/>
      </g>
      <g>
        <path class="cls-36" d="M119.69,271.86l25.15-25.15-23.02-13.33c-7.07,7.06-17,17-25.14,25.16l23,13.32Z"/>
        <polygon class="cls-36" points="163.41 257.47 160.3 255.67 135.15 280.82 138.26 282.62 163.41 257.47"/>
        <polygon class="cls-36" points="156.88 253.68 151.9 250.8 126.75 275.95 131.72 278.83 156.88 253.68"/>
      </g>
      <polygon class="cls-31" points="277.48 371.11 64.47 248 64.47 243.08 277.1 365.98 277.48 371.11"/>
      <path class="cls-29" d="M57.62,221.38v25.63c2.79,.52,5.62-1.56,5.62-4.66v-17.72l-5.62-3.25Z"/>
      <polygon class="cls-52" points="57.62 251.13 61.69 253.49 61.69 250.53 57.62 248.18 57.62 251.13"/>
      <polygon class="cls-29" points="57.62 218.89 63.25 222.09 63.25 220.48 57.62 217.28 57.62 218.89"/>
      <polygon class="cls-52" points="57.62 253.29 61.69 255.64 61.69 254.27 57.62 251.92 57.62 253.29"/>
      <polygon class="cls-15" points="74.3 207.87 65.76 202.95 65.76 208.66 74.3 213.6 74.3 207.87"/>
      <polygon class="cls-15" points="74.3 215.84 65.76 210.92 65.76 238.87 74.3 243.8 74.3 215.84"/>
      <g>
        <polygon class="cls-53" points="106.02 216.58 75.68 199.09 75.68 268.83 106.02 286.36 106.02 216.58"/>
        <polygon class="cls-48" points="87.61 213.23 78.14 207.77 78.14 264.76 87.61 270.23 87.61 213.23"/>
        <polygon class="cls-48" points="103.42 222.41 93.96 216.95 93.96 273.94 103.42 279.41 103.42 222.41"/>
        <polygon class="cls-15" points="89.58 276.86 92.11 278.32 92.11 208.56 89.58 207.1 89.58 276.86"/>
        <polygon class="cls-48" points="89.94 277.07 91.76 278.12 91.76 208.36 89.94 207.31 89.94 277.07"/>
        <polygon class="cls-7" points="106.02 216.58 75.68 199.09 75.68 202.94 106.02 220.48 106.02 216.58"/>
        <polygon class="cls-47" points="106.02 285.12 75.68 267.63 75.68 268.82 106.02 286.36 106.02 285.12"/>
      </g>
      <g>
        <polygon class="cls-53" points="267.77 309.83 237.44 292.33 237.44 362.07 267.77 379.61 267.77 309.83"/>
        <polygon class="cls-48" points="249.36 306.47 239.9 301.02 239.9 358 249.36 363.47 249.36 306.47"/>
        <polygon class="cls-48" points="265.18 315.66 255.71 310.2 255.71 367.18 265.18 372.65 265.18 315.66"/>
        <polygon class="cls-15" points="251.34 370.11 253.87 371.57 253.87 301.81 251.34 300.35 251.34 370.11"/>
        <polygon class="cls-48" points="251.7 370.32 253.51 371.37 253.51 301.6 251.7 300.56 251.7 370.32"/>
        <polygon class="cls-7" points="267.77 309.83 237.44 292.33 237.44 296.19 267.77 313.72 267.77 309.83"/>
        <polygon class="cls-7" points="267.77 375.71 237.44 358.22 237.44 362.07 267.77 379.61 267.77 375.71"/>
      </g>
      <g>
        <polygon class="cls-53" points="183.27 261.09 152.93 243.59 152.93 313.33 183.27 330.87 183.27 261.09"/>
        <polygon class="cls-48" points="164.86 257.73 155.4 252.28 155.4 309.26 164.86 314.73 164.86 257.73"/>
        <polygon class="cls-48" points="180.67 266.92 171.21 261.46 171.21 318.45 180.67 323.91 180.67 266.92"/>
        <polygon class="cls-15" points="166.84 321.37 169.37 322.83 169.37 253.07 166.84 251.61 166.84 321.37"/>
        <polygon class="cls-48" points="167.19 321.58 169.01 322.63 169.01 252.86 167.19 251.82 167.19 321.58"/>
        <polygon class="cls-7" points="183.27 261.09 152.93 243.59 152.93 247.45 183.27 264.98 183.27 261.09"/>
        <polygon class="cls-47" points="183.27 329.46 152.93 311.97 152.93 313.33 183.27 330.87 183.27 329.46"/>
      </g>
      <path class="cls-2" d="M273.14,313.44c-.09,0-.18-.02-.26-.07L57.37,189.12c-.16-.09-.26-.26-.26-.45s.1-.35,.26-.44l56.27-31.38c.16-.09,.35-.09,.5,0l215.54,124.25c.16,.09,.26,.26,.26,.45s-.1,.35-.26,.44l-56.29,31.39c-.08,.04-.16,.06-.25,.06ZM58.65,188.69l214.49,123.66,55.25-30.81L113.89,157.88l-55.23,30.81Z"/>
      <g>
        <polygon class="cls-6" points="142.85 187.68 111.83 204.93 82.35 188.16 82.35 186.79 113.37 170.91 142.85 186.31 142.85 187.68"/>
        <polygon class="cls-12" points="142.85 186.31 111.83 203.56 82.35 186.79 113.37 169.54 142.85 186.31"/>
        <polygon class="cls-37" points="134.46 186.38 112.05 198.84 90.74 186.73 113.15 174.26 134.46 186.38"/>
      </g>
      <g>
        <polygon class="cls-6" points="226.39 235.14 195.37 252.39 127.67 213.84 127.67 210.04 158.69 196.59 226.39 231.35 226.39 235.14"/>
        <polygon class="cls-12" points="226.39 231.35 195.37 248.59 127.67 210.04 158.69 192.79 226.39 231.35"/>
        <polygon class="cls-1" points="187.36 240.6 185.71 241.52 130.74 209.7 132.4 208.78 187.36 240.6"/>
        <polygon class="cls-1" points="191.08 238.54 189.43 239.46 134.46 207.65 136.11 206.72 191.08 238.54"/>
        <polygon class="cls-1" points="194.8 236.48 193.15 237.4 138.18 205.59 139.83 204.67 194.8 236.48"/>
        <polygon class="cls-1" points="198.52 234.43 196.86 235.35 141.9 203.53 143.55 202.61 198.52 234.43"/>
        <polygon class="cls-1" points="202.24 232.37 200.58 233.29 145.61 201.47 147.27 200.55 202.24 232.37"/>
        <polygon class="cls-1" points="205.96 230.31 204.3 231.23 149.33 199.42 150.99 198.5 205.96 230.31"/>
        <polygon class="cls-1" points="209.68 228.25 208.02 229.18 153.05 197.36 154.71 196.44 209.68 228.25"/>
        <polygon class="cls-1" points="213.4 226.2 211.74 227.12 156.77 195.3 158.43 194.38 213.4 226.2"/>
      </g>
      <g>
        <polygon class="cls-6" points="290.7 270.67 259.68 287.92 230.19 271.15 230.19 269.78 261.21 253.9 290.7 269.3 290.7 270.67"/>
        <polygon class="cls-12" points="290.7 269.3 259.68 286.55 230.19 269.78 261.21 252.53 290.7 269.3"/>
        <polygon class="cls-37" points="282.3 269.37 259.89 281.83 238.59 269.71 261 257.25 282.3 269.37"/>
      </g>
      <text class="cls-27" transform="translate(280.82 326.06) rotate(-29.93) scale(1.11 .87) skewX(-24.16)"><tspan x="0" y="0">27 BUS</tspan></text>
      <g class="cls-35">
        <path class="cls-4" d="M307.26,300.15l-19.89,11.09c-2.36,5.54-5.34,12.52-8.18,19.15l19.81-10.97,8.25-19.27Z"/>
        <polygon class="cls-4" points="319.6 293.27 313.07 296.91 304.99 316.11 311.66 312.43 319.6 293.27"/>
        <polygon class="cls-4" points="326.44 292.96 326.19 289.6 324.76 290.39 316.52 309.73 319.75 307.94 326.44 292.96"/>
      </g>
      <path class="cls-33" d="M278.58,385.87l5.46-2.8,12.58-7.19c-1.9-1.38-4.45-2.21-7.64-2.27-3.51-.07-7.34,.85-11.14,2.38l.73,9.87Z"/>
      <path class="cls-33" d="M319.74,363.08l15.16-8.33-.62-8.72-.17-1.3c-6,3.42-11.28,10.44-14.38,18.35Z"/>
      <g>
        <ellipse class="cls-16" cx="282.48" cy="379.11" rx="4.05" ry="2.33" transform="translate(-177 490.46) rotate(-66.93)"/>
        <ellipse class="cls-5" cx="282.48" cy="379.11" rx="2.15" ry="1.24" transform="translate(-176.99 490.47) rotate(-66.93)"/>
        <ellipse class="cls-16" cx="331.34" cy="352.07" rx="4.05" ry="2.33" transform="translate(-122.41 518.98) rotate(-66.93)"/>
        <ellipse class="cls-5" cx="331.34" cy="352.07" rx="2.15" ry="1.24" transform="translate(-122.41 518.98) rotate(-66.93)"/>
        <ellipse class="cls-5" cx="287.6" cy="377.07" rx="2.15" ry="1.24" transform="translate(-172.01 493.93) rotate(-66.93)"/>
        <ellipse class="cls-5" cx="326.57" cy="356.12" rx="2.15" ry="1.24" transform="translate(-129.03 517.05) rotate(-66.93)"/>
        <ellipse class="cls-5" cx="291.21" cy="376.18" rx=".98" ry=".56" transform="translate(-168.99 496.72) rotate(-66.93)"/>
        <ellipse class="cls-5" cx="323.58" cy="359.02" rx=".98" ry=".56" transform="translate(-133.52 516.06) rotate(-66.93)"/>
      </g>
      <polygon class="cls-48" points="141.12 221.5 141.12 219.09 130.08 212.81 130.08 215.21 141.12 221.5"/>
      <polygon class="cls-48" points="162.29 233.52 162.29 231.12 151.25 224.83 151.25 227.23 162.29 233.52"/>
      <path class="cls-32" d="M57.62,223.62v9.34c.24,.14,.47,.34,.72,.42,2.23,.79,3.81-.79,3.52-3.53-.27-2.62-2.14-5.29-4.24-6.23Z"/>
      <path class="cls-29" d="M57.62,225.86v4.85c.16,.1,.31,.22,.47,.28,1.16,.41,1.98-.41,1.83-1.84-.14-1.4-1.17-2.85-2.3-3.29Z"/>
      <path class="cls-32" d="M57.62,236.88v6.58c.19,.11,.37,.27,.57,.34,1.57,.56,2.68-.56,2.48-2.49-.19-1.87-1.54-3.79-3.05-4.43Z"/>
    </g>
    <g>
      <g>
        <polygon class="cls-55" points="234.76 302.78 219.7 294.1 219.7 313.67 234.76 322.38 234.76 302.78"/>
        <path class="cls-55" d="M235.78,324.14l-17.1-9.89v-21.92l17.1,9.86v21.95Zm-15.06-11.06l13.02,7.53v-17.23l-13.02-7.51v17.22Z"/>
      </g>
      <polygon class="cls-48" points="234.76 302.78 219.7 294.1 219.7 313.67 234.76 322.38 234.76 302.78"/>
      <text class="cls-26" transform="translate(221.08 311.93) rotate(29.02) scale(1.02 .87) skewX(25.39)"><tspan x="0" y="0">27</tspan></text>
      <polygon class="cls-28" points="227.93 300.49 221.1 296.42 221.1 298.07 227.93 302.14 227.93 300.49"/>
      <polygon class="cls-28" points="223.12 300.33 221.1 299.12 221.1 300.77 223.12 301.98 223.12 300.33"/>
      <polygon class="cls-28" points="226.15 302.1 224.13 300.89 224.13 302.54 226.15 303.75 226.15 302.1"/>
      <polygon class="cls-28" points="231.2 302.25 229.18 301.04 229.18 302.69 231.2 303.9 231.2 302.25"/>
    </g>
  </g>
</svg>